<svg width="411" height="87" viewBox="0 0 411 87" fill="none" xmlns="http://www.w3.org/2000/svg">
<path d="M100.29 55L106.77 43.432H109.842V55H118.242V20.68H106.29C103.266 20.68 101.01 20.968 99.6179 21.496C95.7779 22.984 93.2819 26.584 93.2819 31.624C93.2819 36.376 95.1059 39.736 98.8019 41.8V41.896L97.5059 43.96L90.9299 55H100.29ZM106.194 36.472C103.266 36.472 101.826 34.984 101.826 32.056C101.826 30.568 102.21 29.464 102.978 28.84C103.794 28.216 105.138 27.88 107.01 27.88H109.842V36.472H106.194ZM139.762 44.824V37.624H124.69V44.824H139.762ZM168.353 55V47.8H154.577V41.32H165.041V34.12H154.577V27.88H167.681V20.68H146.177V55H168.353ZM186.224 55C188.96 55 191.168 54.424 192.944 53.224C194.72 52.024 195.632 50.2 195.632 47.656C195.632 45.208 194.384 43 191.744 42.184V42.136C193.52 41.032 194.624 38.92 194.624 36.76C194.624 32.584 191.36 30.28 186.224 30.28H172.736V55H186.224ZM181.04 35.416H184.064C185.6 35.416 186.368 36.28 186.368 37.576C186.368 38.968 185.648 40.024 184.16 40.024H181.04V35.416ZM181.04 44.872H184.736C186.416 44.872 187.328 45.976 187.328 47.368C187.328 48.712 186.368 49.816 184.688 49.816H181.04V44.872ZM208.228 55V37.24H215.572V55H223.876V30.28H199.924V55H208.228ZM227.679 48.04C227.679 50.2 228.447 51.976 229.935 53.416C231.423 54.856 233.391 55.576 235.743 55.576C238.623 55.576 241.503 54.232 243.087 51.976H243.183L243.087 53.512V55H250.671V39.784C250.671 33.496 246.495 29.704 239.631 29.704C237.711 29.704 235.743 30.04 233.775 30.664C231.807 31.288 230.271 32.056 229.167 32.92L232.047 38.776C234.399 37.192 236.703 36.424 238.863 36.424C241.215 36.424 242.367 37.336 242.367 39.16V39.592H241.647C238.335 39.592 235.263 40.12 232.383 41.32C229.551 42.52 227.679 44.92 227.679 48.04ZM235.887 47.272C235.887 45.208 238.623 44.344 241.695 44.344H242.463V45.016C242.463 46.072 242.031 47.08 241.215 47.992C240.399 48.904 239.391 49.384 238.239 49.384C236.751 49.384 235.887 48.472 235.887 47.272ZM269.667 55V37.24H277.203V30.28H253.875V37.24H261.363V55H269.667ZM292.984 29.704C289.048 29.704 285.736 30.904 283.048 33.352C280.36 35.8 279.016 38.92 279.016 42.712C279.016 46.504 280.36 49.624 283.048 52.024C285.736 54.376 289.048 55.576 293.032 55.576C297.016 55.576 300.328 54.376 303.016 52.024C305.704 49.624 307.048 46.504 307.048 42.712C307.048 38.872 305.704 35.752 302.968 33.352C300.28 30.904 296.968 29.704 292.984 29.704ZM287.416 42.712C287.416 39.064 289.912 36.616 293.032 36.616C296.152 36.616 298.648 39.064 298.648 42.712C298.648 46.312 296.152 48.664 293.032 48.664C289.912 48.664 287.416 46.312 287.416 42.712ZM319.509 64.6V55.336C319.509 54.52 319.461 53.8 319.413 53.224H319.509C321.333 54.808 323.445 55.576 325.797 55.576C329.109 55.576 331.893 54.376 334.053 52.024C336.213 49.672 337.317 46.552 337.317 42.664C337.317 38.776 336.309 35.656 334.245 33.304C332.229 30.904 329.541 29.704 326.181 29.704C322.869 29.704 320.373 30.856 318.693 33.112H318.597L318.693 31.528V30.28H311.205V64.6H319.509ZM319.269 42.808C319.269 38.776 321.381 36.712 324.117 36.712C326.997 36.712 328.965 39.16 328.965 42.808C328.965 46.456 326.853 48.712 324.117 48.712C321.045 48.712 319.269 46.024 319.269 42.808ZM349.644 55L356.508 44.152C357.324 42.76 357.756 41.944 357.852 41.704H357.948C357.9 42.328 357.852 43.192 357.852 44.2V55H365.676V30.28H357.612L350.748 41.176C350.076 42.328 349.644 43.144 349.404 43.624H349.308C349.356 42.808 349.404 41.992 349.404 41.176V30.28H341.58V55H349.644ZM377.684 55L382.436 47.464H384.164V55H392.468V30.28H379.508C373.988 30.28 370.58 33.448 370.58 38.632C370.58 41.752 372.356 44.632 375.044 45.976V46.024L373.892 47.512L368.9 55H377.684ZM382.196 41.944C379.94 41.944 378.836 40.84 378.836 38.584C378.836 36.472 379.94 35.416 382.148 35.416H384.164V41.944H382.196ZM406.177 44.392L406.945 20.68H398.305L399.073 44.392H406.177ZM406.417 55V47.8H398.833V55H406.417Z" fill="#4338CA"/>
<path d="M94.765 77.4542L97.75 72.4592C98.035 71.9942 98.335 71.3792 98.65 70.6292H98.68L98.56 72.4592V77.4542H101.185V66.7292H98.53L95.56 71.7392C95.275 72.2042 94.975 72.8192 94.66 73.5692H94.63L94.75 71.7392V66.7292H92.125V77.4542H94.765ZM106.959 77.4542V73.2542H110.859V77.4542H113.484V66.7292H110.859V71.0192H106.959V66.7292H104.334V77.4542H106.959ZM121.58 77.4542V68.9792H124.835V66.7292H115.7V68.9792H118.955V77.4542H121.58ZM133.982 77.4542V75.2042H129.677V73.1792H132.947V70.9292H129.677V68.9792H133.772V66.7292H127.052V77.4542H133.982ZM139.219 77.4542V74.1392H141.049C142.084 74.1392 142.924 73.7942 143.569 73.1042C144.214 72.3992 144.544 71.5142 144.544 70.4192C144.544 69.3392 144.214 68.4542 143.569 67.7642C142.924 67.0742 142.084 66.7292 141.049 66.7292H136.594V77.4542H139.219ZM139.219 68.9792H140.554C141.394 68.9792 141.874 69.5342 141.874 70.4192C141.874 71.3042 141.394 71.8892 140.509 71.8892H139.219V68.9792ZM149.494 77.4542V73.2542H153.394V77.4542H156.019V66.7292H153.394V71.0192H149.494V66.7292H146.869V77.4542H149.494ZM166.096 77.4542V75.2042H161.791V73.1792H165.061V70.9292H161.791V68.9792H165.886V66.7292H159.166V77.4542H166.096ZM173.658 77.4542V68.9792H176.913V66.7292H167.778V68.9792H171.033V77.4542H173.658ZM182.721 74.2742V72.0242H178.011V74.2742H182.721ZM188.25 77.4542V73.2542H192.15V77.4542H194.775V66.7292H192.15V71.0192H188.25V66.7292H185.625V77.4542H188.25ZM199.452 77.4542L200.097 75.2042H203.442L204.102 77.4542H206.802L203.157 66.7292H200.397L196.752 77.4542H199.452ZM201.327 71.0192C201.462 70.5692 201.597 69.9542 201.762 69.1742H201.792L202.227 71.0192L202.827 73.1042H200.712L201.327 71.0192ZM212.728 77.4542C213.913 77.4542 214.888 77.1992 215.653 76.6742C216.418 76.1492 216.808 75.3542 216.808 74.2592C216.808 73.1942 216.268 72.1892 215.128 71.8442V71.8142C215.908 71.3492 216.373 70.4492 216.373 69.5342C216.373 67.7342 214.933 66.7292 212.728 66.7292H208.783V77.4542H212.728ZM211.408 68.9792H212.713C213.373 68.9792 213.703 69.3542 213.703 69.8942C213.703 70.4492 213.373 70.8842 212.758 70.8842H211.408V68.9792ZM211.408 72.9842H212.998C213.733 72.9842 214.123 73.4342 214.123 74.0792C214.123 74.7242 213.703 75.2042 212.983 75.2042H211.408V72.9842ZM222.035 77.4542L225.02 72.4592C225.305 71.9942 225.605 71.3792 225.92 70.6292H225.95L225.83 72.4592V77.4542H228.455V66.7292H225.8L222.83 71.7392C222.545 72.2042 222.245 72.8192 221.93 73.5692H221.9L222.02 71.7392V66.7292H219.395V77.4542H222.035ZM234.228 77.4542V68.9792H238.173V66.7292H231.603V77.4542H234.228ZM241.065 77.4542L241.71 75.2042H245.055L245.715 77.4542H248.415L244.77 66.7292H242.01L238.365 77.4542H241.065ZM242.94 71.0192C243.075 70.5692 243.21 69.9542 243.375 69.1742H243.405L243.84 71.0192L244.44 73.1042H242.325L242.94 71.0192ZM254.496 77.4542V68.9792H257.751V66.7292H248.616V68.9792H251.871V77.4542H254.496ZM259.133 72.0242C259.133 73.6142 259.658 74.9492 260.723 76.0292C261.788 77.0942 263.138 77.6342 264.743 77.6342C266.348 77.6342 267.683 77.0942 268.748 76.0292C269.813 74.9492 270.353 73.6142 270.353 72.0242C270.353 70.4792 269.813 69.1742 268.748 68.1242C267.683 67.0742 266.348 66.5492 264.743 66.5492C263.138 66.5492 261.788 67.0742 260.723 68.1242C259.658 69.1742 259.133 70.4792 259.133 72.0242ZM261.848 72.0242C261.848 71.1542 262.133 70.4192 262.688 69.8342C263.243 69.2492 263.933 68.9492 264.743 68.9492C265.553 68.9492 266.243 69.2492 266.798 69.8342C267.353 70.4192 267.638 71.1542 267.638 72.0242C267.638 72.9392 267.353 73.7042 266.798 74.3192C266.243 74.9342 265.553 75.2342 264.743 75.2342C263.933 75.2342 263.243 74.9342 262.688 74.3192C262.133 73.7042 261.848 72.9392 261.848 72.0242ZM275.548 77.4542V74.1392H277.378C278.413 74.1392 279.253 73.7942 279.898 73.1042C280.543 72.3992 280.873 71.5142 280.873 70.4192C280.873 69.3392 280.543 68.4542 279.898 67.7642C279.253 67.0742 278.413 66.7292 277.378 66.7292H272.923V77.4542H275.548ZM275.548 68.9792H276.883C277.723 68.9792 278.203 69.5342 278.203 70.4192C278.203 71.3042 277.723 71.8892 276.838 71.8892H275.548V68.9792Z" fill="#D97706"/>
<path d="M41.453 27.9522C41.453 29.3418 40.5859 33.1703 39.5163 33.1703C38.4467 33.1703 37.5796 29.3418 37.5796 27.9522C37.5796 26.5625 38.4467 25.436 39.5163 25.436C40.5859 25.436 41.453 26.5625 41.453 27.9522Z" fill="#D97706"/>
<path d="M37.5796 31.6167H41.4193V36.0749H37.5796V31.6167Z" fill="#D97706"/>
<path d="M37.5459 27.3105C37.5459 25.9208 38.413 22.0923 39.4826 22.0923C40.5522 22.0923 41.4193 25.9208 41.4193 27.3105C41.4193 28.7001 40.5522 29.8266 39.4826 29.8266C38.413 29.8266 37.5459 28.7001 37.5459 27.3105Z" fill="#D97706"/>
<path d="M41.4193 23.6459H37.5796L37.5796 19.1877H41.4193V23.6459Z" fill="#D97706"/>
<path d="M41.453 54.5063C41.453 55.896 40.5859 59.7244 39.5163 59.7244C38.4467 59.7244 37.5796 55.896 37.5796 54.5063C37.5796 53.1167 38.4467 51.9901 39.5163 51.9901C40.5859 51.9901 41.453 53.1167 41.453 54.5063Z" fill="#D97706"/>
<path d="M37.5796 58.1708H41.4193V62.629H37.5796V58.1708Z" fill="#D97706"/>
<path d="M37.5459 53.8646C37.5459 52.4749 38.413 48.6465 39.4826 48.6465C40.5522 48.6465 41.4193 52.4749 41.4193 53.8646C41.4193 55.2543 40.5522 56.3808 39.4826 56.3808C38.413 56.3808 37.5459 55.2543 37.5459 53.8646Z" fill="#D97706"/>
<path d="M41.4193 50.2001H37.5796L37.5796 45.7419H41.4193V50.2001Z" fill="#D97706"/>
<path d="M53.0151 38.9945C54.4009 38.9945 58.2189 39.864 58.2189 40.9365C58.2189 42.0091 54.4009 42.8786 53.0151 42.8786C51.6293 42.8786 50.5058 42.0091 50.5058 40.9365C50.5058 39.864 51.6293 38.9945 53.0151 38.9945Z" fill="#D97706"/>
<path d="M56.6695 42.8786V39.0283H61.1155V42.8786H56.6695Z" fill="#D97706"/>
<path d="M52.3751 42.9123C50.9893 42.9123 47.1714 42.0429 47.1714 40.9703C47.1714 39.8978 50.9893 39.0283 52.3752 39.0283C53.761 39.0283 54.8844 39.8978 54.8844 40.9703C54.8844 42.0429 53.761 42.9123 52.3751 42.9123Z" fill="#D97706"/>
<path d="M48.7207 39.0283V42.8786H44.2747V39.0283H48.7207Z" fill="#D97706"/>
<path d="M26.751 38.9945C28.1368 38.9945 31.9548 39.864 31.9548 40.9365C31.9548 42.0091 28.1368 42.8786 26.751 42.8786C25.3651 42.8786 24.2417 42.0091 24.2417 40.9365C24.2417 39.864 25.3651 38.9945 26.751 38.9945Z" fill="#D97706"/>
<path d="M30.4054 42.8786V39.0283H34.8514V42.8786H30.4054Z" fill="#D97706"/>
<path d="M26.111 42.9123C24.7252 42.9123 20.9072 42.0429 20.9072 40.9703C20.9072 39.8978 24.7252 39.0283 26.111 39.0283C27.4969 39.0283 28.6203 39.8978 28.6203 40.9703C28.6203 42.0429 27.4969 42.9123 26.111 42.9123Z" fill="#D97706"/>
<path d="M22.4566 39.0283V42.8786H18.0106V39.0283H22.4566Z" fill="#D97706"/>
<path d="M31.7632 30.4069C32.7431 31.3895 34.8297 34.7115 34.0734 35.4699C33.317 36.2283 30.0042 34.136 29.0243 33.1533C28.0443 32.1707 27.8631 30.7593 28.6194 30.0009C29.3757 29.2425 30.7832 29.4243 31.7632 30.4069Z" fill="#D97706"/>
<path d="M31.6084 35.7445L34.3234 33.022L37.4672 36.1744L34.7521 38.897L31.6084 35.7445Z" fill="#D97706"/>
<path d="M28.5479 32.7235C27.568 31.7408 25.4814 28.4189 26.2377 27.6605C26.9941 26.9021 30.3069 28.9944 31.2868 29.977C32.2668 30.9597 32.448 32.3711 31.6917 33.1295C30.9354 33.8879 29.5279 33.7061 28.5479 32.7235Z" fill="#D97706"/>
<path d="M28.7027 27.3858L25.9877 30.1084L22.8439 26.9559L25.559 24.2334L28.7027 27.3858Z" fill="#D97706"/>
<path d="M50.4882 49.1835C51.4681 50.1661 53.5547 53.4881 52.7984 54.2465C52.0421 55.0049 48.7292 52.9126 47.7493 51.93C46.7694 50.9473 46.5881 49.5359 47.3444 48.7775C48.1007 48.0191 49.5082 48.2009 50.4882 49.1835Z" fill="#D97706"/>
<path d="M50.3334 54.5212L53.0484 51.7986L56.1922 54.951L53.4771 57.6736L50.3334 54.5212Z" fill="#D97706"/>
<path d="M47.273 51.5001C46.293 50.5174 44.2064 47.1955 44.9628 46.4371C45.7191 45.6787 49.0319 47.771 50.0119 48.7536C50.9918 49.7363 51.1731 51.1477 50.4167 51.9061C49.6604 52.6645 48.2529 52.4827 47.273 51.5001Z" fill="#D97706"/>
<path d="M47.4278 46.1624L44.7127 48.885L41.5689 45.7326L44.284 43.01L47.4278 46.1624Z" fill="#D97706"/>
<path d="M47.7255 30.0168C48.7054 29.0342 52.0182 26.9419 52.7746 27.7003C53.5309 28.4587 51.4443 31.7806 50.4644 32.7633C49.4844 33.7459 48.0769 33.9277 47.3206 33.1693C46.5643 32.4109 46.7455 30.9995 47.7255 30.0168Z" fill="#D97706"/>
<path d="M53.0485 30.1721L50.3334 27.4495L53.4771 24.2971L56.1922 27.0196L53.0485 30.1721Z" fill="#D97706"/>
<path d="M50.0357 33.2409C49.0557 34.2235 45.7429 36.3159 44.9866 35.5575C44.2303 34.7991 46.3169 31.4771 47.2968 30.4945C48.2767 29.5118 49.6842 29.3301 50.4406 30.0885C51.1969 30.8469 51.0156 32.2583 50.0357 33.2409Z" fill="#D97706"/>
<path d="M44.7127 33.0857L47.4278 35.8082L44.284 38.9607L41.5689 36.2381L44.7127 33.0857Z" fill="#D97706"/>
<path d="M29.1539 48.6395C30.1339 47.6569 33.4467 45.5646 34.203 46.323C34.9593 47.0814 32.8728 50.4034 31.8928 51.386C30.9129 52.3686 29.5054 52.5504 28.7491 51.792C27.9927 51.0336 28.174 49.6222 29.1539 48.6395Z" fill="#D97706"/>
<path d="M34.4769 48.7948L31.7618 46.0722L34.9056 42.9198L37.6207 45.6423L34.4769 48.7948Z" fill="#D97706"/>
<path d="M31.4641 51.8636C30.4842 52.8463 27.1714 54.9386 26.415 54.1802C25.6587 53.4218 27.7453 50.0998 28.7252 49.1172C29.7052 48.1346 31.1127 47.9528 31.869 48.7112C32.6253 49.4696 32.4441 50.881 31.4641 51.8636Z" fill="#D97706"/>
<path d="M26.1412 51.7084L28.8562 54.4309L25.7125 57.5834L22.9974 54.8608L26.1412 51.7084Z" fill="#D97706"/>
<path fill-rule="evenodd" clip-rule="evenodd" d="M39.5047 59.3507C49.6944 59.3507 57.9547 51.0676 57.9547 40.8499C57.9547 30.6322 49.6944 22.349 39.5047 22.349C29.3151 22.349 21.0547 30.6322 21.0547 40.8499C21.0547 51.0676 29.3151 59.3507 39.5047 59.3507ZM39.5047 66.7511C53.7702 66.7511 65.3347 55.1547 65.3347 40.8499C65.3347 26.5451 53.7702 14.9487 39.5047 14.9487C25.2392 14.9487 13.6747 26.5451 13.6747 40.8499C13.6747 55.1547 25.2392 66.7511 39.5047 66.7511Z" fill="#D97706"/>
<path fill-rule="evenodd" clip-rule="evenodd" d="M39.4994 45.0889C41.7771 45.0889 43.6236 43.2374 43.6236 40.9534C43.6236 38.6695 41.7771 36.8179 39.4994 36.8179C37.2218 36.8179 35.3753 38.6695 35.3753 40.9534C35.3753 43.2374 37.2218 45.0889 39.4994 45.0889ZM39.4994 49.0067C43.9349 49.0067 47.5306 45.4011 47.5306 40.9534C47.5306 36.5057 43.9349 32.9001 39.4994 32.9001C35.0639 32.9001 31.4683 36.5057 31.4683 40.9534C31.4683 45.4011 35.0639 49.0067 39.4994 49.0067Z" fill="#D97706"/>
<path fill-rule="evenodd" clip-rule="evenodd" d="M41.3859 11.185C42.1029 9.25645 42.5642 6.68729 42.5642 5.41552C42.5642 3.22762 41.1991 1.45398 39.5151 1.45398C37.831 1.45398 36.4659 3.22762 36.4659 5.41552C36.4659 6.68729 36.9272 9.25645 37.6442 11.185H36.4659V18.2041H42.5112V11.185H41.3859Z" fill="#D97706"/>
<path fill-rule="evenodd" clip-rule="evenodd" d="M37.6442 70.723C36.9271 72.6515 36.4659 75.2207 36.4659 76.4924C36.4659 78.6803 37.831 80.454 39.515 80.454C41.1991 80.454 42.5642 78.6803 42.5642 76.4924C42.5642 75.2207 42.1029 72.6515 41.3859 70.723H42.5642V63.7039H36.5189V70.723H37.6442Z" fill="#D97706"/>
<path fill-rule="evenodd" clip-rule="evenodd" d="M69.2957 42.7363C71.219 43.4553 73.7811 43.9178 75.0493 43.9178C77.2312 43.9178 79 42.5489 79 40.8602C79 39.1716 77.2312 37.8027 75.0493 37.8027C73.7811 37.8027 71.219 38.2652 69.2957 38.9842V37.8027H62.2959V43.8646H69.2957V42.7363Z" fill="#D97706"/>
<path fill-rule="evenodd" clip-rule="evenodd" d="M9.70428 38.9842C7.78103 38.2652 5.21893 37.8027 3.95065 37.8027C1.76877 37.8027 2.00816e-08 39.1716 0 40.8602C-2.00816e-08 42.5489 1.76877 43.9178 3.95065 43.9178C5.21893 43.9178 7.78103 43.4553 9.70428 42.7363V43.9178H16.7041V37.8559H9.70428V38.9842Z" fill="#D97706"/>
<path fill-rule="evenodd" clip-rule="evenodd" d="M61.8256 21.2414C63.6925 20.3861 65.8304 18.8965 66.7272 17.9972C68.27 16.4501 68.5554 14.228 67.3646 13.0339C66.1739 11.8399 63.9578 12.1261 62.415 13.6731C61.5182 14.5724 60.0327 16.7162 59.1798 18.5883L58.3466 17.7528L53.397 22.716L57.6716 27.0025L62.6212 22.0392L61.8256 21.2414Z" fill="#D97706"/>
<path fill-rule="evenodd" clip-rule="evenodd" d="M17.1957 60.688C15.3288 61.5432 13.1909 63.0328 12.2941 63.9321C10.7513 65.4792 10.4659 67.7013 11.6567 68.8954C12.8474 70.0894 15.0635 69.8032 16.6063 68.2562C17.5031 67.3569 18.9886 65.2132 19.8415 63.3411L20.6747 64.1765L25.6243 59.2133L21.3497 54.9268L16.4001 59.8901L17.1957 60.688Z" fill="#D97706"/>
<path fill-rule="evenodd" clip-rule="evenodd" d="M59.312 63.3411C60.1649 65.2132 61.6504 67.3569 62.5472 68.2562C64.09 69.8032 66.3061 70.0894 67.4968 68.8954C68.6876 67.7013 68.4022 65.4792 66.8594 63.9321C65.9626 63.0328 63.8247 61.5432 61.9578 60.688L62.7909 59.8525L57.8413 54.8892L53.5667 59.1757L58.5163 64.1389L59.312 63.3411Z" fill="#D97706"/>
<path fill-rule="evenodd" clip-rule="evenodd" d="M19.8203 18.4344C18.9673 16.5622 17.4818 14.4185 16.585 13.5192C15.0422 11.9722 12.8262 11.686 11.6354 12.88C10.4446 14.0741 10.73 16.2962 12.2728 17.8433C13.1696 18.7426 15.3075 20.2322 17.1745 21.0874L16.3413 21.9229L21.2909 26.8862L25.5656 22.5997L20.6159 17.6365L19.8203 18.4344Z" fill="#D97706"/>
</svg>
