<svg width="427" height="92" viewBox="0 0 427 92" fill="none" xmlns="http://www.w3.org/2000/svg">
<path d="M130.012 59.546V24.6369H116.239C112.273 24.6369 109.194 25.671 107 27.7392C104.819 29.8074 103.728 32.5744 103.728 36.0403C103.728 38.4267 104.256 40.4665 105.313 42.1597C106.381 43.8528 107.91 45.1256 109.898 45.9778L102.483 59.546H110.631L117.245 47.171H122.631V59.546H130.012ZM122.631 41.2392H117.62C113.427 41.2392 111.33 39.5062 111.33 36.0403C111.33 32.4608 113.438 30.671 117.654 30.671H122.631V41.2392ZM152.256 39.2108V44.9722H136.336V39.2108H152.256ZM158.58 59.546V24.6369H182.103V30.7222H165.961V39.0403H180.892V45.1256H165.961V53.4608H182.171V59.546H158.58ZM187.834 59.546V33.3642H198.999C202.226 33.3642 204.777 33.9778 206.652 35.2051C208.527 36.421 209.465 38.1653 209.465 40.4381C209.465 41.8472 208.937 43.029 207.88 43.9835C206.823 44.9267 205.357 45.5631 203.482 45.8926C205.834 46.0631 207.658 46.7619 208.954 47.9892C210.26 49.2051 210.914 50.6767 210.914 52.404C210.914 54.6312 210.033 56.3812 208.272 57.654C206.51 58.9153 203.993 59.546 200.721 59.546H187.834ZM194.601 54.1085H200.721C201.732 54.1085 202.522 53.8699 203.09 53.3926C203.669 52.904 203.959 52.2392 203.959 51.3983C203.959 50.4665 203.669 49.7335 203.09 49.1994C202.522 48.6653 201.732 48.3983 200.721 48.3983H194.601V54.1085ZM194.601 44.1369H199.152C200.232 44.1369 201.079 43.904 201.692 43.4381C202.317 42.9722 202.63 42.3244 202.63 41.4949C202.63 40.6881 202.306 40.0574 201.658 39.6028C201.01 39.1483 200.124 38.921 198.999 38.921H194.601V44.1369ZM215.491 59.546V33.3642H238.383V59.546H231.445V39.0744H222.343V59.546H215.491ZM251.644 60.0403C249.144 60.0403 247.07 59.3869 245.422 58.0801C243.775 56.7733 242.951 54.8244 242.951 52.2335C242.951 50.279 243.411 48.7449 244.331 47.6312C245.252 46.5176 246.456 45.7051 247.945 45.1937C249.445 44.671 251.059 44.3301 252.786 44.171C255.059 43.9437 256.684 43.7051 257.661 43.4551C258.638 43.2051 259.127 42.6597 259.127 41.8187V41.7165C259.127 40.6369 258.786 39.8017 258.104 39.2108C257.434 38.6199 256.479 38.3244 255.241 38.3244C253.934 38.3244 252.894 38.6085 252.121 39.1767C251.348 39.7449 250.837 40.4665 250.587 41.3415L243.871 40.796C244.371 38.4097 245.61 36.5176 247.587 35.1199C249.576 33.7222 252.138 33.0233 255.275 33.0233C257.218 33.0233 259.036 33.3301 260.729 33.9437C262.422 34.5574 263.786 35.5176 264.82 36.8244C265.866 38.1199 266.388 39.8074 266.388 41.8869V59.546H259.502V55.9153H259.297C258.661 57.1312 257.706 58.1256 256.434 58.8983C255.172 59.6597 253.576 60.0403 251.644 60.0403ZM253.723 55.029C255.314 55.029 256.621 54.5687 257.644 53.6483C258.667 52.7165 259.178 51.5631 259.178 50.1881V47.4097C258.894 47.6028 258.451 47.7733 257.848 47.921C257.258 48.0687 256.621 48.1994 255.939 48.3131C255.269 48.4153 254.667 48.5062 254.133 48.5858C252.86 48.7676 251.831 49.1256 251.047 49.6597C250.275 50.1937 249.888 50.9722 249.888 51.9949C249.888 52.9949 250.246 53.7506 250.962 54.2619C251.689 54.7733 252.61 55.029 253.723 55.029ZM269.439 39.0744V33.3642H293.167V39.0744H284.729V59.546H277.809V39.0744H269.439ZM308.461 60.0574C305.813 60.0574 303.523 59.4949 301.591 58.3699C299.671 57.2335 298.188 55.654 297.142 53.6312C296.097 51.5972 295.574 49.2392 295.574 46.5574C295.574 43.8528 296.097 41.4892 297.142 39.4665C298.188 37.4324 299.671 35.8528 301.591 34.7278C303.523 33.5915 305.813 33.0233 308.461 33.0233C311.108 33.0233 313.392 33.5915 315.313 34.7278C317.245 35.8528 318.733 37.4324 319.779 39.4665C320.824 41.4892 321.347 43.8528 321.347 46.5574C321.347 49.2392 320.824 51.5972 319.779 53.6312C318.733 55.654 317.245 57.2335 315.313 58.3699C313.392 59.4949 311.108 60.0574 308.461 60.0574ZM308.495 54.4324C310.29 54.4324 311.648 53.6824 312.569 52.1824C313.5 50.6824 313.966 48.7903 313.966 46.5062C313.966 44.2222 313.5 42.3301 312.569 40.8301C311.648 39.3187 310.29 38.5631 308.495 38.5631C306.665 38.5631 305.285 39.3187 304.353 40.8301C303.421 42.3301 302.955 44.2222 302.955 46.5062C302.955 48.7903 303.421 50.6824 304.353 52.1824C305.285 53.6824 306.665 54.4324 308.495 54.4324ZM326.069 69.3642V33.3642H333.228V37.7619H333.552C333.881 37.046 334.347 36.3244 334.949 35.5972C335.552 34.8699 336.347 34.2619 337.336 33.7733C338.324 33.2733 339.546 33.0233 341 33.0233C342.921 33.0233 344.682 33.5233 346.285 34.5233C347.887 35.5119 349.171 37.0062 350.137 39.0062C351.114 40.9949 351.603 43.4892 351.603 46.4892C351.603 49.4097 351.131 51.8756 350.188 53.8869C349.245 55.8869 347.972 57.404 346.37 58.4381C344.767 59.4608 342.972 59.9722 340.983 59.9722C339.574 59.9722 338.375 59.7392 337.387 59.2733C336.41 58.8074 335.608 58.2222 334.983 57.5176C334.37 56.8017 333.892 56.0801 333.552 55.3528H333.33V69.3642H326.069ZM333.177 46.4551C333.177 48.7847 333.654 50.6597 334.608 52.0801C335.574 53.4892 336.932 54.1937 338.682 54.1937C340.466 54.1937 341.83 53.4778 342.773 52.046C343.716 50.6028 344.188 48.7392 344.188 46.4551C344.188 44.1824 343.716 42.3415 342.773 40.9324C341.841 39.5119 340.478 38.8017 338.682 38.8017C336.921 38.8017 335.563 39.4949 334.608 40.8812C333.654 42.2562 333.177 44.1142 333.177 46.4551ZM363.381 49.9665L372.807 33.3642H379.966V59.546H373.046V42.8926L363.654 59.546H356.444V33.3642H363.381V49.9665ZM401.128 59.546V50.1028H396.475L391.446 59.546H384.492L390.134 48.9949C388.566 48.3131 387.356 47.3699 386.503 46.1653C385.651 44.9494 385.231 43.546 385.242 41.9551C385.231 39.3983 386.208 37.3301 388.174 35.7506C390.151 34.1597 392.833 33.3642 396.219 33.3642H407.895V59.546H401.128ZM401.128 45.1937V39.0574H396.219C394.878 39.0574 393.861 39.3642 393.168 39.9778C392.486 40.5915 392.151 41.3187 392.162 42.1597C392.151 43.0119 392.481 43.7335 393.151 44.3244C393.833 44.904 394.833 45.1937 396.151 45.1937H401.128ZM422.214 24.6369L421.549 49.0801H415.31L414.628 24.6369H422.214ZM418.429 59.9892C417.304 59.9892 416.339 59.5915 415.532 58.796C414.725 58.0006 414.327 57.0347 414.339 55.8983C414.327 54.7847 414.725 53.8301 415.532 53.0347C416.339 52.2392 417.304 51.8415 418.429 51.8415C419.52 51.8415 420.469 52.2392 421.276 53.0347C422.094 53.8301 422.509 54.7847 422.52 55.8983C422.509 57.0347 422.094 58.0006 421.276 58.796C420.469 59.5915 419.52 59.9892 418.429 59.9892Z" fill="#111827"/>
<path d="M103.017 72.3639V84.0002H105.142L110.205 76.6764H110.29V84.0002H112.75V72.3639H110.591L105.568 79.6821H105.466V72.3639H103.017ZM115.737 84.0002V72.3639H118.197V77.165H123.192V72.3639H125.646V84.0002H123.192V79.1934H118.197V84.0002H115.737ZM128.191 74.3923V72.3639H137.748V74.3923H134.186V84.0002H131.754V74.3923H128.191ZM140.282 84.0002V72.3639H148.123V74.3923H142.742V77.165H147.719V79.1934H142.742V81.9718H148.146V84.0002H140.282ZM151.039 84.0002V72.3639H155.63C156.512 72.3639 157.264 72.5324 157.885 72.8696C158.507 73.2029 158.98 73.6669 159.306 74.2616C159.635 74.8525 159.8 75.5343 159.8 76.3071C159.8 77.0798 159.634 77.7616 159.3 78.3525C158.967 78.9396 158.484 79.3999 157.851 79.7332C157.223 80.0627 156.461 80.2275 155.567 80.2275H153.499V84.0002H151.039ZM153.499 78.2559H155.17C155.874 78.2559 156.399 78.076 156.743 77.7162C157.092 77.3525 157.266 76.8828 157.266 76.3071C157.266 75.7275 157.092 75.2616 156.743 74.9093C156.399 74.5533 155.87 74.3752 155.158 74.3752H153.499V78.2559ZM162.358 84.0002V72.3639H164.818V77.165H169.813V72.3639H172.267V84.0002H169.813V79.1934H164.818V84.0002H162.358ZM175.256 84.0002V72.3639H183.097V74.3923H177.716V77.165H182.693V79.1934H177.716V81.9718H183.119V84.0002H175.256ZM185.569 74.3923V72.3639H195.126V74.3923H191.564V84.0002H189.132V74.3923H185.569ZM202.583 77.2218V79.1423H197.277V77.2218H202.583ZM205.651 84.0002V72.3639H208.112V77.165H213.106V72.3639H215.56V84.0002H213.106V79.1934H208.112V84.0002H205.651ZM220.555 84.0002H217.918L221.935 72.3639H225.106L229.117 84.0002H226.481L225.617 81.3468H221.418L220.555 84.0002ZM222.043 79.4264H224.998L223.566 75.023H223.475L222.043 79.4264ZM231.478 84.0002V72.3639H236.137C237.421 72.3639 238.385 72.6442 239.029 73.2048C239.676 73.7616 240 74.4756 240 75.3468C240 76.0324 239.801 76.5874 239.404 77.0116C239.006 77.4321 238.504 77.7105 237.898 77.8468V77.9605C238.341 77.9794 238.756 78.1044 239.142 78.3355C239.533 78.5665 239.849 78.8885 240.091 79.3014C240.334 79.7143 240.455 80.2086 240.455 80.7843C240.455 81.4018 240.301 81.9529 239.995 82.4377C239.692 82.9226 239.243 83.3052 238.648 83.5855C238.053 83.862 237.32 84.0002 236.449 84.0002H231.478ZM233.938 81.9889H235.944C236.633 81.9889 237.133 81.8563 237.444 81.5912C237.758 81.326 237.915 80.9756 237.915 80.54C237.915 80.059 237.743 79.665 237.398 79.3582C237.057 79.0514 236.591 78.898 236 78.898H233.938V81.9889ZM233.938 77.2332H235.762C236.265 77.2332 236.684 77.1025 237.017 76.8412C237.351 76.576 237.517 76.2143 237.517 75.7559C237.517 75.3355 237.368 74.9965 237.069 74.7389C236.773 74.4813 236.353 74.3525 235.807 74.3525H233.938V77.2332ZM243.021 72.3639V84.0002H245.146L250.209 76.6764H250.294V84.0002H252.754V72.3639H250.595L245.573 79.6821H245.47V72.3639H243.021ZM263.463 72.3639V74.3923H258.202V84.0002H255.741V72.3639H263.463ZM266.566 84.0002H263.93L267.947 72.3639H271.118L275.129 84.0002H272.493L271.629 81.3468H267.43L266.566 84.0002ZM268.055 79.4264H271.01L269.578 75.023H269.487L268.055 79.4264ZM275.609 74.3923V72.3639H285.166V74.3923H281.603V84.0002H279.171V74.3923H275.609ZM297.877 78.1821C297.877 79.451 297.637 80.5305 297.155 81.4207C296.678 82.3109 296.029 82.9908 295.207 83.4605C294.385 83.9264 293.458 84.1593 292.428 84.1593C291.394 84.1593 290.466 83.9245 289.644 83.4548C288.822 82.9851 288.173 82.3052 287.695 81.415C287.218 80.5211 286.979 79.4434 286.979 78.1821C286.979 76.9131 287.218 75.8336 287.695 74.9434C288.173 74.0533 288.822 73.3752 289.644 72.9093C290.466 72.4396 291.394 72.2048 292.428 72.2048C293.458 72.2048 294.385 72.4396 295.207 72.9093C296.029 73.3752 296.678 74.0533 297.155 74.9434C297.637 75.8336 297.877 76.9131 297.877 78.1821ZM295.383 78.1821C295.383 76.9472 295.114 76.0059 294.576 75.3582C294.038 74.7067 293.322 74.3809 292.428 74.3809C291.534 74.3809 290.818 74.7067 290.28 75.3582C289.743 76.0059 289.474 76.9472 289.474 78.1821C289.474 79.4131 289.743 80.3544 290.28 81.0059C290.818 81.6574 291.534 81.9832 292.428 81.9832C293.322 81.9832 294.038 81.6574 294.576 81.0059C295.114 80.3544 295.383 79.4131 295.383 78.1821ZM300.659 84.0002V72.3639H305.25C306.133 72.3639 306.885 72.5324 307.506 72.8696C308.127 73.2029 308.601 73.6669 308.927 74.2616C309.256 74.8525 309.421 75.5343 309.421 76.3071C309.421 77.0798 309.254 77.7616 308.921 78.3525C308.588 78.9396 308.105 79.3999 307.472 79.7332C306.843 80.0627 306.082 80.2275 305.188 80.2275H303.12V84.0002H300.659ZM303.12 78.2559H304.79C305.495 78.2559 306.019 78.076 306.364 77.7162C306.713 77.3525 306.887 76.8828 306.887 76.3071C306.887 75.7275 306.713 75.2616 306.364 74.9093C306.019 74.5533 305.491 74.3752 304.779 74.3752H303.12V78.2559Z" fill="#374151"/>
<path d="M44.8061 28.5629C44.8061 30.0608 43.8688 34.1876 42.7127 34.1876C41.5566 34.1876 40.6194 30.0608 40.6194 28.5629C40.6194 27.065 41.5566 25.8507 42.7127 25.8507C43.8688 25.8507 44.8061 27.065 44.8061 28.5629Z" fill="#111827"/>
<path d="M40.6194 32.513H44.7697V37.3186H40.6194V32.513Z" fill="#111827"/>
<path d="M40.583 27.8712C40.583 26.3733 41.5202 22.2465 42.6763 22.2465C43.8324 22.2465 44.7697 26.3733 44.7697 27.8712C44.7697 29.3691 43.8324 30.5834 42.6763 30.5834C41.5202 30.5834 40.583 29.3691 40.583 27.8712Z" fill="#111827"/>
<path d="M44.7697 23.9211H40.6194L40.6194 19.1156H44.7697V23.9211Z" fill="#111827"/>
<path d="M44.8061 57.1861C44.8061 58.6841 43.8688 62.8109 42.7127 62.8109C41.5566 62.8109 40.6194 58.6841 40.6194 57.1861C40.6194 55.6882 41.5566 54.4739 42.7127 54.4739C43.8688 54.4739 44.8061 55.6882 44.8061 57.1861Z" fill="#111827"/>
<path d="M40.6194 61.1362H44.7697V65.9418H40.6194V61.1362Z" fill="#111827"/>
<path d="M40.583 56.4944C40.583 54.9965 41.5202 50.8697 42.6763 50.8697C43.8324 50.8697 44.7697 54.9965 44.7697 56.4944C44.7697 57.9924 43.8324 59.2067 42.6763 59.2067C41.5202 59.2067 40.583 57.9924 40.583 56.4944Z" fill="#111827"/>
<path d="M44.7697 52.5444H40.6194L40.6194 47.7388H44.7697V52.5444Z" fill="#111827"/>
<path d="M57.3034 40.4657C58.8014 40.4657 62.9282 41.4029 62.9282 42.559C62.9282 43.7151 58.8014 44.6524 57.3034 44.6524C55.8055 44.6524 54.5912 43.7151 54.5912 42.559C54.5912 41.4029 55.8055 40.4657 57.3034 40.4657Z" fill="#111827"/>
<path d="M61.2535 44.6524V40.5021H66.0591V44.6524H61.2535Z" fill="#111827"/>
<path d="M56.6117 44.6888C55.1138 44.6888 50.987 43.7515 50.987 42.5954C50.987 41.4393 55.1138 40.5021 56.6117 40.5021C58.1097 40.5021 59.324 41.4393 59.324 42.5954C59.324 43.7515 58.1097 44.6888 56.6117 44.6888Z" fill="#111827"/>
<path d="M52.6617 40.5021V44.6524H47.8561V40.5021H52.6617Z" fill="#111827"/>
<path d="M28.9148 40.4657C30.4128 40.4657 34.5396 41.4029 34.5396 42.559C34.5396 43.7151 30.4128 44.6524 28.9148 44.6524C27.4169 44.6524 26.2026 43.7151 26.2026 42.559C26.2026 41.4029 27.4169 40.4657 28.9148 40.4657Z" fill="#111827"/>
<path d="M32.8649 44.6524V40.5021H37.6705V44.6524H32.8649Z" fill="#111827"/>
<path d="M28.2231 44.6888C26.7252 44.6888 22.5984 43.7515 22.5984 42.5954C22.5984 41.4393 26.7252 40.5021 28.2231 40.5021C29.7211 40.5021 30.9354 41.4393 30.9354 42.5954C30.9354 43.7515 29.7211 44.6888 28.2231 44.6888Z" fill="#111827"/>
<path d="M24.2731 40.5021V44.6524H19.4675V40.5021H24.2731Z" fill="#111827"/>
<path d="M34.3325 31.2089C35.3917 32.2681 37.647 35.8489 36.8295 36.6664C36.012 37.4839 32.4312 35.2285 31.372 34.1694C30.3128 33.1102 30.1169 31.5888 30.9344 30.7713C31.7519 29.9538 33.2733 30.1497 34.3325 31.2089Z" fill="#111827"/>
<path d="M34.1651 36.9625L37.0998 34.0278L40.4979 37.4258L37.5632 40.3605L34.1651 36.9625Z" fill="#111827"/>
<path d="M30.8572 33.706C29.798 32.6468 27.5426 29.066 28.3601 28.2485C29.1776 27.431 32.7584 29.6863 33.8176 30.7455C34.8768 31.8047 35.0727 33.3261 34.2552 34.1436C33.4377 34.9611 31.9164 34.7652 30.8572 33.706Z" fill="#111827"/>
<path d="M31.0245 27.9524L28.0898 30.8871L24.6917 27.4891L27.6264 24.5544L31.0245 27.9524Z" fill="#111827"/>
<path d="M54.5721 51.4486C55.6313 52.5078 57.8867 56.0886 57.0692 56.9061C56.2517 57.7236 52.6709 55.4682 51.6117 54.409C50.5525 53.3498 50.3566 51.8285 51.1741 51.011C51.9916 50.1935 53.5129 50.3894 54.5721 51.4486Z" fill="#111827"/>
<path d="M54.4048 57.2021L57.3395 54.2674L60.7376 57.6655L57.8029 60.6002L54.4048 57.2021Z" fill="#111827"/>
<path d="M51.0968 53.9457C50.0376 52.8865 47.7823 49.3057 48.5998 48.4882C49.4173 47.6707 52.9981 49.926 54.0573 50.9852C55.1165 52.0444 55.3124 53.5658 54.4949 54.3833C53.6774 55.2008 52.156 55.0049 51.0968 53.9457Z" fill="#111827"/>
<path d="M51.2642 48.1921L48.3295 51.1268L44.9314 47.7287L47.8661 44.794L51.2642 48.1921Z" fill="#111827"/>
<path d="M51.586 30.7885C52.6452 29.7293 56.226 27.4739 57.0435 28.2914C57.861 29.1089 55.6056 32.6897 54.5464 33.7489C53.4872 34.8081 51.9658 35.004 51.1483 34.1865C50.3308 33.369 50.5268 31.8477 51.586 30.7885Z" fill="#111827"/>
<path d="M57.3395 30.9558L54.4048 28.0211L57.8029 24.623L60.7376 27.5577L57.3395 30.9558Z" fill="#111827"/>
<path d="M54.083 34.2638C53.0238 35.323 49.443 37.5783 48.6255 36.7608C47.808 35.9433 50.0634 32.3625 51.1226 31.3033C52.1818 30.2441 53.7031 30.0482 54.5206 30.8657C55.3381 31.6832 55.1422 33.2046 54.083 34.2638Z" fill="#111827"/>
<path d="M48.3295 34.0964L51.2642 37.0311L47.8661 40.4292L44.9314 37.4945L48.3295 34.0964Z" fill="#111827"/>
<path d="M31.5122 50.8622C32.5714 49.803 36.1522 47.5477 36.9697 48.3652C37.7872 49.1827 35.5318 52.7635 34.4726 53.8227C33.4134 54.8819 31.8921 55.0778 31.0745 54.2603C30.257 53.4428 30.453 51.9214 31.5122 50.8622Z" fill="#111827"/>
<path d="M37.2657 51.0296L34.331 48.0949L37.7291 44.6968L40.6638 47.6315L37.2657 51.0296Z" fill="#111827"/>
<path d="M34.0092 54.3375C32.95 55.3967 29.3692 57.6521 28.5517 56.8346C27.7342 56.0171 29.9896 52.4363 31.0488 51.3771C32.108 50.3179 33.6294 50.122 34.4469 50.9395C35.2644 51.757 35.0684 53.2783 34.0092 54.3375Z" fill="#111827"/>
<path d="M28.2557 54.1702L31.1904 57.1049L27.7923 60.503L24.8576 57.5683L28.2557 54.1702Z" fill="#111827"/>
<path fill-rule="evenodd" clip-rule="evenodd" d="M42.7002 62.408C53.7141 62.408 62.6426 53.4795 62.6426 42.4656C62.6426 31.4517 53.7141 22.5232 42.7002 22.5232C31.6863 22.5232 22.7578 31.4517 22.7578 42.4656C22.7578 53.4795 31.6863 62.408 42.7002 62.408ZM42.7002 70.385C58.1197 70.385 70.6196 57.885 70.6196 42.4656C70.6196 27.0462 58.1197 14.5462 42.7002 14.5462C27.2808 14.5462 14.7808 27.0462 14.7808 42.4656C14.7808 57.885 27.2808 70.385 42.7002 70.385Z" fill="#111827"/>
<path fill-rule="evenodd" clip-rule="evenodd" d="M42.6945 47.0349C45.1565 47.0349 47.1522 45.0391 47.1522 42.5772C47.1522 40.1153 45.1565 38.1195 42.6945 38.1195C40.2326 38.1195 38.2368 40.1153 38.2368 42.5772C38.2368 45.0391 40.2326 47.0349 42.6945 47.0349ZM42.6945 51.258C47.4888 51.258 51.3753 47.3715 51.3753 42.5772C51.3753 37.7829 47.4888 33.8964 42.6945 33.8964C37.9002 33.8964 34.0137 37.7829 34.0137 42.5772C34.0137 47.3715 37.9002 51.258 42.6945 51.258Z" fill="#111827"/>
<path fill-rule="evenodd" clip-rule="evenodd" d="M44.7336 10.4893C45.5086 8.41043 46.0072 5.64109 46.0072 4.27022C46.0072 1.91184 44.5316 0 42.7114 0C40.8912 0 39.4156 1.91184 39.4156 4.27022C39.4156 5.64109 39.9142 8.41043 40.6892 10.4893H39.4156V18.0553H45.9499V10.4893H44.7336Z" fill="#111827"/>
<path fill-rule="evenodd" clip-rule="evenodd" d="M40.6892 74.6664C39.9142 76.7452 39.4156 79.5145 39.4156 80.8854C39.4156 83.2438 40.8912 85.1556 42.7114 85.1556C44.5316 85.1556 46.0072 83.2438 46.0072 80.8854C46.0072 79.5145 45.5086 76.7452 44.7336 74.6664H46.0072V67.1004H39.4729V74.6664H40.6892Z" fill="#111827"/>
<path fill-rule="evenodd" clip-rule="evenodd" d="M74.901 44.499C76.9798 45.274 79.7492 45.7726 81.12 45.7726C83.4784 45.7726 85.3902 44.297 85.3902 42.4768C85.3902 40.6566 83.4784 39.181 81.12 39.181C79.7492 39.181 76.9798 39.6795 74.901 40.4546V39.181H67.335V45.7153H74.901V44.499Z" fill="#111827"/>
<path fill-rule="evenodd" clip-rule="evenodd" d="M10.4893 40.4546C8.41043 39.6795 5.64109 39.181 4.27022 39.181C1.91184 39.181 2.17059e-08 40.6565 0 42.4768C-2.17059e-08 44.297 1.91184 45.7726 4.27022 45.7726C5.64109 45.7726 8.41043 45.274 10.4893 44.499V45.7726H18.0553V39.2383H10.4893V40.4546Z" fill="#111827"/>
<path fill-rule="evenodd" clip-rule="evenodd" d="M66.8266 21.3292C68.8446 20.4073 71.1553 18.8016 72.1247 17.8322C73.7923 16.1646 74.1008 13.7694 72.8137 12.4823C71.5266 11.1952 69.1313 11.5037 67.4637 13.1713C66.4944 14.1406 64.8887 16.4514 63.9668 18.4694L63.0662 17.5688L57.7162 22.9188L62.3366 27.5392L67.6866 22.1892L66.8266 21.3292Z" fill="#111827"/>
<path fill-rule="evenodd" clip-rule="evenodd" d="M18.5867 63.8494C16.5687 64.7714 14.2579 66.377 13.2886 67.3464C11.621 69.014 11.3125 71.4093 12.5996 72.6964C13.8867 73.9835 16.2819 73.675 17.9496 72.0074C18.9189 71.038 20.5246 68.7272 21.4465 66.7093L22.3471 67.6098L27.6971 62.2599L23.0766 57.6394L17.7266 62.9894L18.5867 63.8494Z" fill="#111827"/>
<path fill-rule="evenodd" clip-rule="evenodd" d="M64.1097 66.7093C65.0316 68.7272 66.6372 71.038 67.6066 72.0074C69.2742 73.675 71.6695 73.9835 72.9566 72.6964C74.2437 71.4093 73.9352 69.014 72.2676 67.3464C71.2982 66.377 68.9875 64.7714 66.9695 63.8494L67.87 62.9489L62.5201 57.5989L57.8996 62.2193L63.2496 67.5693L64.1097 66.7093Z" fill="#111827"/>
<path fill-rule="evenodd" clip-rule="evenodd" d="M21.4235 18.3035C20.5016 16.2855 18.8959 13.9747 17.9266 13.0054C16.2589 11.3378 13.8637 11.0293 12.5766 12.3164C11.2895 13.6035 11.598 15.9987 13.2656 17.6663C14.2349 18.6357 16.5457 20.2414 18.5637 21.1633L17.6631 22.0639L23.0131 27.4139L27.6335 22.7934L22.2835 17.4434L21.4235 18.3035Z" fill="#111827"/>
</svg>
