<svg width="321" height="45" viewBox="0 0 321 45" fill="none" xmlns="http://www.w3.org/2000/svg">
<path d="M28.4659 35V0.0909081H14.6932C10.7273 0.0909081 7.64773 1.125 5.45455 3.19318C3.27273 5.26136 2.18182 8.02841 2.18182 11.4943C2.18182 13.8807 2.71023 15.9205 3.76705 17.6136C4.83523 19.3068 6.36364 20.5795 8.35227 21.4318L0.9375 35H9.08523L15.6989 22.625H21.0852V35H28.4659ZM21.0852 16.6932H16.0739C11.8807 16.6932 9.78409 14.9602 9.78409 11.4943C9.78409 7.91477 11.892 6.125 16.108 6.125H21.0852V16.6932ZM50.7102 14.6648V20.4261H34.7898V14.6648H50.7102ZM57.0341 35V0.0909081H80.5568V6.17614H64.4148V14.4943H79.3466V20.5795H64.4148V28.9148H80.625V35H57.0341ZM86.2884 35V8.81818H97.4531C100.68 8.81818 103.232 9.43182 105.107 10.6591C106.982 11.875 107.919 13.6193 107.919 15.892C107.919 17.3011 107.391 18.483 106.334 19.4375C105.277 20.3807 103.811 21.017 101.936 21.3466C104.288 21.517 106.112 22.2159 107.408 23.4432C108.714 24.6591 109.368 26.1307 109.368 27.858C109.368 30.0852 108.487 31.8352 106.726 33.108C104.964 34.3693 102.447 35 99.1747 35H86.2884ZM93.0554 29.5625H99.1747C100.186 29.5625 100.976 29.3239 101.544 28.8466C102.124 28.358 102.413 27.6932 102.413 26.8523C102.413 25.9205 102.124 25.1875 101.544 24.6534C100.976 24.1193 100.186 23.8523 99.1747 23.8523H93.0554V29.5625ZM93.0554 19.5909H97.6065C98.6861 19.5909 99.5327 19.358 100.146 18.892C100.771 18.4261 101.084 17.7784 101.084 16.9489C101.084 16.142 100.76 15.5114 100.112 15.0568C99.4645 14.6023 98.5781 14.375 97.4531 14.375H93.0554V19.5909ZM113.945 35V8.81818H136.837V35H129.899V14.5284H120.797V35H113.945ZM150.098 35.4943C147.598 35.4943 145.524 34.8409 143.876 33.5341C142.229 32.2273 141.405 30.2784 141.405 27.6875C141.405 25.733 141.865 24.1989 142.786 23.0852C143.706 21.9716 144.911 21.1591 146.399 20.6477C147.899 20.125 149.513 19.7841 151.24 19.625C153.513 19.3977 155.138 19.1591 156.115 18.9091C157.092 18.6591 157.581 18.1136 157.581 17.2727V17.1705C157.581 16.0909 157.24 15.2557 156.558 14.6648C155.888 14.0739 154.933 13.7784 153.695 13.7784C152.388 13.7784 151.348 14.0625 150.575 14.6307C149.803 15.1989 149.291 15.9205 149.041 16.7955L142.325 16.25C142.825 13.8636 144.064 11.9716 146.041 10.5739C148.03 9.17614 150.592 8.47727 153.729 8.47727C155.672 8.47727 157.49 8.78409 159.183 9.39773C160.876 10.0114 162.24 10.9716 163.274 12.2784C164.32 13.5739 164.842 15.2614 164.842 17.3409V35H157.956V31.3693H157.751C157.115 32.5852 156.161 33.5795 154.888 34.3523C153.626 35.1136 152.03 35.4943 150.098 35.4943ZM152.178 30.483C153.768 30.483 155.075 30.0227 156.098 29.1023C157.121 28.1705 157.632 27.017 157.632 25.642V22.8636C157.348 23.0568 156.905 23.2273 156.303 23.375C155.712 23.5227 155.075 23.6534 154.393 23.767C153.723 23.8693 153.121 23.9602 152.587 24.0398C151.314 24.2216 150.286 24.5795 149.501 25.1136C148.729 25.6477 148.342 26.4261 148.342 27.4489C148.342 28.4489 148.7 29.2045 149.416 29.7159C150.143 30.2273 151.064 30.483 152.178 30.483ZM167.893 14.5284V8.81818H191.621V14.5284H183.183V35H176.263V14.5284H167.893ZM206.915 35.5114C204.267 35.5114 201.977 34.9489 200.045 33.8239C198.125 32.6875 196.642 31.108 195.597 29.0852C194.551 27.0511 194.028 24.6932 194.028 22.0114C194.028 19.3068 194.551 16.9432 195.597 14.9205C196.642 12.8864 198.125 11.3068 200.045 10.1818C201.977 9.04545 204.267 8.47727 206.915 8.47727C209.562 8.47727 211.847 9.04545 213.767 10.1818C215.699 11.3068 217.188 12.8864 218.233 14.9205C219.278 16.9432 219.801 19.3068 219.801 22.0114C219.801 24.6932 219.278 27.0511 218.233 29.0852C217.188 31.108 215.699 32.6875 213.767 33.8239C211.847 34.9489 209.562 35.5114 206.915 35.5114ZM206.949 29.8864C208.744 29.8864 210.102 29.1364 211.023 27.6364C211.955 26.1364 212.42 24.2443 212.42 21.9602C212.42 19.6761 211.955 17.7841 211.023 16.2841C210.102 14.7727 208.744 14.017 206.949 14.017C205.119 14.017 203.739 14.7727 202.807 16.2841C201.875 17.7841 201.409 19.6761 201.409 21.9602C201.409 24.2443 201.875 26.1364 202.807 27.6364C203.739 29.1364 205.119 29.8864 206.949 29.8864ZM224.523 44.8182V8.81818H231.682V13.2159H232.006C232.335 12.5 232.801 11.7784 233.403 11.0511C234.006 10.3239 234.801 9.71591 235.79 9.22727C236.778 8.72727 238 8.47727 239.455 8.47727C241.375 8.47727 243.136 8.97727 244.739 9.97727C246.341 10.9659 247.625 12.4602 248.591 14.4602C249.568 16.4489 250.057 18.9432 250.057 21.9432C250.057 24.8636 249.585 27.3295 248.642 29.3409C247.699 31.3409 246.426 32.858 244.824 33.892C243.222 34.9148 241.426 35.4261 239.438 35.4261C238.028 35.4261 236.83 35.1932 235.841 34.7273C234.864 34.2614 234.062 33.6761 233.438 32.9716C232.824 32.2557 232.347 31.5341 232.006 30.8068H231.784V44.8182H224.523ZM231.631 21.9091C231.631 24.2386 232.108 26.1136 233.062 27.5341C234.028 28.9432 235.386 29.6477 237.136 29.6477C238.92 29.6477 240.284 28.9318 241.227 27.5C242.17 26.0568 242.642 24.1932 242.642 21.9091C242.642 19.6364 242.17 17.7955 241.227 16.3864C240.295 14.9659 238.932 14.2557 237.136 14.2557C235.375 14.2557 234.017 14.9489 233.062 16.3352C232.108 17.7102 231.631 19.5682 231.631 21.9091ZM261.835 25.4205L271.261 8.81818H278.42V35H271.5V18.3466L262.108 35H254.898V8.81818H261.835V25.4205ZM299.582 35V25.5568H294.929L289.901 35H282.946L288.588 24.4489C287.02 23.767 285.81 22.8239 284.957 21.6193C284.105 20.4034 283.685 19 283.696 17.4091C283.685 14.8523 284.662 12.7841 286.628 11.2045C288.605 9.61364 291.287 8.81818 294.673 8.81818H306.349V35H299.582ZM299.582 20.6477V14.5114H294.673C293.332 14.5114 292.315 14.8182 291.622 15.4318C290.94 16.0455 290.605 16.7727 290.616 17.6136C290.605 18.4659 290.935 19.1875 291.605 19.7784C292.287 20.358 293.287 20.6477 294.605 20.6477H299.582ZM320.668 0.0909081L320.003 24.5341H313.764L313.082 0.0909081H320.668ZM316.884 35.4432C315.759 35.4432 314.793 35.0455 313.986 34.25C313.179 33.4545 312.781 32.4886 312.793 31.3523C312.781 30.2386 313.179 29.2841 313.986 28.4886C314.793 27.6932 315.759 27.2955 316.884 27.2955C317.974 27.2955 318.923 27.6932 319.73 28.4886C320.548 29.2841 320.963 30.2386 320.974 31.3523C320.963 32.4886 320.548 33.4545 319.73 34.25C318.923 35.0455 317.974 35.4432 316.884 35.4432Z" fill="#1F2937"/>
</svg>
