<svg width="438" height="95" viewBox="0 0 438 95" fill="none" xmlns="http://www.w3.org/2000/svg">
<path d="M122.054 26.3885V59.9885H114.374V51.0605H107.27L101.318 59.9885H93.1099L100.118 49.8605C97.8459 48.9325 96.1019 47.5405 94.8859 45.6845C93.6699 43.7965 93.0619 41.5405 93.0619 38.9165C93.0619 36.3245 93.6539 34.1005 94.8379 32.2445C96.0219 30.3565 97.7019 28.9165 99.8779 27.9245C102.054 26.9005 104.614 26.3885 107.558 26.3885H122.054ZM107.75 32.7245C105.542 32.7245 103.846 33.2365 102.662 34.2605C101.51 35.2845 100.934 36.8045 100.934 38.8205C100.934 40.7725 101.494 42.2765 102.614 43.3325C103.734 44.3885 105.382 44.9165 107.558 44.9165H114.374V32.7245H107.75ZM128.792 43.4765H142.376V49.4765H128.792V43.4765ZM175.004 53.7485V59.9885H148.988V26.3885H174.38V32.6285H156.716V39.9245H172.316V45.9725H156.716V53.7485H175.004ZM200.436 46.5005C203.476 47.5245 204.996 49.5725 204.996 52.6445C204.996 54.9805 204.116 56.7885 202.356 58.0685C200.596 59.3485 197.972 59.9885 194.484 59.9885H180.708V34.1645H193.908C197.14 34.1645 199.668 34.7565 201.492 35.9405C203.316 37.0925 204.228 38.7245 204.228 40.8365C204.228 42.1165 203.892 43.2525 203.22 44.2445C202.58 45.2045 201.652 45.9565 200.436 46.5005ZM187.572 44.7725H193.236C195.86 44.7725 197.172 43.8445 197.172 41.9885C197.172 40.1645 195.86 39.2525 193.236 39.2525H187.572V44.7725ZM193.86 54.9005C196.612 54.9005 197.988 53.9565 197.988 52.0685C197.988 51.0765 197.668 50.3565 197.028 49.9085C196.388 49.4285 195.38 49.1885 194.004 49.1885H187.572V54.9005H193.86ZM236.248 34.1645V59.9885H228.76V40.3085H218.008V59.9885H210.568V34.1645H236.248ZM253.459 33.7805C257.459 33.7805 260.531 34.7405 262.675 36.6605C264.819 38.5485 265.891 41.4125 265.891 45.2525V59.9885H258.883V56.7725C257.475 59.1725 254.851 60.3725 251.011 60.3725C249.027 60.3725 247.299 60.0365 245.827 59.3645C244.387 58.6925 243.283 57.7645 242.515 56.5805C241.747 55.3965 241.363 54.0525 241.363 52.5485C241.363 50.1485 242.259 48.2605 244.051 46.8845C245.875 45.5085 248.675 44.8205 252.451 44.8205H258.403C258.403 43.1885 257.907 41.9405 256.915 41.0765C255.923 40.1805 254.435 39.7325 252.451 39.7325C251.075 39.7325 249.715 39.9565 248.371 40.4045C247.059 40.8205 245.939 41.3965 245.011 42.1325L242.323 36.9005C243.731 35.9085 245.411 35.1405 247.363 34.5965C249.347 34.0525 251.379 33.7805 253.459 33.7805ZM252.883 55.3325C254.163 55.3325 255.299 55.0445 256.291 54.4685C257.283 53.8605 257.987 52.9805 258.403 51.8285V49.1885H253.267C250.195 49.1885 248.659 50.1965 248.659 52.2125C248.659 53.1725 249.027 53.9405 249.763 54.5165C250.531 55.0605 251.571 55.3325 252.883 55.3325ZM294.092 40.3085H285.356V59.9885H277.916V40.3085H269.18V34.1645H294.092V40.3085ZM309.101 60.3725C306.381 60.3725 303.933 59.8125 301.757 58.6925C299.613 57.5405 297.933 55.9565 296.717 53.9405C295.501 51.9245 294.893 49.6365 294.893 47.0765C294.893 44.5165 295.501 42.2285 296.717 40.2125C297.933 38.1965 299.613 36.6285 301.757 35.5085C303.933 34.3565 306.381 33.7805 309.101 33.7805C311.821 33.7805 314.253 34.3565 316.397 35.5085C318.541 36.6285 320.221 38.1965 321.437 40.2125C322.653 42.2285 323.261 44.5165 323.261 47.0765C323.261 49.6365 322.653 51.9245 321.437 53.9405C320.221 55.9565 318.541 57.5405 316.397 58.6925C314.253 59.8125 311.821 60.3725 309.101 60.3725ZM309.101 54.2285C311.021 54.2285 312.589 53.5885 313.805 52.3085C315.053 50.9965 315.677 49.2525 315.677 47.0765C315.677 44.9005 315.053 43.1725 313.805 41.8925C312.589 40.5805 311.021 39.9245 309.101 39.9245C307.181 39.9245 305.597 40.5805 304.349 41.8925C303.101 43.1725 302.477 44.9005 302.477 47.0765C302.477 49.2525 303.101 50.9965 304.349 52.3085C305.597 53.5885 307.181 54.2285 309.101 54.2285ZM343.628 33.7805C346.028 33.7805 348.204 34.3405 350.156 35.4605C352.14 36.5485 353.692 38.1005 354.812 40.1165C355.932 42.1005 356.492 44.4205 356.492 47.0765C356.492 49.7325 355.932 52.0685 354.812 54.0845C353.692 56.0685 352.14 57.6205 350.156 58.7405C348.204 59.8285 346.028 60.3725 343.628 60.3725C340.332 60.3725 337.74 59.3325 335.852 57.2525V69.3005H328.364V34.1645H335.516V37.1405C337.372 34.9005 340.076 33.7805 343.628 33.7805ZM342.332 54.2285C344.252 54.2285 345.82 53.5885 347.036 52.3085C348.284 50.9965 348.908 49.2525 348.908 47.0765C348.908 44.9005 348.284 43.1725 347.036 41.8925C345.82 40.5805 344.252 39.9245 342.332 39.9245C340.412 39.9245 338.828 40.5805 337.58 41.8925C336.364 43.1725 335.756 44.9005 335.756 47.0765C335.756 49.2525 336.364 50.9965 337.58 52.3085C338.828 53.5885 340.412 54.2285 342.332 54.2285ZM361.74 34.1645H369.18V49.5245L381.756 34.1645H388.62V59.9885H381.18V44.6285L368.652 59.9885H361.74V34.1645ZM418.762 34.1645V59.9885H412.09V52.5965H406.57L401.674 59.9885H393.706L399.61 51.5405C397.818 50.8365 396.442 49.8285 395.482 48.5165C394.554 47.1725 394.09 45.5565 394.09 43.6685C394.09 40.6285 395.178 38.2925 397.354 36.6605C399.562 34.9965 402.586 34.1645 406.426 34.1645H418.762ZM406.57 40.2605C404.97 40.2605 403.754 40.5485 402.922 41.1245C402.122 41.7005 401.722 42.6285 401.722 43.9085C401.722 45.1885 402.106 46.1325 402.874 46.7405C403.674 47.3165 404.874 47.6045 406.474 47.6045H412.09V40.2605H406.57ZM424.854 26.3885H433.782L432.294 48.3245H426.342L424.854 26.3885ZM429.318 60.3725C428.006 60.3725 426.902 59.9565 426.006 59.1245C425.142 58.2605 424.71 57.2205 424.71 56.0045C424.71 54.7885 425.142 53.7805 426.006 52.9805C426.87 52.1485 427.974 51.7325 429.318 51.7325C430.662 51.7325 431.766 52.1485 432.63 52.9805C433.494 53.7805 433.926 54.7885 433.926 56.0045C433.926 57.2205 433.478 58.2605 432.582 59.1245C431.718 59.9565 430.63 60.3725 429.318 60.3725Z" fill="#4F46E5"/>
<path d="M95.516 84.4427L98.7 79.1147C99.004 78.6187 99.324 77.9627 99.66 77.1627H99.692L99.564 79.1147V84.4427H102.364V73.0027H99.532L96.364 78.3467C96.06 78.8427 95.74 79.4987 95.404 80.2987H95.372L95.5 78.3467V73.0027H92.7V84.4427H95.516ZM109.163 84.4427V79.9627H113.323V84.4427H116.123V73.0027H113.323V77.5787H109.163V73.0027H106.363V84.4427H109.163ZM125.399 84.4427V75.4027H128.871V73.0027H119.127V75.4027H122.599V84.4427H125.399ZM139.267 84.4427V82.0427H134.675V79.8827H138.163V77.4827H134.675V75.4027H139.043V73.0027H131.875V84.4427H139.267ZM145.494 84.4427V80.9067H147.446C148.55 80.9067 149.446 80.5387 150.134 79.8027C150.822 79.0507 151.174 78.1067 151.174 76.9387C151.174 75.7867 150.822 74.8427 150.134 74.1067C149.446 73.3707 148.55 73.0027 147.446 73.0027H142.694V84.4427H145.494ZM145.494 75.4027H146.918C147.814 75.4027 148.326 75.9947 148.326 76.9387C148.326 77.8827 147.814 78.5067 146.87 78.5067H145.494V75.4027ZM157.094 84.4427V79.9627H161.254V84.4427H164.054V73.0027H161.254V77.5787H157.094V73.0027H154.294V84.4427H157.094ZM175.442 84.4427V82.0427H170.85V79.8827H174.338V77.4827H170.85V75.4027H175.218V73.0027H168.05V84.4427H175.442ZM184.149 84.4427V75.4027H187.621V73.0027H177.877V75.4027H181.349V84.4427H184.149ZM194.456 81.0507V78.6507H189.432V81.0507H194.456ZM200.994 84.4427V79.9627H205.154V84.4427H207.954V73.0027H205.154V77.5787H200.994V73.0027H198.194V84.4427H200.994ZM213.582 84.4427L214.27 82.0427H217.838L218.542 84.4427H221.422L217.534 73.0027H214.59L210.702 84.4427H213.582ZM215.582 77.5787C215.726 77.0987 215.87 76.4427 216.046 75.6107H216.078L216.542 77.5787L217.182 79.8027H214.926L215.582 77.5787ZM228.383 84.4427C229.647 84.4427 230.687 84.1707 231.503 83.6107C232.319 83.0507 232.735 82.2027 232.735 81.0347C232.735 79.8987 232.159 78.8267 230.943 78.4587V78.4267C231.775 77.9307 232.271 76.9707 232.271 75.9947C232.271 74.0747 230.735 73.0027 228.383 73.0027H224.175V84.4427H228.383ZM226.975 75.4027H228.367C229.071 75.4027 229.423 75.8027 229.423 76.3787C229.423 76.9707 229.071 77.4347 228.415 77.4347H226.975V75.4027ZM226.975 79.6747H228.671C229.455 79.6747 229.871 80.1547 229.871 80.8427C229.871 81.5307 229.423 82.0427 228.655 82.0427H226.975V79.6747ZM238.95 84.4427L242.134 79.1147C242.438 78.6187 242.758 77.9627 243.094 77.1627H243.126L242.998 79.1147V84.4427H245.798V73.0027H242.966L239.798 78.3467C239.494 78.8427 239.174 79.4987 238.838 80.2987H238.806L238.934 78.3467V73.0027H236.134V84.4427H238.95ZM252.597 84.4427V75.4027H256.805V73.0027H249.797V84.4427H252.597ZM260.529 84.4427L261.217 82.0427H264.785L265.489 84.4427H268.369L264.481 73.0027H261.537L257.649 84.4427H260.529ZM262.529 77.5787C262.673 77.0987 262.817 76.4427 262.993 75.6107H263.025L263.489 77.5787L264.129 79.8027H261.873L262.529 77.5787ZM275.496 84.4427V75.4027H278.968V73.0027H269.224V75.4027H272.696V84.4427H275.496ZM281.082 78.6507C281.082 80.3467 281.642 81.7707 282.778 82.9227C283.914 84.0587 285.354 84.6347 287.066 84.6347C288.778 84.6347 290.202 84.0587 291.338 82.9227C292.474 81.7707 293.05 80.3467 293.05 78.6507C293.05 77.0027 292.474 75.6107 291.338 74.4907C290.202 73.3707 288.778 72.8107 287.066 72.8107C285.354 72.8107 283.914 73.3707 282.778 74.4907C281.642 75.6107 281.082 77.0027 281.082 78.6507ZM283.978 78.6507C283.978 77.7227 284.282 76.9387 284.874 76.3147C285.466 75.6907 286.202 75.3707 287.066 75.3707C287.93 75.3707 288.666 75.6907 289.258 76.3147C289.85 76.9387 290.154 77.7227 290.154 78.6507C290.154 79.6267 289.85 80.4427 289.258 81.0987C288.666 81.7547 287.93 82.0747 287.066 82.0747C286.202 82.0747 285.466 81.7547 284.874 81.0987C284.282 80.4427 283.978 79.6267 283.978 78.6507ZM299.231 84.4427V80.9067H301.183C302.287 80.9067 303.183 80.5387 303.871 79.8027C304.559 79.0507 304.911 78.1067 304.911 76.9387C304.911 75.7867 304.559 74.8427 303.871 74.1067C303.183 73.3707 302.287 73.0027 301.183 73.0027H296.431V84.4427H299.231ZM299.231 75.4027H300.655C301.551 75.4027 302.063 75.9947 302.063 76.9387C302.063 77.8827 301.551 78.5067 300.607 78.5067H299.231V75.4027Z" fill="#F59E0B"/>
<path d="M41.953 32.9407C41.953 34.3303 41.0859 38.1588 40.0163 38.1588C38.9467 38.1588 38.0796 34.3303 38.0796 32.9407C38.0796 31.551 38.9467 30.4245 40.0163 30.4245C41.0859 30.4245 41.953 31.551 41.953 32.9407Z" fill="#F59E0B"/>
<path d="M38.0796 36.6052H41.9193V41.0634H38.0796V36.6052Z" fill="#F59E0B"/>
<path d="M38.0459 32.299C38.0459 30.9093 38.913 27.0808 39.9826 27.0808C41.0522 27.0808 41.9193 30.9093 41.9193 32.299C41.9193 33.6886 41.0522 34.8152 39.9826 34.8152C38.913 34.8152 38.0459 33.6886 38.0459 32.299Z" fill="#F59E0B"/>
<path d="M41.9193 28.6345H38.0796L38.0796 24.1763H41.9193V28.6345Z" fill="#F59E0B"/>
<path d="M41.953 59.4948C41.953 60.8845 41.0859 64.713 40.0163 64.713C38.9467 64.713 38.0796 60.8845 38.0796 59.4948C38.0796 58.1052 38.9467 56.9786 40.0163 56.9786C41.0859 56.9786 41.953 58.1052 41.953 59.4948Z" fill="#F59E0B"/>
<path d="M38.0796 63.1594H41.9193V67.6176H38.0796V63.1594Z" fill="#F59E0B"/>
<path d="M38.0459 58.8531C38.0459 57.4635 38.913 53.635 39.9826 53.635C41.0522 53.635 41.9193 57.4635 41.9193 58.8531C41.9193 60.2428 41.0522 61.3693 39.9826 61.3693C38.913 61.3693 38.0459 60.2428 38.0459 58.8531Z" fill="#F59E0B"/>
<path d="M41.9193 55.1886H38.0796L38.0796 50.7304H41.9193V55.1886Z" fill="#F59E0B"/>
<path d="M53.5151 43.983C54.9009 43.983 58.7189 44.8525 58.7189 45.9251C58.7189 46.9976 54.9009 47.8671 53.5151 47.8671C52.1293 47.8671 51.0058 46.9976 51.0058 45.9251C51.0058 44.8525 52.1293 43.983 53.5151 43.983Z" fill="#F59E0B"/>
<path d="M57.1695 47.8671V44.0168H61.6155V47.8671H57.1695Z" fill="#F59E0B"/>
<path d="M52.8751 47.9009C51.4893 47.9009 47.6714 47.0314 47.6714 45.9588C47.6714 44.8863 51.4893 44.0168 52.8752 44.0168C54.261 44.0168 55.3844 44.8863 55.3844 45.9588C55.3844 47.0314 54.261 47.9009 52.8751 47.9009Z" fill="#F59E0B"/>
<path d="M49.2207 44.0168V47.8671H44.7747V44.0168H49.2207Z" fill="#F59E0B"/>
<path d="M27.251 43.983C28.6368 43.983 32.4548 44.8525 32.4548 45.9251C32.4548 46.9976 28.6368 47.8671 27.251 47.8671C25.8651 47.8671 24.7417 46.9976 24.7417 45.9251C24.7417 44.8525 25.8651 43.983 27.251 43.983Z" fill="#F59E0B"/>
<path d="M30.9054 47.8671V44.0168H35.3514V47.8671H30.9054Z" fill="#F59E0B"/>
<path d="M26.611 47.9009C25.2252 47.9009 21.4072 47.0314 21.4072 45.9588C21.4072 44.8863 25.2252 44.0168 26.611 44.0168C27.9969 44.0168 29.1203 44.8863 29.1203 45.9588C29.1203 47.0314 27.9969 47.9009 26.611 47.9009Z" fill="#F59E0B"/>
<path d="M22.9566 44.0168V47.8671H18.5106V44.0168H22.9566Z" fill="#F59E0B"/>
<path d="M32.2632 35.3954C33.2431 36.3781 35.3297 39.7 34.5734 40.4584C33.817 41.2168 30.5042 39.1245 29.5243 38.1419C28.5443 37.1592 28.3631 35.7478 29.1194 34.9894C29.8757 34.231 31.2832 34.4128 32.2632 35.3954Z" fill="#F59E0B"/>
<path d="M32.1084 40.7331L34.8234 38.0105L37.9672 41.1629L35.2521 43.8855L32.1084 40.7331Z" fill="#F59E0B"/>
<path d="M29.0479 37.712C28.068 36.7294 25.9814 33.4074 26.7377 32.649C27.4941 31.8906 30.8069 33.9829 31.7868 34.9656C32.7668 35.9482 32.948 37.3596 32.1917 38.118C31.4354 38.8764 30.0279 38.6946 29.0479 37.712Z" fill="#F59E0B"/>
<path d="M29.2027 32.3743L26.4877 35.0969L23.3439 31.9445L26.059 29.2219L29.2027 32.3743Z" fill="#F59E0B"/>
<path d="M50.9882 54.172C51.9681 55.1547 54.0547 58.4766 53.2984 59.235C52.5421 59.9934 49.2292 57.9011 48.2493 56.9185C47.2694 55.9358 47.0881 54.5245 47.8444 53.766C48.6007 53.0076 50.0082 53.1894 50.9882 54.172Z" fill="#F59E0B"/>
<path d="M50.8334 59.5097L53.5484 56.7871L56.6922 59.9396L53.9771 62.6621L50.8334 59.5097Z" fill="#F59E0B"/>
<path d="M47.773 56.4886C46.793 55.506 44.7064 52.184 45.4628 51.4256C46.2191 50.6672 49.5319 52.7595 50.5119 53.7422C51.4918 54.7248 51.6731 56.1362 50.9167 56.8946C50.1604 57.653 48.7529 57.4712 47.773 56.4886Z" fill="#F59E0B"/>
<path d="M47.9278 51.151L45.2127 53.8735L42.0689 50.7211L44.784 47.9985L47.9278 51.151Z" fill="#F59E0B"/>
<path d="M48.2255 35.0054C49.2054 34.0227 52.5182 31.9304 53.2746 32.6888C54.0309 33.4472 51.9443 36.7692 50.9644 37.7518C49.9844 38.7344 48.5769 38.9162 47.8206 38.1578C47.0643 37.3994 47.2455 35.988 48.2255 35.0054Z" fill="#F59E0B"/>
<path d="M53.5485 35.1606L50.8334 32.438L53.9772 29.2856L56.6922 32.0082L53.5485 35.1606Z" fill="#F59E0B"/>
<path d="M50.5357 38.2294C49.5557 39.2121 46.2429 41.3044 45.4866 40.546C44.7303 39.7876 46.8168 36.4656 47.7968 35.483C48.7767 34.5004 50.1842 34.3186 50.9406 35.077C51.6969 35.8354 51.5156 37.2468 50.5357 38.2294Z" fill="#F59E0B"/>
<path d="M45.2127 38.0742L47.9278 40.7968L44.784 43.9492L42.0689 41.2266L45.2127 38.0742Z" fill="#F59E0B"/>
<path d="M29.6539 53.6281C30.6339 52.6454 33.9467 50.5531 34.703 51.3115C35.4593 52.0699 33.3728 55.3919 32.3928 56.3745C31.4129 57.3571 30.0054 57.5389 29.2491 56.7805C28.4927 56.0221 28.674 54.6107 29.6539 53.6281Z" fill="#F59E0B"/>
<path d="M34.9769 53.7833L32.2618 51.0608L35.4056 47.9083L38.1207 50.6309L34.9769 53.7833Z" fill="#F59E0B"/>
<path d="M31.9641 56.8521C30.9842 57.8348 27.6714 59.9271 26.915 59.1687C26.1587 58.4103 28.2453 55.0883 29.2252 54.1057C30.2052 53.1231 31.6127 52.9413 32.369 53.6997C33.1253 54.4581 32.9441 55.8695 31.9641 56.8521Z" fill="#F59E0B"/>
<path d="M26.6412 56.6969L29.3562 59.4195L26.2125 62.5719L23.4974 59.8493L26.6412 56.6969Z" fill="#F59E0B"/>
<path fill-rule="evenodd" clip-rule="evenodd" d="M40.0047 64.3392C50.1944 64.3392 58.4547 56.0561 58.4547 45.8384C58.4547 35.6207 50.1944 27.3376 40.0047 27.3376C29.8151 27.3376 21.5547 35.6207 21.5547 45.8384C21.5547 56.0561 29.8151 64.3392 40.0047 64.3392ZM40.0047 71.7396C54.2702 71.7396 65.8347 60.1432 65.8347 45.8384C65.8347 31.5336 54.2702 19.9372 40.0047 19.9372C25.7392 19.9372 14.1747 31.5336 14.1747 45.8384C14.1747 60.1432 25.7392 71.7396 40.0047 71.7396Z" fill="#F59E0B"/>
<path fill-rule="evenodd" clip-rule="evenodd" d="M39.9994 50.0774C42.2771 50.0774 44.1236 48.2259 44.1236 45.9419C44.1236 43.658 42.2771 41.8065 39.9994 41.8065C37.7218 41.8065 35.8753 43.658 35.8753 45.9419C35.8753 48.2259 37.7218 50.0774 39.9994 50.0774ZM39.9994 53.9953C44.4349 53.9953 48.0306 50.3897 48.0306 45.9419C48.0306 41.4942 44.4349 37.8886 39.9994 37.8886C35.5639 37.8886 31.9683 41.4942 31.9683 45.9419C31.9683 50.3897 35.5639 53.9953 39.9994 53.9953Z" fill="#F59E0B"/>
<path fill-rule="evenodd" clip-rule="evenodd" d="M41.8859 16.1735C42.6029 14.245 43.0642 11.6758 43.0642 10.404C43.0642 8.21614 41.6991 6.4425 40.0151 6.4425C38.331 6.4425 36.9659 8.21614 36.9659 10.404C36.9659 11.6758 37.4272 14.245 38.1442 16.1735H36.9659V23.1926H43.0112V16.1735H41.8859Z" fill="#F59E0B"/>
<path fill-rule="evenodd" clip-rule="evenodd" d="M38.1442 75.7115C37.4271 77.64 36.9659 80.2092 36.9659 81.481C36.9659 83.6689 38.331 85.4425 40.015 85.4425C41.699 85.4425 43.0642 83.6689 43.0642 81.481C43.0642 80.2092 42.6029 77.64 41.8859 75.7115H43.0642V68.6924H37.0189V75.7115H38.1442Z" fill="#F59E0B"/>
<path fill-rule="evenodd" clip-rule="evenodd" d="M69.7957 47.7248C71.719 48.4438 74.2811 48.9063 75.5494 48.9063C77.7312 48.9063 79.5 47.5374 79.5 45.8488C79.5 44.1601 77.7312 42.7912 75.5494 42.7912C74.2811 42.7912 71.719 43.2537 69.7957 43.9727V42.7912H62.7959V48.8532H69.7957V47.7248Z" fill="#F59E0B"/>
<path fill-rule="evenodd" clip-rule="evenodd" d="M10.2043 43.9727C8.28103 43.2537 5.71893 42.7912 4.45065 42.7912C2.26877 42.7912 0.5 44.1601 0.5 45.8488C0.5 47.5374 2.26877 48.9063 4.45065 48.9063C5.71893 48.9063 8.28103 48.4438 10.2043 47.7248V48.9063H17.2041V42.8444H10.2043V43.9727Z" fill="#F59E0B"/>
<path fill-rule="evenodd" clip-rule="evenodd" d="M62.3256 26.2299C64.1925 25.3746 66.3304 23.885 67.2272 22.9857C68.77 21.4386 69.0554 19.2165 67.8646 18.0225C66.6739 16.8284 64.4578 17.1146 62.915 18.6617C62.0182 19.561 60.5327 21.7047 59.6798 23.5768L58.8466 22.7413L53.897 27.7046L58.1716 31.991L63.1212 27.0278L62.3256 26.2299Z" fill="#F59E0B"/>
<path fill-rule="evenodd" clip-rule="evenodd" d="M17.6957 65.6765C15.8288 66.5318 13.6909 68.0214 12.7941 68.9206C11.2513 70.4677 10.9659 72.6898 12.1567 73.8839C13.3474 75.078 15.5635 74.7918 17.1063 73.2447C18.0031 72.3454 19.4886 70.2017 20.3415 68.3296L21.1747 69.165L26.1243 64.2018L21.8497 59.9154L16.9001 64.8786L17.6957 65.6765Z" fill="#F59E0B"/>
<path fill-rule="evenodd" clip-rule="evenodd" d="M59.812 68.3296C60.6649 70.2017 62.1504 72.3454 63.0472 73.2447C64.59 74.7918 66.806 75.078 67.9968 73.8839C69.1876 72.6898 68.9022 70.4677 67.3594 68.9206C66.4626 68.0214 64.3247 66.5318 62.4578 65.6765L63.2909 64.841L58.3413 59.8778L54.0667 64.1642L59.0163 69.1275L59.812 68.3296Z" fill="#F59E0B"/>
<path fill-rule="evenodd" clip-rule="evenodd" d="M20.3203 23.4229C19.4673 21.5508 17.9818 19.407 17.085 18.5078C15.5422 16.9607 13.3262 16.6745 12.1354 17.8686C10.9446 19.0626 11.23 21.2847 12.7728 22.8318C13.6697 23.7311 15.8075 25.2207 17.6745 26.076L16.8413 26.9114L21.7909 31.8747L26.0656 27.5883L21.1159 22.625L20.3203 23.4229Z" fill="#F59E0B"/>
</svg>
