<svg width="437" height="94" viewBox="0 0 437 94" fill="none" xmlns="http://www.w3.org/2000/svg">
<path d="M121.554 25.4V59H113.874V50.072H106.77L100.818 59H92.6099L99.6179 48.872C97.3459 47.944 95.6019 46.552 94.3859 44.696C93.1699 42.808 92.5619 40.552 92.5619 37.928C92.5619 35.336 93.1539 33.112 94.3379 31.256C95.5219 29.368 97.2019 27.928 99.3779 26.936C101.554 25.912 104.114 25.4 107.058 25.4H121.554ZM107.25 31.736C105.042 31.736 103.346 32.248 102.162 33.272C101.01 34.296 100.434 35.816 100.434 37.832C100.434 39.784 100.994 41.288 102.114 42.344C103.234 43.4 104.882 43.928 107.058 43.928H113.874V31.736H107.25ZM128.292 42.488H141.876V48.488H128.292V42.488ZM174.504 52.76V59H148.488V25.4H173.88V31.64H156.216V38.936H171.816V44.984H156.216V52.76H174.504ZM199.936 45.512C202.976 46.536 204.496 48.584 204.496 51.656C204.496 53.992 203.616 55.8 201.856 57.08C200.096 58.36 197.472 59 193.984 59H180.208V33.176H193.408C196.64 33.176 199.168 33.768 200.992 34.952C202.816 36.104 203.728 37.736 203.728 39.848C203.728 41.128 203.392 42.264 202.72 43.256C202.08 44.216 201.152 44.968 199.936 45.512ZM187.072 43.784H192.736C195.36 43.784 196.672 42.856 196.672 41C196.672 39.176 195.36 38.264 192.736 38.264H187.072V43.784ZM193.36 53.912C196.112 53.912 197.488 52.968 197.488 51.08C197.488 50.088 197.168 49.368 196.528 48.92C195.888 48.44 194.88 48.2 193.504 48.2H187.072V53.912H193.36ZM235.748 33.176V59H228.26V39.32H217.508V59H210.068V33.176H235.748ZM252.959 32.792C256.959 32.792 260.031 33.752 262.175 35.672C264.319 37.56 265.391 40.424 265.391 44.264V59H258.383V55.784C256.975 58.184 254.351 59.384 250.511 59.384C248.527 59.384 246.799 59.048 245.327 58.376C243.887 57.704 242.783 56.776 242.015 55.592C241.247 54.408 240.863 53.064 240.863 51.56C240.863 49.16 241.759 47.272 243.551 45.896C245.375 44.52 248.175 43.832 251.951 43.832H257.903C257.903 42.2 257.407 40.952 256.415 40.088C255.423 39.192 253.935 38.744 251.951 38.744C250.575 38.744 249.215 38.968 247.871 39.416C246.559 39.832 245.439 40.408 244.511 41.144L241.823 35.912C243.231 34.92 244.911 34.152 246.863 33.608C248.847 33.064 250.879 32.792 252.959 32.792ZM252.383 54.344C253.663 54.344 254.799 54.056 255.791 53.48C256.783 52.872 257.487 51.992 257.903 50.84V48.2H252.767C249.695 48.2 248.159 49.208 248.159 51.224C248.159 52.184 248.527 52.952 249.263 53.528C250.031 54.072 251.071 54.344 252.383 54.344ZM293.592 39.32H284.856V59H277.416V39.32H268.68V33.176H293.592V39.32ZM308.601 59.384C305.881 59.384 303.433 58.824 301.257 57.704C299.113 56.552 297.433 54.968 296.217 52.952C295.001 50.936 294.393 48.648 294.393 46.088C294.393 43.528 295.001 41.24 296.217 39.224C297.433 37.208 299.113 35.64 301.257 34.52C303.433 33.368 305.881 32.792 308.601 32.792C311.321 32.792 313.753 33.368 315.897 34.52C318.041 35.64 319.721 37.208 320.937 39.224C322.153 41.24 322.761 43.528 322.761 46.088C322.761 48.648 322.153 50.936 320.937 52.952C319.721 54.968 318.041 56.552 315.897 57.704C313.753 58.824 311.321 59.384 308.601 59.384ZM308.601 53.24C310.521 53.24 312.089 52.6 313.305 51.32C314.553 50.008 315.177 48.264 315.177 46.088C315.177 43.912 314.553 42.184 313.305 40.904C312.089 39.592 310.521 38.936 308.601 38.936C306.681 38.936 305.097 39.592 303.849 40.904C302.601 42.184 301.977 43.912 301.977 46.088C301.977 48.264 302.601 50.008 303.849 51.32C305.097 52.6 306.681 53.24 308.601 53.24ZM343.128 32.792C345.528 32.792 347.704 33.352 349.656 34.472C351.64 35.56 353.192 37.112 354.312 39.128C355.432 41.112 355.992 43.432 355.992 46.088C355.992 48.744 355.432 51.08 354.312 53.096C353.192 55.08 351.64 56.632 349.656 57.752C347.704 58.84 345.528 59.384 343.128 59.384C339.832 59.384 337.24 58.344 335.352 56.264V68.312H327.864V33.176H335.016V36.152C336.872 33.912 339.576 32.792 343.128 32.792ZM341.832 53.24C343.752 53.24 345.32 52.6 346.536 51.32C347.784 50.008 348.408 48.264 348.408 46.088C348.408 43.912 347.784 42.184 346.536 40.904C345.32 39.592 343.752 38.936 341.832 38.936C339.912 38.936 338.328 39.592 337.08 40.904C335.864 42.184 335.256 43.912 335.256 46.088C335.256 48.264 335.864 50.008 337.08 51.32C338.328 52.6 339.912 53.24 341.832 53.24ZM361.24 33.176H368.68V48.536L381.256 33.176H388.12V59H380.68V43.64L368.152 59H361.24V33.176ZM418.262 33.176V59H411.59V51.608H406.07L401.174 59H393.206L399.11 50.552C397.318 49.848 395.942 48.84 394.982 47.528C394.054 46.184 393.59 44.568 393.59 42.68C393.59 39.64 394.678 37.304 396.854 35.672C399.062 34.008 402.086 33.176 405.926 33.176H418.262ZM406.07 39.272C404.47 39.272 403.254 39.56 402.422 40.136C401.622 40.712 401.222 41.64 401.222 42.92C401.222 44.2 401.606 45.144 402.374 45.752C403.174 46.328 404.374 46.616 405.974 46.616H411.59V39.272H406.07ZM424.354 25.4H433.282L431.794 47.336H425.842L424.354 25.4ZM428.818 59.384C427.506 59.384 426.402 58.968 425.506 58.136C424.642 57.272 424.21 56.232 424.21 55.016C424.21 53.8 424.642 52.792 425.506 51.992C426.37 51.16 427.474 50.744 428.818 50.744C430.162 50.744 431.266 51.16 432.13 51.992C432.994 52.792 433.426 53.8 433.426 55.016C433.426 56.232 432.978 57.272 432.082 58.136C431.218 58.968 430.13 59.384 428.818 59.384Z" fill="#1D4ED8"/>
<path d="M95.016 83.4542L98.2 78.1262C98.504 77.6302 98.824 76.9742 99.16 76.1742H99.192L99.064 78.1262V83.4542H101.864V72.0142H99.032L95.864 77.3582C95.56 77.8542 95.24 78.5102 94.904 79.3102H94.872L95 77.3582V72.0142H92.2V83.4542H95.016ZM108.663 83.4542V78.9742H112.823V83.4542H115.623V72.0142H112.823V76.5902H108.663V72.0142H105.863V83.4542H108.663ZM124.899 83.4542V74.4142H128.371V72.0142H118.627V74.4142H122.099V83.4542H124.899ZM138.767 83.4542V81.0542H134.175V78.8942H137.663V76.4942H134.175V74.4142H138.543V72.0142H131.375V83.4542H138.767ZM144.994 83.4542V79.9182H146.946C148.05 79.9182 148.946 79.5502 149.634 78.8142C150.322 78.0622 150.674 77.1182 150.674 75.9502C150.674 74.7982 150.322 73.8542 149.634 73.1182C148.946 72.3822 148.05 72.0142 146.946 72.0142H142.194V83.4542H144.994ZM144.994 74.4142H146.418C147.314 74.4142 147.826 75.0062 147.826 75.9502C147.826 76.8942 147.314 77.5182 146.37 77.5182H144.994V74.4142ZM156.594 83.4542V78.9742H160.754V83.4542H163.554V72.0142H160.754V76.5902H156.594V72.0142H153.794V83.4542H156.594ZM174.942 83.4542V81.0542H170.35V78.8942H173.838V76.4942H170.35V74.4142H174.718V72.0142H167.55V83.4542H174.942ZM183.649 83.4542V74.4142H187.121V72.0142H177.377V74.4142H180.849V83.4542H183.649ZM193.956 80.0622V77.6622H188.932V80.0622H193.956ZM200.494 83.4542V78.9742H204.654V83.4542H207.454V72.0142H204.654V76.5902H200.494V72.0142H197.694V83.4542H200.494ZM213.082 83.4542L213.77 81.0542H217.338L218.042 83.4542H220.922L217.034 72.0142H214.09L210.202 83.4542H213.082ZM215.082 76.5902C215.226 76.1102 215.37 75.4542 215.546 74.6222H215.578L216.042 76.5902L216.682 78.8142H214.426L215.082 76.5902ZM227.883 83.4542C229.147 83.4542 230.187 83.1822 231.003 82.6222C231.819 82.0622 232.235 81.2142 232.235 80.0462C232.235 78.9102 231.659 77.8382 230.443 77.4702V77.4382C231.275 76.9422 231.771 75.9822 231.771 75.0062C231.771 73.0862 230.235 72.0142 227.883 72.0142H223.675V83.4542H227.883ZM226.475 74.4142H227.867C228.571 74.4142 228.923 74.8142 228.923 75.3902C228.923 75.9822 228.571 76.4462 227.915 76.4462H226.475V74.4142ZM226.475 78.6862H228.171C228.955 78.6862 229.371 79.1662 229.371 79.8542C229.371 80.5422 228.923 81.0542 228.155 81.0542H226.475V78.6862ZM238.45 83.4542L241.634 78.1262C241.938 77.6302 242.258 76.9742 242.594 76.1742H242.626L242.498 78.1262V83.4542H245.298V72.0142H242.466L239.298 77.3582C238.994 77.8542 238.674 78.5102 238.338 79.3102H238.306L238.434 77.3582V72.0142H235.634V83.4542H238.45ZM252.097 83.4542V74.4142H256.305V72.0142H249.297V83.4542H252.097ZM260.029 83.4542L260.717 81.0542H264.285L264.989 83.4542H267.869L263.981 72.0142H261.037L257.149 83.4542H260.029ZM262.029 76.5902C262.173 76.1102 262.317 75.4542 262.493 74.6222H262.525L262.989 76.5902L263.629 78.8142H261.373L262.029 76.5902ZM274.996 83.4542V74.4142H278.468V72.0142H268.724V74.4142H272.196V83.4542H274.996ZM280.582 77.6622C280.582 79.3582 281.142 80.7822 282.278 81.9342C283.414 83.0702 284.854 83.6462 286.566 83.6462C288.278 83.6462 289.702 83.0702 290.838 81.9342C291.974 80.7822 292.55 79.3582 292.55 77.6622C292.55 76.0142 291.974 74.6222 290.838 73.5022C289.702 72.3822 288.278 71.8222 286.566 71.8222C284.854 71.8222 283.414 72.3822 282.278 73.5022C281.142 74.6222 280.582 76.0142 280.582 77.6622ZM283.478 77.6622C283.478 76.7342 283.782 75.9502 284.374 75.3262C284.966 74.7022 285.702 74.3822 286.566 74.3822C287.43 74.3822 288.166 74.7022 288.758 75.3262C289.35 75.9502 289.654 76.7342 289.654 77.6622C289.654 78.6382 289.35 79.4542 288.758 80.1102C288.166 80.7662 287.43 81.0862 286.566 81.0862C285.702 81.0862 284.966 80.7662 284.374 80.1102C283.782 79.4542 283.478 78.6382 283.478 77.6622ZM298.731 83.4542V79.9182H300.683C301.787 79.9182 302.683 79.5502 303.371 78.8142C304.059 78.0622 304.411 77.1182 304.411 75.9502C304.411 74.7982 304.059 73.8542 303.371 73.1182C302.683 72.3822 301.787 72.0142 300.683 72.0142H295.931V83.4542H298.731ZM298.731 74.4142H300.155C301.051 74.4142 301.563 75.0062 301.563 75.9502C301.563 76.8942 301.051 77.5182 300.107 77.5182H298.731V74.4142Z" fill="#D97706"/>
<path d="M41.453 31.9522C41.453 33.3418 40.5859 37.1703 39.5163 37.1703C38.4467 37.1703 37.5796 33.3418 37.5796 31.9522C37.5796 30.5625 38.4467 29.436 39.5163 29.436C40.5859 29.436 41.453 30.5625 41.453 31.9522Z" fill="#D97706"/>
<path d="M37.5796 35.6167H41.4193V40.0749H37.5796V35.6167Z" fill="#D97706"/>
<path d="M37.5459 31.3105C37.5459 29.9208 38.413 26.0923 39.4826 26.0923C40.5522 26.0923 41.4193 29.9208 41.4193 31.3105C41.4193 32.7001 40.5522 33.8266 39.4826 33.8266C38.413 33.8266 37.5459 32.7001 37.5459 31.3105Z" fill="#D97706"/>
<path d="M41.4193 27.6459H37.5796L37.5796 23.1877H41.4193V27.6459Z" fill="#D97706"/>
<path d="M41.453 58.5063C41.453 59.896 40.5859 63.7244 39.5163 63.7244C38.4467 63.7244 37.5796 59.896 37.5796 58.5063C37.5796 57.1167 38.4467 55.9901 39.5163 55.9901C40.5859 55.9901 41.453 57.1167 41.453 58.5063Z" fill="#D97706"/>
<path d="M37.5796 62.1708H41.4193V66.629H37.5796V62.1708Z" fill="#D97706"/>
<path d="M37.5459 57.8646C37.5459 56.4749 38.413 52.6465 39.4826 52.6465C40.5522 52.6465 41.4193 56.4749 41.4193 57.8646C41.4193 59.2543 40.5522 60.3808 39.4826 60.3808C38.413 60.3808 37.5459 59.2543 37.5459 57.8646Z" fill="#D97706"/>
<path d="M41.4193 54.2001H37.5796L37.5796 49.7419H41.4193V54.2001Z" fill="#D97706"/>
<path d="M53.0151 42.9945C54.4009 42.9945 58.2189 43.864 58.2189 44.9365C58.2189 46.0091 54.4009 46.8786 53.0151 46.8786C51.6293 46.8786 50.5058 46.0091 50.5058 44.9365C50.5058 43.864 51.6293 42.9945 53.0151 42.9945Z" fill="#D97706"/>
<path d="M56.6695 46.8786V43.0283H61.1155V46.8786H56.6695Z" fill="#D97706"/>
<path d="M52.3751 46.9123C50.9893 46.9123 47.1714 46.0429 47.1714 44.9703C47.1714 43.8978 50.9893 43.0283 52.3752 43.0283C53.761 43.0283 54.8844 43.8978 54.8844 44.9703C54.8844 46.0429 53.761 46.9123 52.3751 46.9123Z" fill="#D97706"/>
<path d="M48.7207 43.0283V46.8786H44.2747V43.0283H48.7207Z" fill="#D97706"/>
<path d="M26.751 42.9945C28.1368 42.9945 31.9548 43.864 31.9548 44.9365C31.9548 46.0091 28.1368 46.8786 26.751 46.8786C25.3651 46.8786 24.2417 46.0091 24.2417 44.9365C24.2417 43.864 25.3651 42.9945 26.751 42.9945Z" fill="#D97706"/>
<path d="M30.4054 46.8786V43.0283H34.8514V46.8786H30.4054Z" fill="#D97706"/>
<path d="M26.111 46.9123C24.7252 46.9123 20.9072 46.0429 20.9072 44.9703C20.9072 43.8978 24.7252 43.0283 26.111 43.0283C27.4969 43.0283 28.6203 43.8978 28.6203 44.9703C28.6203 46.0429 27.4969 46.9123 26.111 46.9123Z" fill="#D97706"/>
<path d="M22.4566 43.0283V46.8786H18.0106V43.0283H22.4566Z" fill="#D97706"/>
<path d="M31.7632 34.4069C32.7431 35.3895 34.8297 38.7115 34.0734 39.4699C33.317 40.2283 30.0042 38.136 29.0243 37.1533C28.0443 36.1707 27.8631 34.7593 28.6194 34.0009C29.3757 33.2425 30.7832 33.4243 31.7632 34.4069Z" fill="#D97706"/>
<path d="M31.6084 39.7445L34.3234 37.022L37.4672 40.1744L34.7521 42.897L31.6084 39.7445Z" fill="#D97706"/>
<path d="M28.5479 36.7235C27.568 35.7408 25.4814 32.4189 26.2377 31.6605C26.9941 30.9021 30.3069 32.9944 31.2868 33.977C32.2668 34.9597 32.448 36.3711 31.6917 37.1295C30.9354 37.8879 29.5279 37.7061 28.5479 36.7235Z" fill="#D97706"/>
<path d="M28.7027 31.3858L25.9877 34.1084L22.8439 30.9559L25.559 28.2334L28.7027 31.3858Z" fill="#D97706"/>
<path d="M50.4882 53.1835C51.4681 54.1661 53.5547 57.4881 52.7984 58.2465C52.0421 59.0049 48.7292 56.9126 47.7493 55.93C46.7694 54.9473 46.5881 53.5359 47.3444 52.7775C48.1007 52.0191 49.5082 52.2009 50.4882 53.1835Z" fill="#D97706"/>
<path d="M50.3334 58.5212L53.0484 55.7986L56.1922 58.951L53.4771 61.6736L50.3334 58.5212Z" fill="#D97706"/>
<path d="M47.273 55.5001C46.293 54.5174 44.2064 51.1955 44.9628 50.4371C45.7191 49.6787 49.0319 51.771 50.0119 52.7536C50.9918 53.7363 51.1731 55.1477 50.4167 55.9061C49.6604 56.6645 48.2529 56.4827 47.273 55.5001Z" fill="#D97706"/>
<path d="M47.4278 50.1624L44.7127 52.885L41.5689 49.7326L44.284 47.01L47.4278 50.1624Z" fill="#D97706"/>
<path d="M47.7255 34.0168C48.7054 33.0342 52.0182 30.9419 52.7746 31.7003C53.5309 32.4587 51.4443 35.7806 50.4644 36.7633C49.4844 37.7459 48.0769 37.9277 47.3206 37.1693C46.5643 36.4109 46.7455 34.9995 47.7255 34.0168Z" fill="#D97706"/>
<path d="M53.0485 34.1721L50.3334 31.4495L53.4771 28.2971L56.1922 31.0196L53.0485 34.1721Z" fill="#D97706"/>
<path d="M50.0357 37.2409C49.0557 38.2235 45.7429 40.3159 44.9866 39.5575C44.2303 38.7991 46.3169 35.4771 47.2968 34.4945C48.2767 33.5118 49.6842 33.3301 50.4406 34.0885C51.1969 34.8469 51.0156 36.2583 50.0357 37.2409Z" fill="#D97706"/>
<path d="M44.7127 37.0857L47.4278 39.8082L44.284 42.9607L41.5689 40.2381L44.7127 37.0857Z" fill="#D97706"/>
<path d="M29.1539 52.6395C30.1339 51.6569 33.4467 49.5646 34.203 50.323C34.9593 51.0814 32.8728 54.4034 31.8928 55.386C30.9129 56.3686 29.5054 56.5504 28.7491 55.792C27.9927 55.0336 28.174 53.6222 29.1539 52.6395Z" fill="#D97706"/>
<path d="M34.4769 52.7948L31.7618 50.0722L34.9056 46.9198L37.6207 49.6423L34.4769 52.7948Z" fill="#D97706"/>
<path d="M31.4641 55.8636C30.4842 56.8463 27.1714 58.9386 26.415 58.1802C25.6587 57.4218 27.7453 54.0998 28.7252 53.1172C29.7052 52.1346 31.1127 51.9528 31.869 52.7112C32.6253 53.4696 32.4441 54.881 31.4641 55.8636Z" fill="#D97706"/>
<path d="M26.1412 55.7084L28.8562 58.4309L25.7125 61.5834L22.9974 58.8608L26.1412 55.7084Z" fill="#D97706"/>
<path fill-rule="evenodd" clip-rule="evenodd" d="M39.5047 63.3507C49.6944 63.3507 57.9547 55.0676 57.9547 44.8499C57.9547 34.6322 49.6944 26.349 39.5047 26.349C29.3151 26.349 21.0547 34.6322 21.0547 44.8499C21.0547 55.0676 29.3151 63.3507 39.5047 63.3507ZM39.5047 70.7511C53.7702 70.7511 65.3347 59.1547 65.3347 44.8499C65.3347 30.5451 53.7702 18.9487 39.5047 18.9487C25.2392 18.9487 13.6747 30.5451 13.6747 44.8499C13.6747 59.1547 25.2392 70.7511 39.5047 70.7511Z" fill="#D97706"/>
<path fill-rule="evenodd" clip-rule="evenodd" d="M39.4994 49.0889C41.7771 49.0889 43.6236 47.2374 43.6236 44.9534C43.6236 42.6695 41.7771 40.8179 39.4994 40.8179C37.2218 40.8179 35.3753 42.6695 35.3753 44.9534C35.3753 47.2374 37.2218 49.0889 39.4994 49.0889ZM39.4994 53.0067C43.9349 53.0067 47.5306 49.4011 47.5306 44.9534C47.5306 40.5057 43.9349 36.9001 39.4994 36.9001C35.0639 36.9001 31.4683 40.5057 31.4683 44.9534C31.4683 49.4011 35.0639 53.0067 39.4994 53.0067Z" fill="#D97706"/>
<path fill-rule="evenodd" clip-rule="evenodd" d="M41.3859 15.185C42.1029 13.2564 42.5642 10.6873 42.5642 9.41552C42.5642 7.22762 41.1991 5.45398 39.5151 5.45398C37.831 5.45398 36.4659 7.22762 36.4659 9.41552C36.4659 10.6873 36.9272 13.2564 37.6442 15.185H36.4659V22.2041H42.5112V15.185H41.3859Z" fill="#D97706"/>
<path fill-rule="evenodd" clip-rule="evenodd" d="M37.6442 74.723C36.9271 76.6515 36.4659 79.2207 36.4659 80.4924C36.4659 82.6803 37.831 84.454 39.515 84.454C41.1991 84.454 42.5642 82.6803 42.5642 80.4924C42.5642 79.2207 42.1029 76.6515 41.3859 74.723H42.5642V67.7039H36.5189V74.723H37.6442Z" fill="#D97706"/>
<path fill-rule="evenodd" clip-rule="evenodd" d="M69.2957 46.7363C71.219 47.4553 73.7811 47.9178 75.0493 47.9178C77.2312 47.9178 79 46.5489 79 44.8602C79 43.1716 77.2312 41.8027 75.0493 41.8027C73.7811 41.8027 71.219 42.2652 69.2957 42.9842V41.8027H62.2959V47.8646H69.2957V46.7363Z" fill="#D97706"/>
<path fill-rule="evenodd" clip-rule="evenodd" d="M9.70428 42.9842C7.78103 42.2652 5.21893 41.8027 3.95065 41.8027C1.76877 41.8027 2.00816e-08 43.1716 0 44.8602C-2.00816e-08 46.5489 1.76877 47.9178 3.95065 47.9178C5.21893 47.9178 7.78103 47.4553 9.70428 46.7363V47.9178H16.7041V41.8559H9.70428V42.9842Z" fill="#D97706"/>
<path fill-rule="evenodd" clip-rule="evenodd" d="M61.8256 25.2414C63.6925 24.3861 65.8304 22.8965 66.7272 21.9972C68.27 20.4501 68.5554 18.228 67.3646 17.0339C66.1739 15.8399 63.9578 16.1261 62.415 17.6731C61.5182 18.5724 60.0327 20.7162 59.1798 22.5883L58.3466 21.7528L53.397 26.716L57.6716 31.0025L62.6212 26.0392L61.8256 25.2414Z" fill="#D97706"/>
<path fill-rule="evenodd" clip-rule="evenodd" d="M17.1957 64.688C15.3288 65.5432 13.1909 67.0328 12.2941 67.9321C10.7513 69.4792 10.4659 71.7013 11.6567 72.8954C12.8474 74.0894 15.0635 73.8032 16.6063 72.2562C17.5031 71.3569 18.9886 69.2132 19.8415 67.3411L20.6747 68.1765L25.6243 63.2133L21.3497 58.9268L16.4001 63.8901L17.1957 64.688Z" fill="#D97706"/>
<path fill-rule="evenodd" clip-rule="evenodd" d="M59.312 67.3411C60.1649 69.2132 61.6504 71.3569 62.5472 72.2562C64.09 73.8032 66.3061 74.0894 67.4968 72.8954C68.6876 71.7013 68.4022 69.4792 66.8594 67.9321C65.9626 67.0328 63.8247 65.5432 61.9578 64.688L62.7909 63.8525L57.8413 58.8892L53.5667 63.1757L58.5163 68.1389L59.312 67.3411Z" fill="#D97706"/>
<path fill-rule="evenodd" clip-rule="evenodd" d="M19.8203 22.4344C18.9673 20.5622 17.4818 18.4185 16.585 17.5192C15.0422 15.9722 12.8262 15.686 11.6354 16.88C10.4446 18.0741 10.73 20.2962 12.2728 21.8433C13.1696 22.7426 15.3075 24.2322 17.1745 25.0874L16.3413 25.9229L21.2909 30.8862L25.5656 26.5997L20.6159 21.6365L19.8203 22.4344Z" fill="#D97706"/>
</svg>
