<svg width="346" height="96" viewBox="0 0 346 96" fill="none" xmlns="http://www.w3.org/2000/svg">
<path d="M31.008 25.6729V59.2729H23.328V50.3449H16.224L10.272 59.2729H2.064L9.072 49.1449C6.8 48.2169 5.056 46.8249 3.84 44.9689C2.624 43.0809 2.016 40.8249 2.016 38.2009C2.016 35.6089 2.608 33.3849 3.792 31.5289C4.976 29.6409 6.656 28.2009 8.832 27.2089C11.008 26.1849 13.568 25.6729 16.512 25.6729H31.008ZM16.704 32.0089C14.496 32.0089 12.8 32.5209 11.616 33.5449C10.464 34.5689 9.888 36.0889 9.888 38.1049C9.888 40.0569 10.448 41.5609 11.568 42.6169C12.688 43.6729 14.336 44.2009 16.512 44.2009H23.328V32.0089H16.704ZM37.746 42.7609H51.33V48.7609H37.746V42.7609ZM83.9576 53.0329V59.2729H57.9416V25.6729H83.3336V31.9129H65.6696V39.2089H81.2696V45.2569H65.6696V53.0329H83.9576ZM109.391 45.7849C112.431 46.8089 113.951 48.8569 113.951 51.9289C113.951 54.2649 113.071 56.0729 111.311 57.3529C109.551 58.6329 106.927 59.2729 103.439 59.2729H89.6625V33.4489H102.863C106.095 33.4489 108.623 34.0409 110.447 35.2249C112.271 36.3769 113.182 38.0089 113.182 40.1209C113.182 41.4009 112.847 42.5369 112.175 43.5289C111.535 44.4889 110.607 45.2409 109.391 45.7849ZM96.5265 44.0569H102.191C104.815 44.0569 106.127 43.1289 106.127 41.2729C106.127 39.4489 104.815 38.5369 102.191 38.5369H96.5265V44.0569ZM102.815 54.1849C105.567 54.1849 106.943 53.2409 106.943 51.3529C106.943 50.3609 106.623 49.6409 105.983 49.1929C105.343 48.7129 104.335 48.4729 102.959 48.4729H96.5265V54.1849H102.815ZM145.202 33.4489V59.2729H137.714V39.5929H126.962V59.2729H119.522V33.4489H145.202ZM162.413 33.0649C166.413 33.0649 169.485 34.0249 171.629 35.9449C173.773 37.8329 174.845 40.6969 174.845 44.5369V59.2729H167.837V56.0569C166.429 58.4569 163.805 59.6569 159.965 59.6569C157.981 59.6569 156.253 59.3209 154.781 58.6489C153.341 57.9769 152.237 57.0489 151.469 55.8649C150.701 54.6809 150.317 53.3369 150.317 51.8329C150.317 49.4329 151.213 47.5449 153.005 46.1689C154.829 44.7929 157.629 44.1049 161.405 44.1049H167.357C167.357 42.4729 166.861 41.2249 165.869 40.3609C164.877 39.4649 163.389 39.0169 161.405 39.0169C160.029 39.0169 158.669 39.2409 157.325 39.6889C156.013 40.1049 154.893 40.6809 153.965 41.4169L151.277 36.1849C152.685 35.1929 154.365 34.4249 156.317 33.8809C158.301 33.3369 160.333 33.0649 162.413 33.0649ZM161.837 54.6169C163.117 54.6169 164.253 54.3289 165.245 53.7529C166.237 53.1449 166.941 52.2649 167.357 51.1129V48.4729H162.221C159.149 48.4729 157.613 49.4809 157.613 51.4969C157.613 52.4569 157.981 53.2249 158.717 53.8009C159.485 54.3449 160.525 54.6169 161.837 54.6169ZM203.046 39.5929H194.31V59.2729H186.87V39.5929H178.134V33.4489H203.046V39.5929ZM218.055 59.6569C215.335 59.6569 212.887 59.0969 210.711 57.9769C208.567 56.8249 206.887 55.2409 205.671 53.2249C204.455 51.2089 203.847 48.9209 203.847 46.3609C203.847 43.8009 204.455 41.5129 205.671 39.4969C206.887 37.4809 208.567 35.9129 210.711 34.7929C212.887 33.6409 215.335 33.0649 218.055 33.0649C220.775 33.0649 223.207 33.6409 225.351 34.7929C227.495 35.9129 229.175 37.4809 230.391 39.4969C231.607 41.5129 232.215 43.8009 232.215 46.3609C232.215 48.9209 231.607 51.2089 230.391 53.2249C229.175 55.2409 227.495 56.8249 225.351 57.9769C223.207 59.0969 220.775 59.6569 218.055 59.6569ZM218.055 53.5129C219.975 53.5129 221.543 52.8729 222.759 51.5929C224.007 50.2809 224.631 48.5369 224.631 46.3609C224.631 44.1849 224.007 42.4569 222.759 41.1769C221.543 39.8649 219.975 39.2089 218.055 39.2089C216.135 39.2089 214.551 39.8649 213.303 41.1769C212.055 42.4569 211.431 44.1849 211.431 46.3609C211.431 48.5369 212.055 50.2809 213.303 51.5929C214.551 52.8729 216.135 53.5129 218.055 53.5129ZM252.582 33.0649C254.982 33.0649 257.158 33.6249 259.11 34.7449C261.094 35.8329 262.646 37.3849 263.766 39.4009C264.886 41.3849 265.446 43.7049 265.446 46.3609C265.446 49.0169 264.886 51.3529 263.766 53.3689C262.646 55.3529 261.094 56.9049 259.11 58.0249C257.158 59.1129 254.982 59.6569 252.582 59.6569C249.286 59.6569 246.694 58.6169 244.806 56.5369V68.5849H237.318V33.4489H244.47V36.4249C246.326 34.1849 249.03 33.0649 252.582 33.0649ZM251.286 53.5129C253.206 53.5129 254.774 52.8729 255.99 51.5929C257.238 50.2809 257.862 48.5369 257.862 46.3609C257.862 44.1849 257.238 42.4569 255.99 41.1769C254.774 39.8649 253.206 39.2089 251.286 39.2089C249.366 39.2089 247.782 39.8649 246.534 41.1769C245.318 42.4569 244.71 44.1849 244.71 46.3609C244.71 48.5369 245.318 50.2809 246.534 51.5929C247.782 52.8729 249.366 53.5129 251.286 53.5129ZM270.694 33.4489H278.134V48.8089L290.71 33.4489H297.574V59.2729H290.134V43.9129L277.606 59.2729H270.694V33.4489ZM327.716 33.4489V59.2729H321.044V51.8809H315.524L310.628 59.2729H302.66L308.564 50.8249C306.772 50.1209 305.396 49.1129 304.436 47.8009C303.508 46.4569 303.044 44.8409 303.044 42.9529C303.044 39.9129 304.132 37.5769 306.308 35.9449C308.516 34.2809 311.54 33.4489 315.38 33.4489H327.716ZM315.524 39.5449C313.924 39.5449 312.708 39.8329 311.876 40.4089C311.076 40.9849 310.676 41.9129 310.676 43.1929C310.676 44.4729 311.06 45.4169 311.828 46.0249C312.628 46.6009 313.828 46.8889 315.428 46.8889H321.044V39.5449H315.524ZM333.809 25.6729H342.737L341.249 47.6089H335.297L333.809 25.6729ZM338.273 59.6569C336.961 59.6569 335.857 59.2409 334.961 58.4089C334.097 57.5449 333.665 56.5049 333.665 55.2889C333.665 54.0729 334.097 53.0649 334.961 52.2649C335.825 51.4329 336.929 51.0169 338.273 51.0169C339.617 51.0169 340.721 51.4329 341.585 52.2649C342.449 53.0649 342.881 54.0729 342.881 55.2889C342.881 56.5049 342.433 57.5449 341.537 58.4089C340.673 59.2409 339.585 59.6569 338.273 59.6569Z" fill="#E2E8F0"/>
<path d="M1.98145 74.5914H4.29736V80.4518L4.26416 82.0206L4.18115 83.8053H4.23096L9.83398 74.5914H12.9136V86.7272H10.6226V80.9C10.6226 80.1198 10.6724 78.9632 10.772 77.4303H10.7056L5.07764 86.7272H1.98145V74.5914ZM27.2809 86.7272H24.716V81.4894H19.9098V86.7272H17.3366V74.5914H19.9098V79.3478H24.716V74.5914H27.2809V86.7272ZM36.3938 86.7272H33.8206V76.733H30.5252V74.5914H39.6892V76.733H36.3938V86.7272ZM49.9062 86.7272H42.9169V74.5914H49.9062V76.6998H45.4902V79.3644H49.599V81.4728H45.4902V84.6022H49.9062V86.7272ZM56.3795 80.3024H57.2261C58.0175 80.3024 58.6096 80.1474 59.0025 79.8375C59.3954 79.5221 59.5919 79.0656 59.5919 78.4679C59.5919 77.8647 59.4258 77.4192 59.0938 77.1315C58.7673 76.8437 58.2527 76.6998 57.5499 76.6998H56.3795V80.3024ZM62.19 78.3766C62.19 79.6826 61.7805 80.6814 60.9615 81.3732C60.148 82.0649 58.9887 82.4108 57.4835 82.4108H56.3795V86.7272H53.8062V74.5914H57.6827C59.1547 74.5914 60.2725 74.9096 61.0362 75.546C61.8054 76.1769 62.19 77.1204 62.19 78.3766ZM75.7854 86.7272H73.2204V81.4894H68.4143V86.7272H65.841V74.5914H68.4143V79.3478H73.2204V74.5914H75.7854V86.7272ZM87.2059 86.7272H80.2166V74.5914H87.2059V76.6998H82.7899V79.3644H86.8988V81.4728H82.7899V84.6022H87.2059V86.7272ZM95.7876 86.7272H93.2143V76.733H89.9189V74.5914H99.083V76.733H95.7876V86.7272ZM109.198 79.6552V81.6612H101.99V79.6552H109.198ZM123.526 86.7272H120.961V81.4894H116.155V86.7272H113.582V74.5914H116.155V79.3478H120.961V74.5914H123.526V86.7272ZM135.387 86.7272L134.507 83.8385H130.082L129.203 86.7272H126.43L130.713 74.5416H133.859L138.159 86.7272H135.387ZM133.892 81.6803C133.079 79.0628 132.62 77.5825 132.515 77.2394C132.415 76.8963 132.343 76.6251 132.299 76.4259C132.116 77.1342 131.593 78.8857 130.73 81.6803H133.892ZM141.055 74.5914H144.832C146.553 74.5914 147.801 74.8377 148.575 75.3302C149.356 75.8172 149.746 76.5947 149.746 77.6627C149.746 78.3877 149.574 78.9825 149.231 79.4474C148.893 79.9122 148.442 80.1917 147.878 80.2858V80.3688C148.647 80.5403 149.201 80.8613 149.538 81.3317C149.881 81.802 150.053 82.4274 150.053 83.2076C150.053 84.3144 149.652 85.1777 148.849 85.7975C148.052 86.4173 146.968 86.7272 145.595 86.7272H141.055V74.5914ZM143.628 79.3976H145.122C145.819 79.3976 146.323 79.2897 146.633 79.0739C146.948 78.858 147.106 78.5011 147.106 78.0031C147.106 77.5382 146.934 77.2062 146.591 77.007C146.254 76.8022 145.717 76.6998 144.981 76.6998H143.628V79.3976ZM143.628 81.4396V84.6022H145.305C146.013 84.6022 146.536 84.4666 146.874 84.1954C147.211 83.9243 147.38 83.5092 147.38 82.9503C147.38 81.9432 146.661 81.4396 145.222 81.4396H143.628ZM153.837 74.5914H156.153V80.4518L156.119 82.0206L156.036 83.8053H156.086L161.689 74.5914H164.769V86.7272H162.478V80.9C162.478 80.1198 162.528 78.9632 162.627 77.4303H162.561L156.933 86.7272H153.837V74.5914ZM176.862 74.5914V76.7164H171.765V86.7272H169.192V74.5914H176.862ZM186.946 86.7272L186.066 83.8385H181.642L180.762 86.7272H177.989L182.272 74.5416H185.418L189.718 86.7272H186.946ZM185.452 81.6803C184.638 79.0628 184.179 77.5825 184.074 77.2394C183.974 76.8963 183.902 76.6251 183.858 76.4259C183.675 77.1342 183.152 78.8857 182.289 81.6803H185.452ZM196.714 86.7272H194.141V76.733H190.846V74.5914H200.01V76.733H196.714V86.7272ZM214.087 80.6427C214.087 82.6515 213.589 84.1954 212.593 85.2745C211.596 86.3536 210.169 86.8932 208.309 86.8932C206.45 86.8932 205.022 86.3536 204.026 85.2745C203.03 84.1954 202.532 82.646 202.532 80.6261C202.532 78.6062 203.03 77.0651 204.026 76.0026C205.028 74.9345 206.461 74.4005 208.326 74.4005C210.191 74.4005 211.616 74.9373 212.601 76.0109C213.591 77.0844 214.087 78.6284 214.087 80.6427ZM205.23 80.6427C205.23 81.9985 205.487 83.0195 206.002 83.7057C206.516 84.3919 207.286 84.735 208.309 84.735C210.362 84.735 211.389 83.3709 211.389 80.6427C211.389 77.909 210.368 76.5421 208.326 76.5421C207.302 76.5421 206.53 76.888 206.01 77.5797C205.49 78.2659 205.23 79.2869 205.23 80.6427ZM220.535 80.3024H221.382C222.173 80.3024 222.765 80.1474 223.158 79.8375C223.551 79.5221 223.747 79.0656 223.747 78.4679C223.747 77.8647 223.581 77.4192 223.249 77.1315C222.923 76.8437 222.408 76.6998 221.705 76.6998H220.535V80.3024ZM226.346 78.3766C226.346 79.6826 225.936 80.6814 225.117 81.3732C224.304 82.0649 223.144 82.4108 221.639 82.4108H220.535V86.7272H217.962V74.5914H221.838C223.31 74.5914 224.428 74.9096 225.192 75.546C225.961 76.1769 226.346 77.1204 226.346 78.3766Z" fill="#D97706"/>
</svg>
