<svg width="347" height="96" viewBox="0 0 347 96" fill="none" xmlns="http://www.w3.org/2000/svg">
<path d="M31.5539 25.4V59H23.8739V50.072H16.7699L10.8179 59H2.6099L9.6179 48.872C7.3459 47.944 5.6019 46.552 4.3859 44.696C3.1699 42.808 2.5619 40.552 2.5619 37.928C2.5619 35.336 3.1539 33.112 4.3379 31.256C5.5219 29.368 7.2019 27.928 9.3779 26.936C11.5539 25.912 14.1139 25.4 17.0579 25.4H31.5539ZM17.2499 31.736C15.0419 31.736 13.3459 32.248 12.1619 33.272C11.0099 34.296 10.4339 35.816 10.4339 37.832C10.4339 39.784 10.9939 41.288 12.1139 42.344C13.2339 43.4 14.8819 43.928 17.0579 43.928H23.8739V31.736H17.2499ZM38.2919 42.488H51.8759V48.488H38.2919V42.488ZM84.5035 52.76V59H58.4875V25.4H83.8795V31.64H66.2155V38.936H81.8155V44.984H66.2155V52.76H84.5035ZM109.936 45.512C112.976 46.536 114.496 48.584 114.496 51.656C114.496 53.992 113.616 55.8 111.856 57.08C110.096 58.36 107.472 59 103.984 59H90.2084V33.176H103.408C106.64 33.176 109.168 33.768 110.992 34.952C112.816 36.104 113.728 37.736 113.728 39.848C113.728 41.128 113.392 42.264 112.72 43.256C112.08 44.216 111.152 44.968 109.936 45.512ZM97.0724 43.784H102.736C105.36 43.784 106.672 42.856 106.672 41C106.672 39.176 105.36 38.264 102.736 38.264H97.0724V43.784ZM103.36 53.912C106.112 53.912 107.488 52.968 107.488 51.08C107.488 50.088 107.168 49.368 106.528 48.92C105.888 48.44 104.88 48.2 103.504 48.2H97.0724V53.912H103.36ZM145.748 33.176V59H138.26V39.32H127.508V59H120.068V33.176H145.748ZM162.959 32.792C166.959 32.792 170.031 33.752 172.175 35.672C174.319 37.56 175.391 40.424 175.391 44.264V59H168.383V55.784C166.975 58.184 164.351 59.384 160.511 59.384C158.527 59.384 156.799 59.048 155.327 58.376C153.887 57.704 152.783 56.776 152.015 55.592C151.247 54.408 150.863 53.064 150.863 51.56C150.863 49.16 151.759 47.272 153.551 45.896C155.375 44.52 158.175 43.832 161.951 43.832H167.903C167.903 42.2 167.407 40.952 166.415 40.088C165.423 39.192 163.935 38.744 161.951 38.744C160.575 38.744 159.215 38.968 157.871 39.416C156.559 39.832 155.439 40.408 154.511 41.144L151.823 35.912C153.231 34.92 154.911 34.152 156.863 33.608C158.847 33.064 160.879 32.792 162.959 32.792ZM162.383 54.344C163.663 54.344 164.799 54.056 165.791 53.48C166.783 52.872 167.487 51.992 167.903 50.84V48.2H162.767C159.695 48.2 158.159 49.208 158.159 51.224C158.159 52.184 158.527 52.952 159.263 53.528C160.031 54.072 161.071 54.344 162.383 54.344ZM203.592 39.32H194.856V59H187.416V39.32H178.68V33.176H203.592V39.32ZM218.601 59.384C215.881 59.384 213.433 58.824 211.257 57.704C209.113 56.552 207.433 54.968 206.217 52.952C205.001 50.936 204.393 48.648 204.393 46.088C204.393 43.528 205.001 41.24 206.217 39.224C207.433 37.208 209.113 35.64 211.257 34.52C213.433 33.368 215.881 32.792 218.601 32.792C221.321 32.792 223.753 33.368 225.897 34.52C228.041 35.64 229.721 37.208 230.937 39.224C232.153 41.24 232.761 43.528 232.761 46.088C232.761 48.648 232.153 50.936 230.937 52.952C229.721 54.968 228.041 56.552 225.897 57.704C223.753 58.824 221.321 59.384 218.601 59.384ZM218.601 53.24C220.521 53.24 222.089 52.6 223.305 51.32C224.553 50.008 225.177 48.264 225.177 46.088C225.177 43.912 224.553 42.184 223.305 40.904C222.089 39.592 220.521 38.936 218.601 38.936C216.681 38.936 215.097 39.592 213.849 40.904C212.601 42.184 211.977 43.912 211.977 46.088C211.977 48.264 212.601 50.008 213.849 51.32C215.097 52.6 216.681 53.24 218.601 53.24ZM253.128 32.792C255.528 32.792 257.704 33.352 259.656 34.472C261.64 35.56 263.192 37.112 264.312 39.128C265.432 41.112 265.992 43.432 265.992 46.088C265.992 48.744 265.432 51.08 264.312 53.096C263.192 55.08 261.64 56.632 259.656 57.752C257.704 58.84 255.528 59.384 253.128 59.384C249.832 59.384 247.24 58.344 245.352 56.264V68.312H237.864V33.176H245.016V36.152C246.872 33.912 249.576 32.792 253.128 32.792ZM251.832 53.24C253.752 53.24 255.32 52.6 256.536 51.32C257.784 50.008 258.408 48.264 258.408 46.088C258.408 43.912 257.784 42.184 256.536 40.904C255.32 39.592 253.752 38.936 251.832 38.936C249.912 38.936 248.328 39.592 247.08 40.904C245.864 42.184 245.256 43.912 245.256 46.088C245.256 48.264 245.864 50.008 247.08 51.32C248.328 52.6 249.912 53.24 251.832 53.24ZM271.24 33.176H278.68V48.536L291.256 33.176H298.12V59H290.68V43.64L278.152 59H271.24V33.176ZM328.262 33.176V59H321.59V51.608H316.07L311.174 59H303.206L309.11 50.552C307.318 49.848 305.942 48.84 304.982 47.528C304.054 46.184 303.59 44.568 303.59 42.68C303.59 39.64 304.678 37.304 306.854 35.672C309.062 34.008 312.086 33.176 315.926 33.176H328.262ZM316.07 39.272C314.47 39.272 313.254 39.56 312.422 40.136C311.622 40.712 311.222 41.64 311.222 42.92C311.222 44.2 311.606 45.144 312.374 45.752C313.174 46.328 314.374 46.616 315.974 46.616H321.59V39.272H316.07ZM334.354 25.4H343.282L341.794 47.336H335.842L334.354 25.4ZM338.818 59.384C337.506 59.384 336.402 58.968 335.506 58.136C334.642 57.272 334.21 56.232 334.21 55.016C334.21 53.8 334.642 52.792 335.506 51.992C336.37 51.16 337.474 50.744 338.818 50.744C340.162 50.744 341.266 51.16 342.13 51.992C342.994 52.792 343.426 53.8 343.426 55.016C343.426 56.232 342.978 57.272 342.082 58.136C341.218 58.968 340.13 59.384 338.818 59.384Z" fill="#1E293B"/>
<path d="M2.52734 74.3185H4.84326V80.1788L4.81006 81.7477L4.72705 83.5323H4.77686L10.3799 74.3185H13.4595V86.4542H11.1685V80.6271C11.1685 79.8468 11.2183 78.6902 11.3179 77.1573H11.2515L5.62354 86.4542H2.52734V74.3185ZM27.8268 86.4542H25.2619V81.2164H20.4557V86.4542H17.8825V74.3185H20.4557V79.0748H25.2619V74.3185H27.8268V86.4542ZM36.9397 86.4542H34.3665V76.4601H31.0711V74.3185H40.2351V76.4601H36.9397V86.4542ZM50.4521 86.4542H43.4628V74.3185H50.4521V76.4269H46.0361V79.0914H50.1449V81.1998H46.0361V84.3292H50.4521V86.4542ZM56.9254 80.0294H57.772C58.5634 80.0294 59.1555 79.8745 59.5484 79.5646C59.9413 79.2491 60.1378 78.7926 60.1378 78.1949C60.1378 77.5918 59.9717 77.1463 59.6397 76.8585C59.3132 76.5708 58.7986 76.4269 58.0958 76.4269H56.9254V80.0294ZM62.7359 78.1036C62.7359 79.4096 62.3264 80.4085 61.5074 81.1002C60.6939 81.792 59.5346 82.1378 58.0294 82.1378H56.9254V86.4542H54.3521V74.3185H58.2286C59.7006 74.3185 60.8184 74.6367 61.5821 75.2731C62.3513 75.9039 62.7359 76.8475 62.7359 78.1036ZM76.3312 86.4542H73.7663V81.2164H68.9602V86.4542H66.3869V74.3185H68.9602V79.0748H73.7663V74.3185H76.3312V86.4542ZM87.7518 86.4542H80.7625V74.3185H87.7518V76.4269H83.3358V79.0914H87.4447V81.1998H83.3358V84.3292H87.7518V86.4542ZM96.3335 86.4542H93.7602V76.4601H90.4648V74.3185H99.6289V76.4601H96.3335V86.4542ZM109.744 79.3822V81.3882H102.536V79.3822H109.744ZM124.072 86.4542H121.507V81.2164H116.701V86.4542H114.128V74.3185H116.701V79.0748H121.507V74.3185H124.072V86.4542ZM135.933 86.4542L135.053 83.5656H130.628L129.748 86.4542H126.976L131.259 74.2687H134.405L138.705 86.4542H135.933ZM134.438 81.4073C133.625 78.7898 133.166 77.3095 133.06 76.9664C132.961 76.6233 132.889 76.3522 132.845 76.153C132.662 76.8613 132.139 78.6128 131.276 81.4073H134.438ZM141.601 74.3185H145.377C147.099 74.3185 148.346 74.5647 149.121 75.0573C149.901 75.5442 150.292 76.3217 150.292 77.3898C150.292 78.1147 150.12 78.7096 149.777 79.1744C149.439 79.6393 148.988 79.9187 148.424 80.0128V80.0958C149.193 80.2674 149.746 80.5883 150.084 81.0587C150.427 81.5291 150.599 82.1544 150.599 82.9347C150.599 84.0415 150.197 84.9047 149.395 85.5245C148.598 86.1443 147.514 86.4542 146.141 86.4542H141.601V74.3185ZM144.174 79.1246H145.668C146.365 79.1246 146.869 79.0167 147.179 78.8009C147.494 78.5851 147.652 78.2281 147.652 77.7301C147.652 77.2653 147.48 76.9332 147.137 76.734C146.8 76.5293 146.263 76.4269 145.527 76.4269H144.174V79.1246ZM144.174 81.1666V84.3292H145.851C146.559 84.3292 147.082 84.1936 147.419 83.9225C147.757 83.6513 147.926 83.2363 147.926 82.6774C147.926 81.6702 147.206 81.1666 145.768 81.1666H144.174ZM154.383 74.3185H156.698V80.1788L156.665 81.7477L156.582 83.5323H156.632L162.235 74.3185H165.315V86.4542H163.024V80.6271C163.024 79.8468 163.073 78.6902 163.173 77.1573H163.107L157.479 86.4542H154.383V74.3185ZM177.408 74.3185V76.4435H172.311V86.4542H169.738V74.3185H177.408ZM187.492 86.4542L186.612 83.5656H182.187L181.308 86.4542H178.535L182.818 74.2687H185.964L190.264 86.4542H187.492ZM185.998 81.4073C185.184 78.7898 184.725 77.3095 184.62 76.9664C184.52 76.6233 184.448 76.3522 184.404 76.153C184.221 76.8613 183.698 78.6128 182.835 81.4073H185.998ZM197.26 86.4542H194.687V76.4601H191.392V74.3185H200.556V76.4601H197.26V86.4542ZM214.633 80.3698C214.633 82.3785 214.135 83.9225 213.138 85.0016C212.142 86.0807 210.715 86.6202 208.855 86.6202C206.996 86.6202 205.568 86.0807 204.572 85.0016C203.576 83.9225 203.078 82.373 203.078 80.3531C203.078 78.3333 203.576 76.7921 204.572 75.7296C205.574 74.6616 207.007 74.1276 208.872 74.1276C210.737 74.1276 212.162 74.6643 213.147 75.7379C214.137 76.8115 214.633 78.3554 214.633 80.3698ZM205.776 80.3698C205.776 81.7255 206.033 82.7465 206.548 83.4327C207.062 84.1189 207.831 84.462 208.855 84.462C210.908 84.462 211.935 83.0979 211.935 80.3698C211.935 77.636 210.914 76.2692 208.872 76.2692C207.848 76.2692 207.076 76.615 206.556 77.3068C206.036 77.993 205.776 79.014 205.776 80.3698ZM221.081 80.0294H221.928C222.719 80.0294 223.311 79.8745 223.704 79.5646C224.097 79.2491 224.293 78.7926 224.293 78.1949C224.293 77.5918 224.127 77.1463 223.795 76.8585C223.469 76.5708 222.954 76.4269 222.251 76.4269H221.081V80.0294ZM226.891 78.1036C226.891 79.4096 226.482 80.4085 225.663 81.1002C224.849 81.792 223.69 82.1378 222.185 82.1378H221.081V86.4542H218.508V74.3185H222.384C223.856 74.3185 224.974 74.6367 225.738 75.2731C226.507 75.9039 226.891 76.8475 226.891 78.1036Z" fill="#F59E0B"/>
</svg>
