<svg width="438" height="95" viewBox="0 0 438 95" fill="none" xmlns="http://www.w3.org/2000/svg">
<path d="M122.299 26.3885V59.9885H114.619V51.0605H107.515L101.563 59.9885H93.355L100.363 49.8605C98.091 48.9325 96.347 47.5405 95.131 45.6845C93.915 43.7965 93.307 41.5405 93.307 38.9165C93.307 36.3245 93.899 34.1005 95.083 32.2445C96.267 30.3565 97.947 28.9165 100.123 27.9245C102.299 26.9005 104.859 26.3885 107.803 26.3885H122.299ZM107.995 32.7245C105.787 32.7245 104.091 33.2365 102.907 34.2605C101.755 35.2845 101.179 36.8045 101.179 38.8205C101.179 40.7725 101.739 42.2765 102.859 43.3325C103.979 44.3885 105.627 44.9165 107.803 44.9165H114.619V32.7245H107.995ZM129.037 43.4765H142.621V49.4765H129.037V43.4765ZM175.249 53.7485V59.9885H149.233V26.3885H174.625V32.6285H156.961V39.9245H172.561V45.9725H156.961V53.7485H175.249ZM200.682 46.5005C203.722 47.5245 205.242 49.5725 205.242 52.6445C205.242 54.9805 204.362 56.7885 202.602 58.0685C200.842 59.3485 198.218 59.9885 194.73 59.9885H180.954V34.1645H194.154C197.386 34.1645 199.914 34.7565 201.738 35.9405C203.562 37.0925 204.474 38.7245 204.474 40.8365C204.474 42.1165 204.138 43.2525 203.466 44.2445C202.826 45.2045 201.898 45.9565 200.682 46.5005ZM187.818 44.7725H193.482C196.106 44.7725 197.418 43.8445 197.418 41.9885C197.418 40.1645 196.106 39.2525 193.482 39.2525H187.818V44.7725ZM194.106 54.9005C196.858 54.9005 198.234 53.9565 198.234 52.0685C198.234 51.0765 197.914 50.3565 197.274 49.9085C196.634 49.4285 195.626 49.1885 194.25 49.1885H187.818V54.9005H194.106ZM236.493 34.1645V59.9885H229.005V40.3085H218.253V59.9885H210.813V34.1645H236.493ZM253.704 33.7805C257.704 33.7805 260.776 34.7405 262.92 36.6605C265.064 38.5485 266.136 41.4125 266.136 45.2525V59.9885H259.128V56.7725C257.72 59.1725 255.096 60.3725 251.256 60.3725C249.272 60.3725 247.544 60.0365 246.072 59.3645C244.632 58.6925 243.528 57.7645 242.76 56.5805C241.992 55.3965 241.608 54.0525 241.608 52.5485C241.608 50.1485 242.504 48.2605 244.296 46.8845C246.12 45.5085 248.92 44.8205 252.696 44.8205H258.648C258.648 43.1885 258.152 41.9405 257.16 41.0765C256.168 40.1805 254.68 39.7325 252.696 39.7325C251.32 39.7325 249.96 39.9565 248.616 40.4045C247.304 40.8205 246.184 41.3965 245.256 42.1325L242.568 36.9005C243.976 35.9085 245.656 35.1405 247.608 34.5965C249.592 34.0525 251.624 33.7805 253.704 33.7805ZM253.128 55.3325C254.408 55.3325 255.544 55.0445 256.536 54.4685C257.528 53.8605 258.232 52.9805 258.648 51.8285V49.1885H253.512C250.44 49.1885 248.904 50.1965 248.904 52.2125C248.904 53.1725 249.272 53.9405 250.008 54.5165C250.776 55.0605 251.816 55.3325 253.128 55.3325ZM294.337 40.3085H285.601V59.9885H278.161V40.3085H269.425V34.1645H294.337V40.3085ZM309.346 60.3725C306.626 60.3725 304.178 59.8125 302.002 58.6925C299.858 57.5405 298.178 55.9565 296.962 53.9405C295.746 51.9245 295.138 49.6365 295.138 47.0765C295.138 44.5165 295.746 42.2285 296.962 40.2125C298.178 38.1965 299.858 36.6285 302.002 35.5085C304.178 34.3565 306.626 33.7805 309.346 33.7805C312.066 33.7805 314.498 34.3565 316.642 35.5085C318.786 36.6285 320.466 38.1965 321.682 40.2125C322.898 42.2285 323.506 44.5165 323.506 47.0765C323.506 49.6365 322.898 51.9245 321.682 53.9405C320.466 55.9565 318.786 57.5405 316.642 58.6925C314.498 59.8125 312.066 60.3725 309.346 60.3725ZM309.346 54.2285C311.266 54.2285 312.834 53.5885 314.05 52.3085C315.298 50.9965 315.922 49.2525 315.922 47.0765C315.922 44.9005 315.298 43.1725 314.05 41.8925C312.834 40.5805 311.266 39.9245 309.346 39.9245C307.426 39.9245 305.842 40.5805 304.594 41.8925C303.346 43.1725 302.722 44.9005 302.722 47.0765C302.722 49.2525 303.346 50.9965 304.594 52.3085C305.842 53.5885 307.426 54.2285 309.346 54.2285ZM343.873 33.7805C346.273 33.7805 348.449 34.3405 350.401 35.4605C352.385 36.5485 353.937 38.1005 355.057 40.1165C356.177 42.1005 356.737 44.4205 356.737 47.0765C356.737 49.7325 356.177 52.0685 355.057 54.0845C353.937 56.0685 352.385 57.6205 350.401 58.7405C348.449 59.8285 346.273 60.3725 343.873 60.3725C340.577 60.3725 337.985 59.3325 336.097 57.2525V69.3005H328.609V34.1645H335.761V37.1405C337.617 34.9005 340.321 33.7805 343.873 33.7805ZM342.577 54.2285C344.497 54.2285 346.065 53.5885 347.281 52.3085C348.529 50.9965 349.153 49.2525 349.153 47.0765C349.153 44.9005 348.529 43.1725 347.281 41.8925C346.065 40.5805 344.497 39.9245 342.577 39.9245C340.657 39.9245 339.073 40.5805 337.825 41.8925C336.609 43.1725 336.001 44.9005 336.001 47.0765C336.001 49.2525 336.609 50.9965 337.825 52.3085C339.073 53.5885 340.657 54.2285 342.577 54.2285ZM361.985 34.1645H369.425V49.5245L382.001 34.1645H388.865V59.9885H381.425V44.6285L368.897 59.9885H361.985V34.1645ZM419.007 34.1645V59.9885H412.335V52.5965H406.815L401.919 59.9885H393.951L399.855 51.5405C398.063 50.8365 396.687 49.8285 395.727 48.5165C394.799 47.1725 394.335 45.5565 394.335 43.6685C394.335 40.6285 395.423 38.2925 397.599 36.6605C399.807 34.9965 402.831 34.1645 406.671 34.1645H419.007ZM406.815 40.2605C405.215 40.2605 403.999 40.5485 403.167 41.1245C402.367 41.7005 401.967 42.6285 401.967 43.9085C401.967 45.1885 402.351 46.1325 403.119 46.7405C403.919 47.3165 405.119 47.6045 406.719 47.6045H412.335V40.2605H406.815ZM425.1 26.3885H434.028L432.54 48.3245H426.588L425.1 26.3885ZM429.564 60.3725C428.252 60.3725 427.148 59.9565 426.252 59.1245C425.388 58.2605 424.956 57.2205 424.956 56.0045C424.956 54.7885 425.388 53.7805 426.252 52.9805C427.116 52.1485 428.22 51.7325 429.564 51.7325C430.908 51.7325 432.012 52.1485 432.876 52.9805C433.74 53.7805 434.172 54.7885 434.172 56.0045C434.172 57.2205 433.724 58.2605 432.828 59.1245C431.964 59.9565 430.876 60.3725 429.564 60.3725Z" fill="#E2E8F0"/>
<path d="M95.7611 84.4427L98.9451 79.1147C99.2491 78.6187 99.5691 77.9627 99.9051 77.1627H99.9371L99.8091 79.1147V84.4427H102.609V73.0027H99.7771L96.6091 78.3467C96.3051 78.8427 95.9851 79.4987 95.6491 80.2987H95.6171L95.7451 78.3467V73.0027H92.9451V84.4427H95.7611ZM109.408 84.4427V79.9627H113.568V84.4427H116.368V73.0027H113.568V77.5787H109.408V73.0027H106.608V84.4427H109.408ZM125.644 84.4427V75.4027H129.116V73.0027H119.372V75.4027H122.844V84.4427H125.644ZM139.512 84.4427V82.0427H134.92V79.8827H138.408V77.4827H134.92V75.4027H139.288V73.0027H132.12V84.4427H139.512ZM145.739 84.4427V80.9067H147.691C148.795 80.9067 149.691 80.5387 150.379 79.8027C151.067 79.0507 151.419 78.1067 151.419 76.9387C151.419 75.7867 151.067 74.8427 150.379 74.1067C149.691 73.3707 148.795 73.0027 147.691 73.0027H142.939V84.4427H145.739ZM145.739 75.4027H147.163C148.059 75.4027 148.571 75.9947 148.571 76.9387C148.571 77.8827 148.059 78.5067 147.115 78.5067H145.739V75.4027ZM157.339 84.4427V79.9627H161.499V84.4427H164.299V73.0027H161.499V77.5787H157.339V73.0027H154.539V84.4427H157.339ZM175.687 84.4427V82.0427H171.095V79.8827H174.583V77.4827H171.095V75.4027H175.463V73.0027H168.295V84.4427H175.687ZM184.394 84.4427V75.4027H187.866V73.0027H178.122V75.4027H181.594V84.4427H184.394ZM194.701 81.0507V78.6507H189.677V81.0507H194.701ZM201.239 84.4427V79.9627H205.399V84.4427H208.199V73.0027H205.399V77.5787H201.239V73.0027H198.439V84.4427H201.239ZM213.827 84.4427L214.515 82.0427H218.083L218.787 84.4427H221.667L217.779 73.0027H214.835L210.947 84.4427H213.827ZM215.827 77.5787C215.971 77.0987 216.115 76.4427 216.291 75.6107H216.323L216.787 77.5787L217.427 79.8027H215.171L215.827 77.5787ZM228.628 84.4427C229.892 84.4427 230.932 84.1707 231.748 83.6107C232.564 83.0507 232.98 82.2027 232.98 81.0347C232.98 79.8987 232.404 78.8267 231.188 78.4587V78.4267C232.02 77.9307 232.516 76.9707 232.516 75.9947C232.516 74.0747 230.98 73.0027 228.628 73.0027H224.42V84.4427H228.628ZM227.22 75.4027H228.612C229.316 75.4027 229.668 75.8027 229.668 76.3787C229.668 76.9707 229.316 77.4347 228.66 77.4347H227.22V75.4027ZM227.22 79.6747H228.916C229.7 79.6747 230.116 80.1547 230.116 80.8427C230.116 81.5307 229.668 82.0427 228.9 82.0427H227.22V79.6747ZM239.195 84.4427L242.379 79.1147C242.683 78.6187 243.003 77.9627 243.339 77.1627H243.371L243.243 79.1147V84.4427H246.043V73.0027H243.211L240.043 78.3467C239.739 78.8427 239.419 79.4987 239.083 80.2987H239.051L239.179 78.3467V73.0027H236.379V84.4427H239.195ZM252.842 84.4427V75.4027H257.05V73.0027H250.042V84.4427H252.842ZM260.774 84.4427L261.462 82.0427H265.03L265.734 84.4427H268.614L264.726 73.0027H261.782L257.894 84.4427H260.774ZM262.774 77.5787C262.918 77.0987 263.062 76.4427 263.238 75.6107H263.27L263.734 77.5787L264.374 79.8027H262.118L262.774 77.5787ZM275.741 84.4427V75.4027H279.213V73.0027H269.469V75.4027H272.941V84.4427H275.741ZM281.327 78.6507C281.327 80.3467 281.887 81.7707 283.023 82.9227C284.159 84.0587 285.599 84.6347 287.311 84.6347C289.023 84.6347 290.447 84.0587 291.583 82.9227C292.719 81.7707 293.295 80.3467 293.295 78.6507C293.295 77.0027 292.719 75.6107 291.583 74.4907C290.447 73.3707 289.023 72.8107 287.311 72.8107C285.599 72.8107 284.159 73.3707 283.023 74.4907C281.887 75.6107 281.327 77.0027 281.327 78.6507ZM284.223 78.6507C284.223 77.7227 284.527 76.9387 285.119 76.3147C285.711 75.6907 286.447 75.3707 287.311 75.3707C288.175 75.3707 288.911 75.6907 289.503 76.3147C290.095 76.9387 290.399 77.7227 290.399 78.6507C290.399 79.6267 290.095 80.4427 289.503 81.0987C288.911 81.7547 288.175 82.0747 287.311 82.0747C286.447 82.0747 285.711 81.7547 285.119 81.0987C284.527 80.4427 284.223 79.6267 284.223 78.6507ZM299.476 84.4427V80.9067H301.428C302.532 80.9067 303.428 80.5387 304.116 79.8027C304.804 79.0507 305.156 78.1067 305.156 76.9387C305.156 75.7867 304.804 74.8427 304.116 74.1067C303.428 73.3707 302.532 73.0027 301.428 73.0027H296.676V84.4427H299.476ZM299.476 75.4027H300.9C301.796 75.4027 302.308 75.9947 302.308 76.9387C302.308 77.8827 301.796 78.5067 300.852 78.5067H299.476V75.4027Z" fill="#D97706"/>
<path d="M42.1981 32.9407C42.1981 34.3303 41.331 38.1588 40.2614 38.1588C39.1918 38.1588 38.3247 34.3303 38.3247 32.9407C38.3247 31.551 39.1918 30.4245 40.2614 30.4245C41.331 30.4245 42.1981 31.551 42.1981 32.9407Z" fill="#D97706"/>
<path d="M38.3247 36.6052H42.1644V41.0634H38.3247V36.6052Z" fill="#D97706"/>
<path d="M38.291 32.299C38.291 30.9093 39.1581 27.0808 40.2277 27.0808C41.2973 27.0808 42.1644 30.9093 42.1644 32.299C42.1644 33.6886 41.2973 34.8152 40.2277 34.8152C39.1581 34.8152 38.291 33.6886 38.291 32.299Z" fill="#D97706"/>
<path d="M42.1644 28.6345H38.3247L38.3247 24.1763H42.1644V28.6345Z" fill="#D97706"/>
<path d="M42.1981 59.4948C42.1981 60.8845 41.331 64.713 40.2614 64.713C39.1918 64.713 38.3247 60.8845 38.3247 59.4948C38.3247 58.1052 39.1918 56.9787 40.2614 56.9787C41.331 56.9787 42.1981 58.1052 42.1981 59.4948Z" fill="#D97706"/>
<path d="M38.3247 63.1594H42.1644V67.6176H38.3247V63.1594Z" fill="#D97706"/>
<path d="M38.291 58.8531C38.291 57.4635 39.1581 53.635 40.2277 53.635C41.2973 53.635 42.1644 57.4635 42.1644 58.8531C42.1644 60.2428 41.2973 61.3693 40.2277 61.3693C39.1581 61.3693 38.291 60.2428 38.291 58.8531Z" fill="#D97706"/>
<path d="M42.1644 55.1886H38.3247L38.3247 50.7304H42.1644V55.1886Z" fill="#D97706"/>
<path d="M53.7602 43.983C55.1461 43.983 58.964 44.8525 58.964 45.9251C58.964 46.9976 55.1461 47.8671 53.7602 47.8671C52.3744 47.8671 51.2509 46.9976 51.2509 45.9251C51.2509 44.8525 52.3744 43.983 53.7602 43.983Z" fill="#D97706"/>
<path d="M57.4147 47.8671V44.0168H61.8606V47.8671H57.4147Z" fill="#D97706"/>
<path d="M53.1203 47.9009C51.7344 47.9009 47.9165 47.0314 47.9165 45.9588C47.9165 44.8863 51.7344 44.0168 53.1203 44.0168C54.5061 44.0168 55.6295 44.8863 55.6295 45.9588C55.6295 47.0314 54.5061 47.9009 53.1203 47.9009Z" fill="#D97706"/>
<path d="M49.4658 44.0168V47.8671H45.0199V44.0168H49.4658Z" fill="#D97706"/>
<path d="M27.4961 43.983C28.8819 43.983 32.6999 44.8525 32.6999 45.9251C32.6999 46.9976 28.8819 47.8671 27.4961 47.8671C26.1103 47.8671 24.9868 46.9976 24.9868 45.9251C24.9868 44.8525 26.1103 43.983 27.4961 43.983Z" fill="#D97706"/>
<path d="M31.1505 47.8671V44.0168H35.5965V47.8671H31.1505Z" fill="#D97706"/>
<path d="M26.8561 47.9009C25.4703 47.9009 21.6523 47.0314 21.6523 45.9588C21.6523 44.8863 25.4703 44.0168 26.8561 44.0168C28.242 44.0168 29.3654 44.8863 29.3654 45.9588C29.3654 47.0314 28.242 47.9009 26.8561 47.9009Z" fill="#D97706"/>
<path d="M23.2017 44.0168V47.8671H18.7557V44.0168H23.2017Z" fill="#D97706"/>
<path d="M32.5083 35.3954C33.4882 36.3781 35.5748 39.7 34.8185 40.4584C34.0621 41.2168 30.7493 39.1245 29.7694 38.1419C28.7895 37.1592 28.6082 35.7478 29.3645 34.9894C30.1208 34.231 31.5283 34.4128 32.5083 35.3954Z" fill="#D97706"/>
<path d="M32.3535 40.7331L35.0685 38.0105L38.2123 41.1629L35.4972 43.8855L32.3535 40.7331Z" fill="#D97706"/>
<path d="M29.2931 37.712C28.3131 36.7294 26.2265 33.4074 26.9829 32.649C27.7392 31.8906 31.052 33.9829 32.0319 34.9656C33.0119 35.9482 33.1931 37.3596 32.4368 38.118C31.6805 38.8764 30.273 38.6946 29.2931 37.712Z" fill="#D97706"/>
<path d="M29.4479 32.3743L26.7328 35.0969L23.589 31.9445L26.3041 29.2219L29.4479 32.3743Z" fill="#D97706"/>
<path d="M51.2333 54.172C52.2132 55.1547 54.2998 58.4766 53.5435 59.235C52.7872 59.9934 49.4743 57.9011 48.4944 56.9185C47.5145 55.9358 47.3332 54.5245 48.0895 53.766C48.8459 53.0076 50.2534 53.1894 51.2333 54.172Z" fill="#D97706"/>
<path d="M51.0785 59.5097L53.7936 56.7871L56.9373 59.9396L54.2223 62.6621L51.0785 59.5097Z" fill="#D97706"/>
<path d="M48.0181 56.4886C47.0381 55.506 44.9516 52.184 45.7079 51.4256C46.4642 50.6672 49.777 52.7595 50.757 53.7422C51.7369 54.7248 51.9182 56.1362 51.1618 56.8946C50.4055 57.653 48.998 57.4712 48.0181 56.4886Z" fill="#D97706"/>
<path d="M48.1729 51.151L45.4578 53.8735L42.314 50.7211L45.0291 47.9985L48.1729 51.151Z" fill="#D97706"/>
<path d="M48.4706 35.0054C49.4505 34.0227 52.7634 31.9304 53.5197 32.6888C54.276 33.4472 52.1894 36.7692 51.2095 37.7518C50.2296 38.7344 48.822 38.9162 48.0657 38.1578C47.3094 37.3994 47.4907 35.988 48.4706 35.0054Z" fill="#D97706"/>
<path d="M53.7936 35.1606L51.0785 32.438L54.2223 29.2856L56.9373 32.0082L53.7936 35.1606Z" fill="#D97706"/>
<path d="M50.7808 38.2294C49.8009 39.2121 46.488 41.3044 45.7317 40.546C44.9754 39.7876 47.062 36.4656 48.0419 35.483C49.0218 34.5004 50.4293 34.3186 51.1857 35.077C51.942 35.8354 51.7607 37.2468 50.7808 38.2294Z" fill="#D97706"/>
<path d="M45.4578 38.0742L48.1729 40.7968L45.0291 43.9492L42.314 41.2266L45.4578 38.0742Z" fill="#D97706"/>
<path d="M29.8991 53.6281C30.879 52.6454 34.1918 50.5531 34.9481 51.3115C35.7045 52.0699 33.6179 55.3919 32.6379 56.3745C31.658 57.3571 30.2505 57.5389 29.4942 56.7805C28.7379 56.0221 28.9191 54.6107 29.8991 53.6281Z" fill="#D97706"/>
<path d="M35.222 53.7833L32.507 51.0608L35.6507 47.9083L38.3658 50.6309L35.222 53.7833Z" fill="#D97706"/>
<path d="M32.2092 56.8521C31.2293 57.8348 27.9165 59.9271 27.1602 59.1687C26.4038 58.4103 28.4904 55.0883 29.4704 54.1057C30.4503 53.1231 31.8578 52.9413 32.6141 53.6997C33.3705 54.4581 33.1892 55.8695 32.2092 56.8521Z" fill="#D97706"/>
<path d="M26.8863 56.6969L29.6013 59.4195L26.4576 62.5719L23.7425 59.8493L26.8863 56.6969Z" fill="#D97706"/>
<path fill-rule="evenodd" clip-rule="evenodd" d="M40.2498 64.3392C50.4395 64.3392 58.6998 56.0561 58.6998 45.8384C58.6998 35.6207 50.4395 27.3376 40.2498 27.3376C30.0602 27.3376 21.7998 35.6207 21.7998 45.8384C21.7998 56.0561 30.0602 64.3392 40.2498 64.3392ZM40.2498 71.7396C54.5153 71.7396 66.0798 60.1432 66.0798 45.8384C66.0798 31.5336 54.5153 19.9372 40.2498 19.9372C25.9843 19.9372 14.4198 31.5336 14.4198 45.8384C14.4198 60.1432 25.9843 71.7396 40.2498 71.7396Z" fill="#D97706"/>
<path fill-rule="evenodd" clip-rule="evenodd" d="M40.2446 50.0774C42.5223 50.0774 44.3687 48.2259 44.3687 45.9419C44.3687 43.658 42.5223 41.8065 40.2446 41.8065C37.9669 41.8065 36.1204 43.658 36.1204 45.9419C36.1204 48.2259 37.9669 50.0774 40.2446 50.0774ZM40.2446 53.9953C44.6801 53.9953 48.2757 50.3897 48.2757 45.9419C48.2757 41.4942 44.6801 37.8886 40.2446 37.8886C35.8091 37.8886 32.2134 41.4942 32.2134 45.9419C32.2134 50.3897 35.8091 53.9953 40.2446 53.9953Z" fill="#D97706"/>
<path fill-rule="evenodd" clip-rule="evenodd" d="M42.131 16.1735C42.8481 14.245 43.3093 11.6758 43.3093 10.404C43.3093 8.21614 41.9442 6.4425 40.2602 6.4425C38.5762 6.4425 37.211 8.21614 37.211 10.404C37.211 11.6758 37.6723 14.245 38.3893 16.1735H37.211V23.1926H43.2563V16.1735H42.131Z" fill="#D97706"/>
<path fill-rule="evenodd" clip-rule="evenodd" d="M38.3893 75.7115C37.6723 77.64 37.211 80.2092 37.211 81.481C37.211 83.6689 38.5762 85.4425 40.2602 85.4425C41.9442 85.4425 43.3093 83.6689 43.3093 81.481C43.3093 80.2092 42.8481 77.64 42.131 75.7115H43.3093V68.6924H37.264V75.7115H38.3893Z" fill="#D97706"/>
<path fill-rule="evenodd" clip-rule="evenodd" d="M70.0408 47.7248C71.9641 48.4438 74.5262 48.9063 75.7945 48.9063C77.9763 48.9063 79.7451 47.5374 79.7451 45.8488C79.7451 44.1601 77.9763 42.7912 75.7945 42.7912C74.5262 42.7912 71.9641 43.2537 70.0408 43.9727V42.7912H63.041V48.8532H70.0408V47.7248Z" fill="#D97706"/>
<path fill-rule="evenodd" clip-rule="evenodd" d="M10.4494 43.9727C8.52615 43.2537 5.96405 42.7912 4.69577 42.7912C2.51388 42.7912 0.745117 44.1601 0.745117 45.8488C0.745117 47.5374 2.51388 48.9063 4.69577 48.9063C5.96405 48.9063 8.52615 48.4438 10.4494 47.7248V48.9063H17.4492V42.8444H10.4494V43.9727Z" fill="#D97706"/>
<path fill-rule="evenodd" clip-rule="evenodd" d="M62.5707 26.2299C64.4376 25.3746 66.5755 23.885 67.4723 22.9857C69.0151 21.4386 69.3005 19.2165 68.1097 18.0225C66.919 16.8284 64.703 17.1146 63.1601 18.6617C62.2633 19.561 60.7778 21.7047 59.9249 23.5768L59.0917 22.7413L54.1421 27.7046L58.4167 31.991L63.3664 27.0278L62.5707 26.2299Z" fill="#D97706"/>
<path fill-rule="evenodd" clip-rule="evenodd" d="M17.9409 65.6765C16.0739 66.5318 13.936 68.0214 13.0392 68.9206C11.4964 70.4677 11.211 72.6898 12.4018 73.8839C13.5926 75.078 15.8086 74.7918 17.3514 73.2447C18.2482 72.3454 19.7337 70.2017 20.5867 68.3296L21.4198 69.165L26.3694 64.2018L22.0948 59.9154L17.1452 64.8786L17.9409 65.6765Z" fill="#D97706"/>
<path fill-rule="evenodd" clip-rule="evenodd" d="M60.0571 68.3296C60.91 70.2017 62.3955 72.3454 63.2923 73.2447C64.8352 74.7918 67.0512 75.078 68.2419 73.8839C69.4327 72.6898 69.1473 70.4677 67.6045 68.9206C66.7077 68.0214 64.5698 66.5318 62.7029 65.6765L63.5361 64.841L58.5864 59.8778L54.3118 64.1642L59.2614 69.1275L60.0571 68.3296Z" fill="#D97706"/>
<path fill-rule="evenodd" clip-rule="evenodd" d="M20.5654 23.4229C19.7124 21.5508 18.2269 19.407 17.3301 18.5078C15.7873 16.9607 13.5713 16.6745 12.3805 17.8686C11.1897 19.0626 11.4751 21.2847 13.018 22.8318C13.9148 23.7311 16.0526 25.2207 17.9196 26.076L17.0864 26.9114L22.036 31.8747L26.3107 27.5883L21.3611 22.625L20.5654 23.4229Z" fill="#D97706"/>
</svg>
