<svg width="329" height="45" viewBox="0 0 329 45" fill="none" xmlns="http://www.w3.org/2000/svg">
<path d="M29.2955 35V0.0909081H14.2273C11.6364 0.0909081 9.36932 0.562499 7.42614 1.50568C5.48295 2.44886 3.97159 3.80682 2.89205 5.57955C1.8125 7.35227 1.27273 9.47727 1.27273 11.9545C1.27273 14.375 1.79545 16.4261 2.84091 18.108C3.89773 19.7898 5.35227 21.0795 7.20455 21.9773L0.113636 35H10.4091L16.5455 23.4773H19.8182V35H29.2955ZM19.8182 16.1136H16.4773C14.8182 16.1136 13.517 15.7955 12.5739 15.1591C11.6307 14.5114 11.1591 13.4432 11.1591 11.9545C11.1591 10.4545 11.6307 9.36364 12.5739 8.68182C13.517 8 14.8182 7.65909 16.4773 7.65909H19.8182V16.1136ZM51.1307 14V21.0909H34.767V14H51.1307ZM56.5938 35V0.0909081H81.7528V7.72727H66.071V13.7273H80.4574V21.3636H66.071V27.3636H81.6847V35H56.5938ZM86.5895 35V8.81818H98.044C101.555 8.81818 104.317 9.41477 106.328 10.608C108.351 11.8011 109.362 13.5909 109.362 15.9773C109.362 17.2727 108.794 18.4205 107.658 19.4205C106.533 20.4205 104.896 21.0909 102.749 21.4318C104.726 21.5227 106.328 21.8864 107.555 22.5227C108.794 23.1477 109.697 23.9318 110.266 24.875C110.845 25.8068 111.135 26.7727 111.135 27.7727C111.135 30.1591 110.169 31.9602 108.237 33.1761C106.305 34.392 103.499 35 99.8168 35H86.5895ZM95.3168 28.3864H99.8168C100.578 28.3864 101.175 28.2045 101.607 27.8409C102.05 27.4773 102.271 26.9773 102.271 26.3409C102.271 25.6818 102.05 25.1648 101.607 24.7898C101.175 24.4148 100.578 24.2273 99.8168 24.2273H95.3168V28.3864ZM95.3168 19.4545H98.3168C99.8622 19.4545 100.635 18.8182 100.635 17.5455C100.635 16.9432 100.402 16.4773 99.9361 16.1477C99.4815 15.8068 98.8509 15.6364 98.044 15.6364H95.3168V19.4545ZM114.761 35V8.81818H139.17V35H130.307V15.8409H123.489V35H114.761ZM151.26 35.4091C148.76 35.4091 146.714 34.7898 145.124 33.5511C143.533 32.3011 142.737 30.375 142.737 27.7727C142.737 25.8523 143.163 24.3068 144.016 23.1364C144.868 21.9659 146.021 21.0909 147.476 20.5114C148.93 19.9318 150.555 19.5795 152.351 19.4545C154.555 19.2955 156.118 19.0625 157.038 18.7557C157.959 18.4375 158.419 17.8977 158.419 17.1364V17.0682C158.419 16.3864 158.158 15.8636 157.635 15.5C157.112 15.1364 156.442 14.9545 155.624 14.9545C154.726 14.9545 153.993 15.1534 153.425 15.5511C152.868 15.9375 152.533 16.5341 152.419 17.3409H143.76C143.874 15.75 144.379 14.2841 145.277 12.9432C146.186 11.5909 147.51 10.5114 149.249 9.70455C150.987 8.88636 153.158 8.47727 155.76 8.47727C158.26 8.47727 160.408 8.85795 162.203 9.61932C164.01 10.3807 165.396 11.4091 166.362 12.7045C167.339 14 167.828 15.4545 167.828 17.0682V35H159.033V31.3182H158.828C158.033 32.7841 156.999 33.8352 155.726 34.4716C154.453 35.0966 152.964 35.4091 151.26 35.4091ZM154.328 29.4773C155.396 29.4773 156.357 29.1534 157.209 28.5057C158.061 27.8466 158.487 26.9205 158.487 25.7273V23.5455C157.555 23.9318 156.305 24.25 154.737 24.5C153.646 24.6705 152.851 25 152.351 25.4886C151.851 25.9773 151.601 26.5568 151.601 27.2273C151.601 27.9545 151.857 28.5114 152.368 28.8977C152.879 29.2841 153.533 29.4773 154.328 29.4773ZM170.325 15.8409V8.81818H195.689V15.8409H187.371V35H178.507V15.8409H170.325ZM211.094 35.4773C208.253 35.4773 205.821 34.9148 203.798 33.7898C201.776 32.6534 200.224 31.0739 199.145 29.0511C198.065 27.017 197.526 24.6591 197.526 21.9773C197.526 19.2955 198.065 16.9432 199.145 14.9205C200.224 12.8864 201.776 11.3068 203.798 10.1818C205.821 9.04545 208.253 8.47727 211.094 8.47727C213.935 8.47727 216.366 9.04545 218.389 10.1818C220.412 11.3068 221.963 12.8864 223.043 14.9205C224.122 16.9432 224.662 19.2955 224.662 21.9773C224.662 24.6591 224.122 27.017 223.043 29.0511C221.963 31.0739 220.412 32.6534 218.389 33.7898C216.366 34.9148 213.935 35.4773 211.094 35.4773ZM211.162 28.5227C212.355 28.5227 213.298 27.9375 213.991 26.767C214.696 25.5852 215.048 23.9659 215.048 21.9091C215.048 19.8523 214.696 18.2386 213.991 17.0682C213.298 15.8864 212.355 15.2955 211.162 15.2955C209.901 15.2955 208.912 15.8864 208.196 17.0682C207.491 18.2386 207.139 19.8523 207.139 21.9091C207.139 23.9659 207.491 25.5852 208.196 26.767C208.912 27.9375 209.901 28.5227 211.162 28.5227ZM228.48 44.8182V8.81818H237.821V13.3864H238.026C238.537 12.0568 239.406 10.9091 240.634 9.94318C241.861 8.96591 243.446 8.47727 245.389 8.47727C247.116 8.47727 248.759 8.9375 250.315 9.85795C251.884 10.7784 253.156 12.2273 254.134 14.2045C255.122 16.1818 255.616 18.75 255.616 21.9091C255.616 24.9318 255.145 27.4375 254.202 29.4261C253.27 31.4148 252.02 32.8977 250.452 33.875C248.895 34.8523 247.185 35.3409 245.321 35.3409C243.48 35.3409 241.94 34.9034 240.702 34.0284C239.463 33.142 238.571 32.0341 238.026 30.7045H237.889V44.8182H228.48ZM237.685 21.9091C237.685 23.8182 238.054 25.3295 238.793 26.4432C239.531 27.5568 240.548 28.1136 241.844 28.1136C243.139 28.1136 244.145 27.5682 244.861 26.4773C245.577 25.375 245.935 23.8523 245.935 21.9091C245.935 19.9659 245.577 18.4489 244.861 17.358C244.145 16.2557 243.139 15.7045 241.844 15.7045C240.548 15.7045 239.531 16.2557 238.793 17.358C238.054 18.4489 237.685 19.9659 237.685 21.9091ZM268.422 23L275.717 8.81818H284.581V35H275.717V20.75L268.422 35H259.558V8.81818H268.422V23ZM304.439 35V26.3409H301.422L297.007 35H288.348L293.513 24.875C291.945 24.1364 290.734 23.1761 289.882 21.9943C289.03 20.8011 288.609 19.4545 288.621 17.9545C288.609 16.1818 289.098 14.608 290.087 13.233C291.087 11.858 292.507 10.7784 294.348 9.99432C296.2 9.21023 298.382 8.81818 300.893 8.81818H313.166V35H304.439ZM304.439 20.6818V15.8409H300.893C299.712 15.8409 298.842 16.1136 298.286 16.6591C297.729 17.2045 297.462 17.75 297.484 18.2955C297.462 18.875 297.746 19.4205 298.337 19.9318C298.928 20.4318 299.848 20.6818 301.098 20.6818H304.439ZM328.592 0.0909081L327.706 24.0909H319.933L319.047 0.0909081H328.592ZM323.82 35.5455C322.501 35.5455 321.371 35.0852 320.428 34.1648C319.496 33.233 319.036 32.1023 319.047 30.7727C319.036 29.4773 319.496 28.3693 320.428 27.4489C321.371 26.5284 322.501 26.0682 323.82 26.0682C325.07 26.0682 326.172 26.5284 327.126 27.4489C328.092 28.3693 328.581 29.4773 328.592 30.7727C328.581 32.1023 328.092 33.233 327.126 34.1648C326.172 35.0852 325.07 35.5455 323.82 35.5455Z" fill="#2B6CB0"/>
</svg>
