<svg width="437" height="95" viewBox="0 0 437 95" fill="none" xmlns="http://www.w3.org/2000/svg">
<path d="M121.781 26.1156V59.7156H114.101V50.7876H106.997L101.045 59.7156H92.8369L99.8449 49.5876C97.5729 48.6596 95.8289 47.2676 94.6129 45.4116C93.3969 43.5236 92.7889 41.2676 92.7889 38.6436C92.7889 36.0516 93.3809 33.8276 94.5649 31.9716C95.7489 30.0836 97.4289 28.6436 99.6049 27.6516C101.781 26.6276 104.341 26.1156 107.285 26.1156H121.781ZM107.477 32.4516C105.269 32.4516 103.573 32.9636 102.389 33.9876C101.237 35.0116 100.661 36.5316 100.661 38.5476C100.661 40.4996 101.221 42.0036 102.341 43.0596C103.461 44.1156 105.109 44.6436 107.285 44.6436H114.101V32.4516H107.477ZM128.519 43.2036H142.103V49.2036H128.519V43.2036ZM174.731 53.4756V59.7156H148.715V26.1156H174.107V32.3556H156.443V39.6516H172.043V45.6996H156.443V53.4756H174.731ZM200.163 46.2276C203.203 47.2516 204.723 49.2996 204.723 52.3716C204.723 54.7076 203.843 56.5156 202.083 57.7956C200.323 59.0756 197.699 59.7156 194.211 59.7156H180.435V33.8916H193.635C196.867 33.8916 199.395 34.4836 201.219 35.6676C203.043 36.8196 203.955 38.4516 203.955 40.5636C203.955 41.8436 203.619 42.9796 202.947 43.9716C202.307 44.9316 201.379 45.6836 200.163 46.2276ZM187.299 44.4996H192.963C195.587 44.4996 196.899 43.5716 196.899 41.7156C196.899 39.8916 195.587 38.9796 192.963 38.9796H187.299V44.4996ZM193.587 54.6276C196.339 54.6276 197.715 53.6836 197.715 51.7956C197.715 50.8036 197.395 50.0836 196.755 49.6356C196.115 49.1556 195.107 48.9156 193.731 48.9156H187.299V54.6276H193.587ZM235.975 33.8916V59.7156H228.487V40.0356H217.735V59.7156H210.295V33.8916H235.975ZM253.186 33.5076C257.186 33.5076 260.258 34.4676 262.402 36.3876C264.546 38.2756 265.618 41.1396 265.618 44.9796V59.7156H258.61V56.4996C257.202 58.8996 254.578 60.0996 250.738 60.0996C248.754 60.0996 247.026 59.7636 245.554 59.0916C244.114 58.4196 243.01 57.4916 242.242 56.3076C241.474 55.1236 241.09 53.7796 241.09 52.2756C241.09 49.8756 241.986 47.9876 243.778 46.6116C245.602 45.2356 248.402 44.5476 252.178 44.5476H258.13C258.13 42.9156 257.634 41.6676 256.642 40.8036C255.65 39.9076 254.162 39.4596 252.178 39.4596C250.802 39.4596 249.442 39.6836 248.098 40.1316C246.786 40.5476 245.666 41.1236 244.738 41.8596L242.05 36.6276C243.458 35.6356 245.138 34.8676 247.09 34.3236C249.074 33.7796 251.106 33.5076 253.186 33.5076ZM252.61 55.0596C253.89 55.0596 255.026 54.7716 256.018 54.1956C257.01 53.5876 257.714 52.7076 258.13 51.5556V48.9156H252.994C249.922 48.9156 248.386 49.9236 248.386 51.9396C248.386 52.8996 248.754 53.6676 249.49 54.2436C250.258 54.7876 251.298 55.0596 252.61 55.0596ZM293.819 40.0356H285.083V59.7156H277.643V40.0356H268.907V33.8916H293.819V40.0356ZM308.828 60.0996C306.108 60.0996 303.66 59.5396 301.484 58.4196C299.34 57.2676 297.66 55.6836 296.444 53.6676C295.228 51.6516 294.62 49.3636 294.62 46.8036C294.62 44.2436 295.228 41.9556 296.444 39.9396C297.66 37.9236 299.34 36.3556 301.484 35.2356C303.66 34.0836 306.108 33.5076 308.828 33.5076C311.548 33.5076 313.98 34.0836 316.124 35.2356C318.268 36.3556 319.948 37.9236 321.164 39.9396C322.38 41.9556 322.988 44.2436 322.988 46.8036C322.988 49.3636 322.38 51.6516 321.164 53.6676C319.948 55.6836 318.268 57.2676 316.124 58.4196C313.98 59.5396 311.548 60.0996 308.828 60.0996ZM308.828 53.9556C310.748 53.9556 312.316 53.3156 313.532 52.0356C314.78 50.7236 315.404 48.9796 315.404 46.8036C315.404 44.6276 314.78 42.8996 313.532 41.6196C312.316 40.3076 310.748 39.6516 308.828 39.6516C306.908 39.6516 305.324 40.3076 304.076 41.6196C302.828 42.8996 302.204 44.6276 302.204 46.8036C302.204 48.9796 302.828 50.7236 304.076 52.0356C305.324 53.3156 306.908 53.9556 308.828 53.9556ZM343.355 33.5076C345.755 33.5076 347.931 34.0676 349.883 35.1876C351.867 36.2756 353.419 37.8276 354.539 39.8436C355.659 41.8276 356.219 44.1476 356.219 46.8036C356.219 49.4596 355.659 51.7956 354.539 53.8116C353.419 55.7956 351.867 57.3476 349.883 58.4676C347.931 59.5556 345.755 60.0996 343.355 60.0996C340.059 60.0996 337.467 59.0596 335.579 56.9796V69.0276H328.091V33.8916H335.243V36.8676C337.099 34.6276 339.803 33.5076 343.355 33.5076ZM342.059 53.9556C343.979 53.9556 345.547 53.3156 346.763 52.0356C348.011 50.7236 348.635 48.9796 348.635 46.8036C348.635 44.6276 348.011 42.8996 346.763 41.6196C345.547 40.3076 343.979 39.6516 342.059 39.6516C340.139 39.6516 338.555 40.3076 337.307 41.6196C336.091 42.8996 335.483 44.6276 335.483 46.8036C335.483 48.9796 336.091 50.7236 337.307 52.0356C338.555 53.3156 340.139 53.9556 342.059 53.9556ZM361.467 33.8916H368.907V49.2516L381.483 33.8916H388.347V59.7156H380.907V44.3556L368.379 59.7156H361.467V33.8916ZM418.489 33.8916V59.7156H411.817V52.3236H406.297L401.401 59.7156H393.433L399.337 51.2676C397.545 50.5636 396.169 49.5556 395.209 48.2436C394.281 46.8996 393.817 45.2836 393.817 43.3956C393.817 40.3556 394.905 38.0196 397.081 36.3876C399.289 34.7236 402.313 33.8916 406.153 33.8916H418.489ZM406.297 39.9876C404.697 39.9876 403.481 40.2756 402.649 40.8516C401.849 41.4276 401.449 42.3556 401.449 43.6356C401.449 44.9156 401.833 45.8596 402.601 46.4676C403.401 47.0436 404.601 47.3316 406.201 47.3316H411.817V39.9876H406.297ZM424.581 26.1156H433.509L432.021 48.0516H426.069L424.581 26.1156ZM429.045 60.0996C427.733 60.0996 426.629 59.6836 425.733 58.8516C424.869 57.9876 424.437 56.9476 424.437 55.7316C424.437 54.5156 424.869 53.5076 425.733 52.7076C426.597 51.8756 427.701 51.4596 429.045 51.4596C430.389 51.4596 431.493 51.8756 432.357 52.7076C433.221 53.5076 433.653 54.5156 433.653 55.7316C433.653 56.9476 433.205 57.9876 432.309 58.8516C431.445 59.6836 430.357 60.0996 429.045 60.0996Z" fill="#1E293B"/>
<path d="M95.2431 84.1698L98.4271 78.8418C98.7311 78.3458 99.0511 77.6898 99.3871 76.8898H99.4191L99.2911 78.8418V84.1698H102.091V72.7298H99.2591L96.0911 78.0738C95.7871 78.5698 95.4671 79.2258 95.1311 80.0258H95.0991L95.2271 78.0738V72.7298H92.4271V84.1698H95.2431ZM108.89 84.1698V79.6898H113.05V84.1698H115.85V72.7298H113.05V77.3058H108.89V72.7298H106.09V84.1698H108.89ZM125.126 84.1698V75.1298H128.598V72.7298H118.854V75.1298H122.326V84.1698H125.126ZM138.994 84.1698V81.7698H134.402V79.6098H137.89V77.2098H134.402V75.1298H138.77V72.7298H131.602V84.1698H138.994ZM145.221 84.1698V80.6338H147.173C148.277 80.6338 149.173 80.2658 149.861 79.5298C150.549 78.7778 150.901 77.8338 150.901 76.6658C150.901 75.5138 150.549 74.5698 149.861 73.8338C149.173 73.0978 148.277 72.7298 147.173 72.7298H142.421V84.1698H145.221ZM145.221 75.1298H146.645C147.541 75.1298 148.053 75.7218 148.053 76.6658C148.053 77.6098 147.541 78.2338 146.597 78.2338H145.221V75.1298ZM156.821 84.1698V79.6898H160.981V84.1698H163.781V72.7298H160.981V77.3058H156.821V72.7298H154.021V84.1698H156.821ZM175.169 84.1698V81.7698H170.577V79.6098H174.065V77.2098H170.577V75.1298H174.945V72.7298H167.777V84.1698H175.169ZM183.876 84.1698V75.1298H187.348V72.7298H177.604V75.1298H181.076V84.1698H183.876ZM194.183 80.7778V78.3778H189.159V80.7778H194.183ZM200.721 84.1698V79.6898H204.881V84.1698H207.681V72.7298H204.881V77.3058H200.721V72.7298H197.921V84.1698H200.721ZM213.309 84.1698L213.997 81.7698H217.565L218.269 84.1698H221.149L217.261 72.7298H214.317L210.429 84.1698H213.309ZM215.309 77.3058C215.453 76.8258 215.597 76.1698 215.773 75.3378H215.805L216.269 77.3058L216.909 79.5298H214.653L215.309 77.3058ZM228.11 84.1698C229.374 84.1698 230.414 83.8978 231.23 83.3378C232.046 82.7778 232.462 81.9298 232.462 80.7618C232.462 79.6258 231.886 78.5538 230.67 78.1858V78.1538C231.502 77.6578 231.998 76.6978 231.998 75.7218C231.998 73.8018 230.462 72.7298 228.11 72.7298H223.902V84.1698H228.11ZM226.702 75.1298H228.094C228.798 75.1298 229.15 75.5298 229.15 76.1058C229.15 76.6978 228.798 77.1618 228.142 77.1618H226.702V75.1298ZM226.702 79.4018H228.398C229.182 79.4018 229.598 79.8818 229.598 80.5698C229.598 81.2578 229.15 81.7698 228.382 81.7698H226.702V79.4018ZM238.677 84.1698L241.861 78.8418C242.165 78.3458 242.485 77.6898 242.821 76.8898H242.853L242.725 78.8418V84.1698H245.525V72.7298H242.693L239.525 78.0738C239.221 78.5698 238.901 79.2258 238.565 80.0258H238.533L238.661 78.0738V72.7298H235.861V84.1698H238.677ZM252.324 84.1698V75.1298H256.532V72.7298H249.524V84.1698H252.324ZM260.256 84.1698L260.944 81.7698H264.512L265.216 84.1698H268.096L264.208 72.7298H261.264L257.376 84.1698H260.256ZM262.256 77.3058C262.4 76.8258 262.544 76.1698 262.72 75.3378H262.752L263.216 77.3058L263.856 79.5298H261.6L262.256 77.3058ZM275.223 84.1698V75.1298H278.695V72.7298H268.951V75.1298H272.423V84.1698H275.223ZM280.809 78.3778C280.809 80.0738 281.369 81.4978 282.505 82.6498C283.641 83.7858 285.081 84.3618 286.793 84.3618C288.505 84.3618 289.929 83.7858 291.065 82.6498C292.201 81.4978 292.777 80.0738 292.777 78.3778C292.777 76.7298 292.201 75.3378 291.065 74.2178C289.929 73.0978 288.505 72.5378 286.793 72.5378C285.081 72.5378 283.641 73.0978 282.505 74.2178C281.369 75.3378 280.809 76.7298 280.809 78.3778ZM283.705 78.3778C283.705 77.4498 284.009 76.6658 284.601 76.0418C285.193 75.4178 285.929 75.0978 286.793 75.0978C287.657 75.0978 288.393 75.4178 288.985 76.0418C289.577 76.6658 289.881 77.4498 289.881 78.3778C289.881 79.3538 289.577 80.1698 288.985 80.8258C288.393 81.4818 287.657 81.8018 286.793 81.8018C285.929 81.8018 285.193 81.4818 284.601 80.8258C284.009 80.1698 283.705 79.3538 283.705 78.3778ZM298.958 84.1698V80.6338H300.91C302.014 80.6338 302.91 80.2658 303.598 79.5298C304.286 78.7778 304.638 77.8338 304.638 76.6658C304.638 75.5138 304.286 74.5698 303.598 73.8338C302.91 73.0978 302.014 72.7298 300.91 72.7298H296.158V84.1698H298.958ZM298.958 75.1298H300.382C301.278 75.1298 301.79 75.7218 301.79 76.6658C301.79 77.6098 301.278 78.2338 300.334 78.2338H298.958V75.1298Z" fill="#D97706"/>
<path d="M41.68 32.6677C41.68 34.0574 40.8129 37.8859 39.7433 37.8859C38.6737 37.8859 37.8066 34.0574 37.8066 32.6677C37.8066 31.2781 38.6737 30.1516 39.7433 30.1516C40.8129 30.1516 41.68 31.2781 41.68 32.6677Z" fill="#D97706"/>
<path d="M37.8066 36.3323H41.6463V40.7905H37.8066V36.3323Z" fill="#D97706"/>
<path d="M37.773 32.026C37.773 30.6364 38.6401 26.8079 39.7097 26.8079C40.7793 26.8079 41.6463 30.6364 41.6463 32.026C41.6463 33.4157 40.7793 34.5422 39.7097 34.5422C38.6401 34.5422 37.773 33.4157 37.773 32.026Z" fill="#D97706"/>
<path d="M41.6463 28.3615H37.8066L37.8067 23.9033H41.6463V28.3615Z" fill="#D97706"/>
<path d="M41.68 59.2219C41.68 60.6115 40.8129 64.44 39.7433 64.44C38.6737 64.44 37.8066 60.6115 37.8066 59.2219C37.8066 57.8322 38.6737 56.7057 39.7433 56.7057C40.8129 56.7057 41.68 57.8322 41.68 59.2219Z" fill="#D97706"/>
<path d="M37.8066 62.8864H41.6463V67.3446H37.8066V62.8864Z" fill="#D97706"/>
<path d="M37.773 58.5802C37.773 57.1905 38.6401 53.362 39.7097 53.362C40.7793 53.362 41.6463 57.1905 41.6463 58.5802C41.6463 59.9698 40.7793 61.0964 39.7097 61.0964C38.6401 61.0964 37.773 59.9698 37.773 58.5802Z" fill="#D97706"/>
<path d="M41.6463 54.9157H37.8066L37.8067 50.4575H41.6463V54.9157Z" fill="#D97706"/>
<path d="M53.2422 43.7101C54.628 43.7101 58.4459 44.5796 58.4459 45.6521C58.4459 46.7247 54.628 47.5941 53.2422 47.5941C51.8563 47.5941 50.7329 46.7247 50.7329 45.6521C50.7329 44.5796 51.8563 43.7101 53.2422 43.7101Z" fill="#D97706"/>
<path d="M56.8966 47.5941V43.7439H61.3426V47.5941H56.8966Z" fill="#D97706"/>
<path d="M52.6022 47.6279C51.2164 47.6279 47.3984 46.7584 47.3984 45.6859C47.3984 44.6133 51.2164 43.7439 52.6022 43.7439C53.988 43.7439 55.1115 44.6133 55.1115 45.6859C55.1115 46.7584 53.988 47.6279 52.6022 47.6279Z" fill="#D97706"/>
<path d="M48.9478 43.7439V47.5941H44.5018V43.7439H48.9478Z" fill="#D97706"/>
<path d="M26.978 43.7101C28.3639 43.7101 32.1818 44.5796 32.1818 45.6521C32.1818 46.7247 28.3639 47.5941 26.978 47.5941C25.5922 47.5941 24.4688 46.7247 24.4688 45.6521C24.4688 44.5796 25.5922 43.7101 26.978 43.7101Z" fill="#D97706"/>
<path d="M30.6325 47.5941V43.7439H35.0784V47.5941H30.6325Z" fill="#D97706"/>
<path d="M26.3381 47.6279C24.9522 47.6279 21.1343 46.7584 21.1343 45.6859C21.1343 44.6133 24.9522 43.7439 26.3381 43.7439C27.7239 43.7439 28.8474 44.6133 28.8474 45.6859C28.8474 46.7584 27.7239 47.6279 26.3381 47.6279Z" fill="#D97706"/>
<path d="M22.6836 43.7439V47.5941H18.2377V43.7439H22.6836Z" fill="#D97706"/>
<path d="M31.9902 35.1225C32.9701 36.1051 35.0567 39.4271 34.3004 40.1855C33.5441 40.9439 30.2312 38.8515 29.2513 37.8689C28.2714 36.8863 28.0901 35.4749 28.8464 34.7165C29.6028 33.9581 31.0103 34.1399 31.9902 35.1225Z" fill="#D97706"/>
<path d="M31.8354 40.4601L34.5505 37.7376L37.6942 40.89L34.9792 43.6126L31.8354 40.4601Z" fill="#D97706"/>
<path d="M28.775 37.439C27.7951 36.4564 25.7085 33.1344 26.4648 32.376C27.2211 31.6176 30.5339 33.71 31.5139 34.6926C32.4938 35.6752 32.6751 37.0866 31.9188 37.845C31.1624 38.6034 29.7549 38.4217 28.775 37.439Z" fill="#D97706"/>
<path d="M28.9298 32.1014L26.2147 34.824L23.071 31.6715L25.786 28.949L28.9298 32.1014Z" fill="#D97706"/>
<path d="M50.7152 53.8991C51.6952 54.8817 53.7818 58.2037 53.0254 58.9621C52.2691 59.7205 48.9563 57.6282 47.9763 56.6455C46.9964 55.6629 46.8151 54.2515 47.5715 53.4931C48.3278 52.7347 49.7353 52.9165 50.7152 53.8991Z" fill="#D97706"/>
<path d="M50.5604 59.2367L53.2755 56.5142L56.4193 59.6666L53.7042 62.3892L50.5604 59.2367Z" fill="#D97706"/>
<path d="M47.5 56.2157C46.5201 55.233 44.4335 51.9111 45.1898 51.1527C45.9461 50.3942 49.259 52.4866 50.2389 53.4692C51.2188 54.4518 51.4001 55.8632 50.6438 56.6216C49.8875 57.3801 48.4799 57.1983 47.5 56.2157Z" fill="#D97706"/>
<path d="M47.6548 50.878L44.9397 53.6006L41.796 50.4481L44.511 47.7256L47.6548 50.878Z" fill="#D97706"/>
<path d="M47.9525 34.7324C48.9325 33.7498 52.2453 31.6574 53.0016 32.4159C53.7579 33.1743 51.6713 36.4962 50.6914 37.4788C49.7115 38.4615 48.304 38.6433 47.5477 37.8848C46.7913 37.1264 46.9726 35.715 47.9525 34.7324Z" fill="#D97706"/>
<path d="M53.2755 34.8876L50.5604 32.1651L53.7042 29.0127L56.4193 31.7352L53.2755 34.8876Z" fill="#D97706"/>
<path d="M50.2627 37.9565C49.2828 38.9391 45.97 41.0315 45.2136 40.2731C44.4573 39.5146 46.5439 36.1927 47.5238 35.2101C48.5038 34.2274 49.9113 34.0457 50.6676 34.8041C51.4239 35.5625 51.2427 36.9739 50.2627 37.9565Z" fill="#D97706"/>
<path d="M44.9397 37.8013L47.6548 40.5238L44.5111 43.6762L41.796 40.9537L44.9397 37.8013Z" fill="#D97706"/>
<path d="M29.381 53.3551C30.3609 52.3725 33.6738 50.2802 34.4301 51.0386C35.1864 51.797 33.0998 55.1189 32.1199 56.1016C31.1399 57.0842 29.7324 57.266 28.9761 56.5076C28.2198 55.7491 28.4011 54.3378 29.381 53.3551Z" fill="#D97706"/>
<path d="M34.704 53.5104L31.9889 50.7878L35.1327 47.6354L37.8477 50.3579L34.704 53.5104Z" fill="#D97706"/>
<path d="M31.6912 56.5792C30.7112 57.5618 27.3984 59.6542 26.6421 58.8958C25.8858 58.1373 27.9724 54.8154 28.9523 53.8328C29.9322 52.8501 31.3397 52.6684 32.0961 53.4268C32.8524 54.1852 32.6711 55.5966 31.6912 56.5792Z" fill="#D97706"/>
<path d="M26.3682 56.424L29.0833 59.1465L25.9395 62.2989L23.2244 59.5764L26.3682 56.424Z" fill="#D97706"/>
<path fill-rule="evenodd" clip-rule="evenodd" d="M39.7318 64.0663C49.9214 64.0663 58.1818 55.7832 58.1818 45.5655C58.1818 35.3477 49.9214 27.0646 39.7318 27.0646C29.5421 27.0646 21.2818 35.3477 21.2818 45.5655C21.2818 55.7832 29.5421 64.0663 39.7318 64.0663ZM39.7318 71.4666C53.9973 71.4666 65.5618 59.8703 65.5618 45.5655C65.5618 31.2606 53.9973 19.6643 39.7318 19.6643C25.4662 19.6643 13.9018 31.2606 13.9018 45.5655C13.9018 59.8703 25.4662 71.4666 39.7318 71.4666Z" fill="#D97706"/>
<path fill-rule="evenodd" clip-rule="evenodd" d="M39.7265 49.8045C42.0042 49.8045 43.8506 47.953 43.8506 45.669C43.8506 43.385 42.0042 41.5335 39.7265 41.5335C37.4488 41.5335 35.6024 43.385 35.6024 45.669C35.6024 47.953 37.4488 49.8045 39.7265 49.8045ZM39.7265 53.7223C44.162 53.7223 47.7577 50.1167 47.7577 45.669C47.7577 41.2213 44.162 37.6157 39.7265 37.6157C35.291 37.6157 31.6953 41.2213 31.6953 45.669C31.6953 50.1167 35.291 53.7223 39.7265 53.7223Z" fill="#D97706"/>
<path fill-rule="evenodd" clip-rule="evenodd" d="M41.613 15.9006C42.33 13.972 42.7913 11.4029 42.7913 10.1311C42.7913 7.9432 41.4261 6.16956 39.7421 6.16956C38.0581 6.16956 36.6929 7.9432 36.6929 10.1311C36.6929 11.4029 37.1542 13.972 37.8712 15.9006H36.6929V22.9197H42.7382V15.9006H41.613Z" fill="#D97706"/>
<path fill-rule="evenodd" clip-rule="evenodd" d="M37.8712 75.4385C37.1542 77.3671 36.6929 79.9362 36.6929 81.208C36.6929 83.3959 38.0581 85.1696 39.7421 85.1696C41.4261 85.1696 42.7913 83.3959 42.7913 81.208C42.7913 79.9362 42.33 77.3671 41.613 75.4385H42.7913V68.4194H36.746V75.4385H37.8712Z" fill="#D97706"/>
<path fill-rule="evenodd" clip-rule="evenodd" d="M69.5228 47.4518C71.446 48.1708 74.0081 48.6334 75.2764 48.6334C77.4583 48.6334 79.2271 47.2645 79.2271 45.5758C79.2271 43.8872 77.4583 42.5183 75.2764 42.5183C74.0081 42.5183 71.446 42.9808 69.5228 43.6998V42.5183H62.523V48.5802H69.5228V47.4518Z" fill="#D97706"/>
<path fill-rule="evenodd" clip-rule="evenodd" d="M9.93133 43.6998C8.00808 42.9808 5.44598 42.5183 4.1777 42.5183C1.99582 42.5183 0.227051 43.8872 0.227051 45.5758C0.227051 47.2645 1.99582 48.6334 4.1777 48.6334C5.44598 48.6334 8.00808 48.1708 9.93133 47.4518V48.6334H16.9311V42.5714H9.93133V43.6998Z" fill="#D97706"/>
<path fill-rule="evenodd" clip-rule="evenodd" d="M62.0526 25.9569C63.9196 25.1017 66.0574 23.612 66.9542 22.7128C68.4971 21.1657 68.7824 18.9436 67.5917 17.7495C66.4009 16.5555 64.1849 16.8416 62.6421 18.3887C61.7453 19.288 60.2597 21.4317 59.4068 23.3038L58.5736 22.4684L53.624 27.4316L57.8987 31.7181L62.8483 26.7548L62.0526 25.9569Z" fill="#D97706"/>
<path fill-rule="evenodd" clip-rule="evenodd" d="M17.4228 65.4035C15.5558 66.2588 13.418 67.7484 12.5212 68.6477C10.9783 70.1948 10.693 72.4169 11.8837 73.611C13.0745 74.805 15.2905 74.5188 16.8333 72.9717C17.7301 72.0725 19.2157 69.9287 20.0686 68.0566L20.9018 68.8921L25.8514 63.9289L21.5767 59.6424L16.6271 64.6057L17.4228 65.4035Z" fill="#D97706"/>
<path fill-rule="evenodd" clip-rule="evenodd" d="M59.539 68.0566C60.3919 69.9287 61.8775 72.0725 62.7743 72.9717C64.3171 74.5188 66.5331 74.805 67.7239 73.611C68.9146 72.4169 68.6292 70.1948 67.0864 68.6477C66.1896 67.7484 64.0518 66.2588 62.1848 65.4035L63.018 64.5681L58.0684 59.6048L53.7937 63.8913L58.7433 68.8545L59.539 68.0566Z" fill="#D97706"/>
<path fill-rule="evenodd" clip-rule="evenodd" d="M20.0473 23.1499C19.1944 21.2778 17.7089 19.1341 16.8121 18.2348C15.2692 16.6877 13.0532 16.4016 11.8624 17.5956C10.6717 18.7897 10.9571 21.0118 12.4999 22.5589C13.3967 23.4581 15.5345 24.9477 17.4015 25.803L16.5683 26.6385L21.5179 31.6017L25.7926 27.3153L20.843 22.3521L20.0473 23.1499Z" fill="#D97706"/>
</svg>
