<svg width="347" height="94" viewBox="0 0 347 94" fill="none" xmlns="http://www.w3.org/2000/svg">
<path d="M31.5539 25.4V59H23.8739V50.072H16.7699L10.8179 59H2.6099L9.6179 48.872C7.3459 47.944 5.6019 46.552 4.3859 44.696C3.1699 42.808 2.5619 40.552 2.5619 37.928C2.5619 35.336 3.1539 33.112 4.3379 31.256C5.5219 29.368 7.2019 27.928 9.3779 26.936C11.5539 25.912 14.1139 25.4 17.0579 25.4H31.5539ZM17.2499 31.736C15.0419 31.736 13.3459 32.248 12.1619 33.272C11.0099 34.296 10.4339 35.816 10.4339 37.832C10.4339 39.784 10.9939 41.288 12.1139 42.344C13.2339 43.4 14.8819 43.928 17.0579 43.928H23.8739V31.736H17.2499ZM38.2919 42.488H51.8759V48.488H38.2919V42.488ZM84.5035 52.76V59H58.4875V25.4H83.8795V31.64H66.2155V38.936H81.8155V44.984H66.2155V52.76H84.5035ZM109.936 45.512C112.976 46.536 114.496 48.584 114.496 51.656C114.496 53.992 113.616 55.8 111.856 57.08C110.096 58.36 107.472 59 103.984 59H90.2084V33.176H103.408C106.64 33.176 109.168 33.768 110.992 34.952C112.816 36.104 113.728 37.736 113.728 39.848C113.728 41.128 113.392 42.264 112.72 43.256C112.08 44.216 111.152 44.968 109.936 45.512ZM97.0724 43.784H102.736C105.36 43.784 106.672 42.856 106.672 41C106.672 39.176 105.36 38.264 102.736 38.264H97.0724V43.784ZM103.36 53.912C106.112 53.912 107.488 52.968 107.488 51.08C107.488 50.088 107.168 49.368 106.528 48.92C105.888 48.44 104.88 48.2 103.504 48.2H97.0724V53.912H103.36ZM145.748 33.176V59H138.26V39.32H127.508V59H120.068V33.176H145.748ZM162.959 32.792C166.959 32.792 170.031 33.752 172.175 35.672C174.319 37.56 175.391 40.424 175.391 44.264V59H168.383V55.784C166.975 58.184 164.351 59.384 160.511 59.384C158.527 59.384 156.799 59.048 155.327 58.376C153.887 57.704 152.783 56.776 152.015 55.592C151.247 54.408 150.863 53.064 150.863 51.56C150.863 49.16 151.759 47.272 153.551 45.896C155.375 44.52 158.175 43.832 161.951 43.832H167.903C167.903 42.2 167.407 40.952 166.415 40.088C165.423 39.192 163.935 38.744 161.951 38.744C160.575 38.744 159.215 38.968 157.871 39.416C156.559 39.832 155.439 40.408 154.511 41.144L151.823 35.912C153.231 34.92 154.911 34.152 156.863 33.608C158.847 33.064 160.879 32.792 162.959 32.792ZM162.383 54.344C163.663 54.344 164.799 54.056 165.791 53.48C166.783 52.872 167.487 51.992 167.903 50.84V48.2H162.767C159.695 48.2 158.159 49.208 158.159 51.224C158.159 52.184 158.527 52.952 159.263 53.528C160.031 54.072 161.071 54.344 162.383 54.344ZM203.592 39.32H194.856V59H187.416V39.32H178.68V33.176H203.592V39.32ZM218.601 59.384C215.881 59.384 213.433 58.824 211.257 57.704C209.113 56.552 207.433 54.968 206.217 52.952C205.001 50.936 204.393 48.648 204.393 46.088C204.393 43.528 205.001 41.24 206.217 39.224C207.433 37.208 209.113 35.64 211.257 34.52C213.433 33.368 215.881 32.792 218.601 32.792C221.321 32.792 223.753 33.368 225.897 34.52C228.041 35.64 229.721 37.208 230.937 39.224C232.153 41.24 232.761 43.528 232.761 46.088C232.761 48.648 232.153 50.936 230.937 52.952C229.721 54.968 228.041 56.552 225.897 57.704C223.753 58.824 221.321 59.384 218.601 59.384ZM218.601 53.24C220.521 53.24 222.089 52.6 223.305 51.32C224.553 50.008 225.177 48.264 225.177 46.088C225.177 43.912 224.553 42.184 223.305 40.904C222.089 39.592 220.521 38.936 218.601 38.936C216.681 38.936 215.097 39.592 213.849 40.904C212.601 42.184 211.977 43.912 211.977 46.088C211.977 48.264 212.601 50.008 213.849 51.32C215.097 52.6 216.681 53.24 218.601 53.24ZM253.128 32.792C255.528 32.792 257.704 33.352 259.656 34.472C261.64 35.56 263.192 37.112 264.312 39.128C265.432 41.112 265.992 43.432 265.992 46.088C265.992 48.744 265.432 51.08 264.312 53.096C263.192 55.08 261.64 56.632 259.656 57.752C257.704 58.84 255.528 59.384 253.128 59.384C249.832 59.384 247.24 58.344 245.352 56.264V68.312H237.864V33.176H245.016V36.152C246.872 33.912 249.576 32.792 253.128 32.792ZM251.832 53.24C253.752 53.24 255.32 52.6 256.536 51.32C257.784 50.008 258.408 48.264 258.408 46.088C258.408 43.912 257.784 42.184 256.536 40.904C255.32 39.592 253.752 38.936 251.832 38.936C249.912 38.936 248.328 39.592 247.08 40.904C245.864 42.184 245.256 43.912 245.256 46.088C245.256 48.264 245.864 50.008 247.08 51.32C248.328 52.6 249.912 53.24 251.832 53.24ZM271.24 33.176H278.68V48.536L291.256 33.176H298.12V59H290.68V43.64L278.152 59H271.24V33.176ZM328.262 33.176V59H321.59V51.608H316.07L311.174 59H303.206L309.11 50.552C307.318 49.848 305.942 48.84 304.982 47.528C304.054 46.184 303.59 44.568 303.59 42.68C303.59 39.64 304.678 37.304 306.854 35.672C309.062 34.008 312.086 33.176 315.926 33.176H328.262ZM316.07 39.272C314.47 39.272 313.254 39.56 312.422 40.136C311.622 40.712 311.222 41.64 311.222 42.92C311.222 44.2 311.606 45.144 312.374 45.752C313.174 46.328 314.374 46.616 315.974 46.616H321.59V39.272H316.07ZM334.354 25.4H343.282L341.794 47.336H335.842L334.354 25.4ZM338.818 59.384C337.506 59.384 336.402 58.968 335.506 58.136C334.642 57.272 334.21 56.232 334.21 55.016C334.21 53.8 334.642 52.792 335.506 51.992C336.37 51.16 337.474 50.744 338.818 50.744C340.162 50.744 341.266 51.16 342.13 51.992C342.994 52.792 343.426 53.8 343.426 55.016C343.426 56.232 342.978 57.272 342.082 58.136C341.218 58.968 340.13 59.384 338.818 59.384Z" fill="#1E293B"/>
<path d="M5.016 83.4542L8.2 78.1262C8.504 77.6302 8.824 76.9742 9.16 76.1742H9.192L9.064 78.1262V83.4542H11.864V72.0142H9.032L5.864 77.3582C5.56 77.8542 5.24 78.5102 4.904 79.3102H4.872L5 77.3582V72.0142H2.2V83.4542H5.016ZM18.6625 83.4542V78.9742H22.8225V83.4542H25.6225V72.0142H22.8225V76.5902H18.6625V72.0142H15.8625V83.4542H18.6625ZM34.8988 83.4542V74.4142H38.3708V72.0142H28.6268V74.4142H32.0988V83.4542H34.8988ZM48.767 83.4542V81.0542H44.175V78.8942H47.663V76.4942H44.175V74.4142H48.543V72.0142H41.375V83.4542H48.767ZM54.9938 83.4542V79.9182H56.9458C58.0498 79.9182 58.9458 79.5502 59.6338 78.8142C60.3218 78.0622 60.6738 77.1182 60.6738 75.9502C60.6738 74.7982 60.3218 73.8542 59.6338 73.1182C58.9458 72.3822 58.0498 72.0142 56.9458 72.0142H52.1938V83.4542H54.9938ZM54.9938 74.4142H56.4178C57.3138 74.4142 57.8258 75.0062 57.8258 75.9502C57.8258 76.8942 57.3138 77.5182 56.3698 77.5182H54.9938V74.4142ZM66.5938 83.4542V78.9742H70.7538V83.4542H73.5538V72.0142H70.7538V76.5902H66.5938V72.0142H63.7938V83.4542H66.5938ZM84.942 83.4542V81.0542H80.35V78.8942H83.838V76.4942H80.35V74.4142H84.718V72.0142H77.55V83.4542H84.942ZM93.6487 83.4542V74.4142H97.1207V72.0142H87.3767V74.4142H90.8487V83.4542H93.6487ZM103.956 80.0622V77.6622H98.9315V80.0622H103.956ZM110.494 83.4542V78.9742H114.654V83.4542H117.454V72.0142H114.654V76.5902H110.494V72.0142H107.694V83.4542H110.494ZM123.082 83.4542L123.77 81.0542H127.338L128.042 83.4542H130.922L127.034 72.0142H124.09L120.202 83.4542H123.082ZM125.082 76.5902C125.226 76.1102 125.37 75.4542 125.546 74.6222H125.578L126.042 76.5902L126.682 78.8142H124.426L125.082 76.5902ZM137.883 83.4542C139.147 83.4542 140.187 83.1822 141.003 82.6222C141.819 82.0622 142.235 81.2142 142.235 80.0462C142.235 78.9102 141.659 77.8382 140.443 77.4702V77.4382C141.275 76.9422 141.771 75.9822 141.771 75.0062C141.771 73.0862 140.235 72.0142 137.883 72.0142H133.675V83.4542H137.883ZM136.475 74.4142H137.867C138.571 74.4142 138.923 74.8142 138.923 75.3902C138.923 75.9822 138.571 76.4462 137.915 76.4462H136.475V74.4142ZM136.475 78.6862H138.171C138.955 78.6862 139.371 79.1662 139.371 79.8542C139.371 80.5422 138.923 81.0542 138.155 81.0542H136.475V78.6862ZM148.45 83.4542L151.634 78.1262C151.938 77.6302 152.258 76.9742 152.594 76.1742H152.626L152.498 78.1262V83.4542H155.298V72.0142H152.466L149.298 77.3582C148.994 77.8542 148.674 78.5102 148.338 79.3102H148.306L148.434 77.3582V72.0142H145.634V83.4542H148.45ZM162.097 83.4542V74.4142H166.305V72.0142H159.297V83.4542H162.097ZM170.029 83.4542L170.717 81.0542H174.285L174.989 83.4542H177.869L173.981 72.0142H171.037L167.149 83.4542H170.029ZM172.029 76.5902C172.173 76.1102 172.317 75.4542 172.493 74.6222H172.525L172.989 76.5902L173.629 78.8142H171.373L172.029 76.5902ZM184.996 83.4542V74.4142H188.468V72.0142H178.724V74.4142H182.196V83.4542H184.996ZM190.582 77.6622C190.582 79.3582 191.142 80.7822 192.278 81.9342C193.414 83.0702 194.854 83.6462 196.566 83.6462C198.278 83.6462 199.702 83.0702 200.838 81.9342C201.974 80.7822 202.55 79.3582 202.55 77.6622C202.55 76.0142 201.974 74.6222 200.838 73.5022C199.702 72.3822 198.278 71.8222 196.566 71.8222C194.854 71.8222 193.414 72.3822 192.278 73.5022C191.142 74.6222 190.582 76.0142 190.582 77.6622ZM193.478 77.6622C193.478 76.7342 193.782 75.9502 194.374 75.3262C194.966 74.7022 195.702 74.3822 196.566 74.3822C197.43 74.3822 198.166 74.7022 198.758 75.3262C199.35 75.9502 199.654 76.7342 199.654 77.6622C199.654 78.6382 199.35 79.4542 198.758 80.1102C198.166 80.7662 197.43 81.0862 196.566 81.0862C195.702 81.0862 194.966 80.7662 194.374 80.1102C193.782 79.4542 193.478 78.6382 193.478 77.6622ZM208.731 83.4542V79.9182H210.683C211.787 79.9182 212.683 79.5502 213.371 78.8142C214.059 78.0622 214.411 77.1182 214.411 75.9502C214.411 74.7982 214.059 73.8542 213.371 73.1182C212.683 72.3822 211.787 72.0142 210.683 72.0142H205.931V83.4542H208.731ZM208.731 74.4142H210.155C211.051 74.4142 211.563 75.0062 211.563 75.9502C211.563 76.8942 211.051 77.5182 210.107 77.5182H208.731V74.4142Z" fill="#F59E0B"/>
</svg>
